<svg width="1120" height="311" viewBox="0 0 1120 311" fill="none" xmlns="http://www.w3.org/2000/svg">
<g filter="url(#filter0_d_1_3)">
<path fill-rule="evenodd" clip-rule="evenodd" d="M1049.52 249.673C1072.49 254.97 1096.97 260.615 1120 264.78V0H0V249.5C15.8692 251.825 21.4354 256.86 27.8746 262.686C31.2764 265.763 34.9218 269.061 40.4586 272.296C81.6229 302.79 220.109 297.683 191.729 258.413C163.349 219.142 187.044 220.068 202.438 225.439C232.67 239.653 295.41 263.222 304.513 243.785C304.936 242.881 305.349 241.991 305.754 241.118C316.228 218.542 321.718 206.71 385.837 216.018C400.167 218.099 413.1 219.473 424.039 220.635C453.773 223.793 468.784 225.388 457.122 235.356C443.735 251.636 427.805 280.874 471.178 267.585C525.394 250.975 545.809 249.983 577.937 249.983C610.066 249.983 706.785 275.023 731.885 283.948C761.102 294.337 847.681 279.981 853.37 249.983C859.005 220.274 914.861 227.283 977.377 235.127L979.206 235.356C997.266 237.621 1022.34 243.403 1049.52 249.673Z" fill="#948DC0"/>
</g>
<defs>
<filter id="filter0_d_1_3" x="-14.9" y="-10.9" width="1149.8" height="321.8" filterUnits="userSpaceOnUse" color-interpolation-filters="sRGB">
<feFlood flood-opacity="0" result="BackgroundImageFix"/>
<feColorMatrix in="SourceAlpha" type="matrix" values="0 0 0 0 0 0 0 0 0 0 0 0 0 0 0 0 0 0 127 0" result="hardAlpha"/>
<feOffset dy="4"/>
<feGaussianBlur stdDeviation="7.45"/>
<feComposite in2="hardAlpha" operator="out"/>
<feColorMatrix type="matrix" values="0 0 0 0 0 0 0 0 0 0 0 0 0 0 0 0 0 0 0.25 0"/>
<feBlend mode="normal" in2="BackgroundImageFix" result="effect1_dropShadow_1_3"/>
<feBlend mode="normal" in="SourceGraphic" in2="effect1_dropShadow_1_3" result="shape"/>
</filter>
</defs>
</svg>
