<svg width="750" height="750" viewBox="0 0 750 750" fill="none" xmlns="http://www.w3.org/2000/svg" xmlns:xlink="http://www.w3.org/1999/xlink">
<path d="M375 20C375 8.95431 383.961 -0.0556184 394.991 0.533206C437.405 2.79742 479.176 12.254 518.506 28.5452C564.003 47.3907 605.343 75.013 640.165 109.835C674.987 144.657 702.609 185.997 721.455 231.494C737.746 270.824 747.203 312.595 749.467 355.009C750.056 366.039 741.046 375 730 375L626.652 375C615.606 375 606.741 366.029 605.789 355.025C603.748 331.449 598.104 308.286 589.018 286.351C577.377 258.245 560.313 232.708 538.803 211.197C517.292 189.687 491.755 172.623 463.649 160.982C441.714 151.896 418.551 146.252 394.975 144.211C383.971 143.259 375 134.394 375 123.348V20Z" fill="#5383EC"/>
<path d="M729.521 393.442C740.551 394.016 749.084 403.434 747.923 414.419C738.65 502.177 698.672 584.103 634.706 645.514C570.739 706.925 487.252 743.53 399.189 749.219C388.166 749.932 379.103 741.023 378.979 729.978L377.821 626.636C377.697 615.591 386.569 606.626 397.562 605.551C449.144 600.504 497.765 578.267 535.43 542.107C573.095 505.947 597.296 458.272 604.44 406.939C605.963 395.999 615.281 387.499 626.312 388.073L729.521 393.442Z" fill="#D85140"/>
<path d="M356.833 729.535C356.267 740.566 346.856 749.106 335.87 747.953C262.846 740.293 193.661 711.353 136.932 664.739C128.397 657.726 127.869 645.029 135.326 636.881L205.1 560.641C212.558 552.493 225.16 552.01 233.921 558.738C265.776 583.198 303.456 598.959 343.24 604.465C354.181 605.979 362.687 615.291 362.122 626.322L356.833 729.535Z" fill="#F1BF42"/>
<path d="M123.977 626.023C116.167 633.833 103.459 633.868 96.0761 625.652C59.3326 584.765 32.0252 536.293 16.094 483.681C12.8928 473.109 19.5069 462.259 30.2341 459.626L130.603 434.989C141.33 432.356 152.078 438.955 155.626 449.416C164.88 476.697 179.144 502.016 197.683 524.068C204.791 532.523 204.866 545.134 197.055 552.945L123.977 626.023Z" fill="#58A65C"/>
<path d="M26.1891 441C15.336 443.053 4.81713 435.923 3.345 424.976C-3.98139 370.495 0.761069 315.063 17.2355 262.618C20.5457 252.081 32.1228 246.841 42.4694 250.708L139.276 286.892C149.623 290.76 154.786 302.266 151.825 312.908C144.103 340.662 141.626 369.617 144.521 398.28C145.631 409.27 138.589 419.732 127.736 421.786L26.1891 441Z" fill="#ED762F"/>
<path d="M49.4137 233.513C39.2832 229.111 34.5912 217.301 39.5273 207.42C64.0926 158.243 99.174 115.063 142.279 80.9488C150.941 74.0941 163.461 76.2685 169.844 85.2829L229.569 169.626C235.953 178.64 233.754 191.059 225.324 198.196C203.336 216.81 185.012 239.365 171.294 264.698C166.035 274.411 154.329 279.105 144.199 274.703L49.4137 233.513Z" fill="#69BBC4"/>
<path d="M182.484 76.734C176.494 67.4535 179.137 55.0242 188.723 49.5374C204.571 40.4671 221.059 32.5665 238.058 25.8985C248.341 21.8648 259.684 27.5931 263.163 38.0763L295.721 136.162C299.201 146.645 293.48 157.885 283.336 162.256C277.661 164.7 272.087 167.371 266.626 170.262C256.864 175.429 244.52 172.846 238.53 163.566L182.484 76.734Z" fill="#85A9F1"/>
<path d="M275.793 34.1438C272.706 23.5382 278.792 12.3831 289.547 9.86607C307.326 5.70518 325.386 2.84839 343.581 1.31853C354.588 0.393074 363.819 9.1251 364.157 20.1656L367.313 123.466C367.651 134.506 358.955 143.641 347.985 144.929C341.848 145.649 335.743 146.615 329.684 147.824C318.852 149.985 307.761 143.98 304.674 133.374L275.793 34.1438Z" fill="#E18176"/>
<rect x="206" y="206" width="338" height="338" rx="169" fill="url(#pattern0_291_345)"/>
<rect x="184" y="184" width="381" height="381" rx="190.5" stroke="white" stroke-width="2" stroke-dasharray="10 10"/>
</svg>
