<svg width="256" height="811" viewBox="0 0 256 811" fill="none" xmlns="http://www.w3.org/2000/svg">
<rect x="2.5" y="2.5" width="251" height="59" rx="17.5" fill="#272727" stroke="white" stroke-width="5"/>
<rect x="2.5" y="299.5" width="251" height="59" rx="17.5" fill="#272727" stroke="white" stroke-width="5"/>
<rect x="2.5" y="594.5" width="251" height="59" rx="17.5" fill="#272727" stroke="white" stroke-width="5"/>
<rect x="2.5" y="77.5" width="251" height="146" rx="17.5" fill="#272727" stroke="white" stroke-width="5"/>
<rect x="2.5" y="374.5" width="251" height="147" rx="17.5" fill="#272727" stroke="white" stroke-width="5"/>
<path d="M64.2144 47.08C61.7877 47.08 60.5744 46.8133 60.5744 46.28V20.36C60.5744 19.4533 60.9877 19 61.8144 19H68.8544C72.801 19 75.641 19.8133 77.3744 21.44C79.1344 23.0667 80.0144 25.4267 80.0144 28.52C80.0144 31.08 79.1877 33.4267 77.5344 35.56C76.7077 36.6267 75.4944 37.48 73.8944 38.12C72.2944 38.76 70.4277 39.08 68.2944 39.08V46.24C68.2944 46.56 67.7877 46.7867 66.7744 46.92C65.7877 47.0267 64.9344 47.08 64.2144 47.08ZM68.2944 25.96V32.28H68.8144C69.7477 32.28 70.5344 31.9867 71.1744 31.4C71.8144 30.8133 72.1344 29.9867 72.1344 28.92C72.1344 27.8533 71.9077 27.0933 71.4544 26.64C71.0277 26.1867 70.2544 25.96 69.1344 25.96H68.2944ZM105.307 46.32C105.307 46.7733 103.96 47 101.267 47C98.5735 47 97.2269 46.7733 97.2269 46.32V37.12H91.6269V46.32C91.6269 46.7733 90.2802 47 87.5869 47C84.8935 47 83.5469 46.7733 83.5469 46.32V19.8C83.5469 19.24 84.8935 18.96 87.5869 18.96C90.2802 18.96 91.6269 19.24 91.6269 19.8V29.2H97.2269V19.88C97.2269 19.5067 97.8935 19.24 99.2269 19.08C99.9202 19.0267 100.6 19 101.267 19L103.307 19.08C104.64 19.24 105.307 19.5067 105.307 19.88V46.32ZM128.089 47.08C125.769 47.08 124.516 46.7067 124.329 45.96L123.009 40.8H116.649L115.489 45.76C115.329 46.5867 114.049 47 111.649 47C110.369 47 109.422 46.9333 108.809 46.8C108.196 46.64 107.889 46.52 107.889 46.44L114.969 19.36C114.969 19.1467 116.796 19.04 120.449 19.04C124.102 19.04 125.929 19.1467 125.929 19.36L132.849 46.48C132.849 46.6667 132.236 46.8133 131.009 46.92C129.782 47.0267 128.809 47.08 128.089 47.08ZM117.649 35.72H121.849L120.049 27.44H119.809L117.649 35.72ZM136.54 37.24C137.047 37.64 137.913 38.1867 139.14 38.88C140.393 39.5733 141.58 39.92 142.7 39.92C143.847 39.92 144.42 39.48 144.42 38.6C144.42 38.2 144.26 37.8533 143.94 37.56C143.62 37.24 143.033 36.88 142.18 36.48C141.327 36.08 140.687 35.7733 140.26 35.56C139.833 35.32 139.26 34.9467 138.54 34.44C137.847 33.9067 137.313 33.36 136.94 32.8C135.873 31.28 135.34 29.3467 135.34 27C135.34 24.6533 136.207 22.68 137.94 21.08C139.7 19.4533 141.993 18.64 144.82 18.64C146.74 18.64 148.513 18.8533 150.14 19.28C151.767 19.68 152.607 20.2133 152.66 20.88C152.66 20.96 152.66 21.04 152.66 21.12C152.66 22.0533 152.367 23.24 151.78 24.68C151.193 26.0933 150.78 26.88 150.54 27.04C148.833 26.16 147.3 25.72 145.94 25.72C144.607 25.72 143.94 26.2 143.94 27.16C143.94 27.7467 144.433 28.2667 145.42 28.72C145.633 28.8267 145.94 28.9733 146.34 29.16C146.74 29.3467 147.193 29.5733 147.7 29.84C148.233 30.08 148.793 30.4 149.38 30.8C149.993 31.1733 150.647 31.68 151.34 32.32C152.753 33.6533 153.46 35.4133 153.46 37.6C153.46 40.4533 152.673 42.7867 151.1 44.6C149.527 46.4133 147.1 47.3467 143.82 47.4C142.22 47.4 140.767 47.2667 139.46 47C138.18 46.7333 137.06 46.2133 136.1 45.44C135.14 44.6667 134.66 43.7333 134.66 42.64C134.66 41.5467 134.86 40.4667 135.26 39.4C135.66 38.3067 136.087 37.5867 136.54 37.24ZM169.75 30.12C170.257 30.12 170.51 31.0533 170.51 32.92C170.51 33.48 170.443 34.1467 170.31 34.92C170.203 35.6667 169.99 36.04 169.67 36.04H164.59V40.04H171.95C172.403 40.04 172.71 40.6267 172.87 41.8C172.95 42.3067 172.99 42.8533 172.99 43.44C172.99 44 172.91 44.7333 172.75 45.64C172.59 46.5467 172.323 47 171.95 47H158.27C157.257 47 156.75 46.5867 156.75 45.76V20.04C156.75 19.3467 157.057 19 157.67 19H171.99C172.55 19 172.83 20.1867 172.83 22.56C172.83 24.9067 172.55 26.08 171.99 26.08H164.59V30.12H169.75ZM196.256 46.32C196.256 46.7733 194.896 47 192.176 47C189.482 47 188.136 46.7733 188.136 46.32V26.6L183.816 26.64C183.016 26.64 182.616 25.36 182.616 22.8C182.616 21.92 182.696 21.0667 182.856 20.24C183.042 19.4133 183.349 19 183.776 19H194.736C195.189 19 195.549 19.1067 195.816 19.32C196.109 19.5067 196.256 19.7467 196.256 20.04V46.32Z" fill="white"/>
<path d="M61.8316 344.08C59.4049 344.08 58.1916 343.813 58.1916 343.28V317.36C58.1916 316.453 58.6049 316 59.4316 316H66.4716C70.4182 316 73.2582 316.813 74.9916 318.44C76.7516 320.067 77.6316 322.427 77.6316 325.52C77.6316 328.08 76.8049 330.427 75.1516 332.56C74.3249 333.627 73.1116 334.48 71.5116 335.12C69.9116 335.76 68.0449 336.08 65.9116 336.08V343.24C65.9116 343.56 65.4049 343.787 64.3916 343.92C63.4049 344.027 62.5516 344.08 61.8316 344.08ZM65.9116 322.96V329.28H66.4316C67.3649 329.28 68.1516 328.987 68.7916 328.4C69.4316 327.813 69.7516 326.987 69.7516 325.92C69.7516 324.853 69.5249 324.093 69.0716 323.64C68.6449 323.187 67.8716 322.96 66.7516 322.96H65.9116ZM102.924 343.32C102.924 343.773 101.577 344 98.8841 344C96.1907 344 94.8441 343.773 94.8441 343.32V334.12H89.2441V343.32C89.2441 343.773 87.8974 344 85.2041 344C82.5107 344 81.1641 343.773 81.1641 343.32V316.8C81.1641 316.24 82.5107 315.96 85.2041 315.96C87.8974 315.96 89.2441 316.24 89.2441 316.8V326.2H94.8441V316.88C94.8441 316.507 95.5107 316.24 96.8441 316.08C97.5374 316.027 98.2174 316 98.8841 316L100.924 316.08C102.257 316.24 102.924 316.507 102.924 316.88V343.32ZM125.706 344.08C123.386 344.08 122.133 343.707 121.946 342.96L120.626 337.8H114.266L113.106 342.76C112.946 343.587 111.666 344 109.266 344C107.986 344 107.04 343.933 106.426 343.8C105.813 343.64 105.506 343.52 105.506 343.44L112.586 316.36C112.586 316.147 114.413 316.04 118.066 316.04C121.72 316.04 123.546 316.147 123.546 316.36L130.466 343.48C130.466 343.667 129.853 343.813 128.626 343.92C127.4 344.027 126.426 344.08 125.706 344.08ZM115.266 332.72H119.466L117.666 324.44H117.426L115.266 332.72ZM134.157 334.24C134.664 334.64 135.531 335.187 136.757 335.88C138.011 336.573 139.197 336.92 140.317 336.92C141.464 336.92 142.037 336.48 142.037 335.6C142.037 335.2 141.877 334.853 141.557 334.56C141.237 334.24 140.651 333.88 139.797 333.48C138.944 333.08 138.304 332.773 137.877 332.56C137.451 332.32 136.877 331.947 136.157 331.44C135.464 330.907 134.931 330.36 134.557 329.8C133.491 328.28 132.957 326.347 132.957 324C132.957 321.653 133.824 319.68 135.557 318.08C137.317 316.453 139.611 315.64 142.437 315.64C144.357 315.64 146.131 315.853 147.757 316.28C149.384 316.68 150.224 317.213 150.277 317.88C150.277 317.96 150.277 318.04 150.277 318.12C150.277 319.053 149.984 320.24 149.397 321.68C148.811 323.093 148.397 323.88 148.157 324.04C146.451 323.16 144.917 322.72 143.557 322.72C142.224 322.72 141.557 323.2 141.557 324.16C141.557 324.747 142.051 325.267 143.037 325.72C143.251 325.827 143.557 325.973 143.957 326.16C144.357 326.347 144.811 326.573 145.317 326.84C145.851 327.08 146.411 327.4 146.997 327.8C147.611 328.173 148.264 328.68 148.957 329.32C150.371 330.653 151.077 332.413 151.077 334.6C151.077 337.453 150.291 339.787 148.717 341.6C147.144 343.413 144.717 344.347 141.437 344.4C139.837 344.4 138.384 344.267 137.077 344C135.797 343.733 134.677 343.213 133.717 342.44C132.757 341.667 132.277 340.733 132.277 339.64C132.277 338.547 132.477 337.467 132.877 336.4C133.277 335.307 133.704 334.587 134.157 334.24ZM167.367 327.12C167.874 327.12 168.127 328.053 168.127 329.92C168.127 330.48 168.061 331.147 167.927 331.92C167.821 332.667 167.607 333.04 167.287 333.04H162.207V337.04H169.567C170.021 337.04 170.327 337.627 170.487 338.8C170.567 339.307 170.607 339.853 170.607 340.44C170.607 341 170.527 341.733 170.367 342.64C170.207 343.547 169.941 344 169.567 344H155.887C154.874 344 154.367 343.587 154.367 342.76V317.04C154.367 316.347 154.674 316 155.287 316H169.607C170.167 316 170.447 317.187 170.447 319.56C170.447 321.907 170.167 323.08 169.607 323.08H162.207V327.12H167.367ZM196.953 344H183.673C182.739 344 182.086 343.093 181.713 341.28C181.526 340.293 181.433 339.547 181.433 339.04C181.433 338.533 181.513 338.2 181.673 338.04C187.646 331.88 190.633 327.693 190.633 325.48C190.633 324.733 190.433 324.173 190.033 323.8C189.659 323.427 189.046 323.24 188.193 323.24C187.366 323.24 186.526 323.4 185.673 323.72C184.846 324.04 184.193 324.387 183.713 324.76C182.673 323.507 181.953 322.187 181.553 320.8C181.419 320.347 181.353 319.933 181.353 319.56C181.353 319.16 181.419 318.787 181.553 318.44C181.766 317.747 182.753 317.093 184.513 316.48C186.299 315.867 188.179 315.56 190.153 315.56C196.126 315.56 199.113 318.213 199.113 323.52C199.113 325.867 198.313 328.253 196.713 330.68C195.113 333.08 193.246 335.16 191.113 336.92L199.193 336.6C199.326 338.013 199.393 339.24 199.393 340.28C199.393 341.32 199.179 342.2 198.753 342.92C198.326 343.64 197.726 344 196.953 344Z" fill="white"/>
<path d="M61.773 639.08C59.3463 639.08 58.133 638.813 58.133 638.28V612.36C58.133 611.453 58.5463 611 59.373 611H66.413C70.3596 611 73.1996 611.813 74.933 613.44C76.693 615.067 77.573 617.427 77.573 620.52C77.573 623.08 76.7463 625.427 75.093 627.56C74.2663 628.627 73.053 629.48 71.453 630.12C69.853 630.76 67.9863 631.08 65.853 631.08V638.24C65.853 638.56 65.3463 638.787 64.333 638.92C63.3463 639.027 62.493 639.08 61.773 639.08ZM65.853 617.96V624.28H66.373C67.3063 624.28 68.093 623.987 68.733 623.4C69.373 622.813 69.693 621.987 69.693 620.92C69.693 619.853 69.4663 619.093 69.013 618.64C68.5863 618.187 67.813 617.96 66.693 617.96H65.853ZM102.865 638.32C102.865 638.773 101.519 639 98.8255 639C96.1321 639 94.7855 638.773 94.7855 638.32V629.12H89.1855V638.32C89.1855 638.773 87.8388 639 85.1455 639C82.4521 639 81.1055 638.773 81.1055 638.32V611.8C81.1055 611.24 82.4521 610.96 85.1455 610.96C87.8388 610.96 89.1855 611.24 89.1855 611.8V621.2H94.7855V611.88C94.7855 611.507 95.4521 611.24 96.7855 611.08C97.4788 611.027 98.1588 611 98.8255 611L100.865 611.08C102.199 611.24 102.865 611.507 102.865 611.88V638.32ZM125.648 639.08C123.328 639.08 122.074 638.707 121.888 637.96L120.568 632.8H114.208L113.048 637.76C112.888 638.587 111.608 639 109.208 639C107.928 639 106.981 638.933 106.368 638.8C105.754 638.64 105.448 638.52 105.448 638.44L112.528 611.36C112.528 611.147 114.354 611.04 118.008 611.04C121.661 611.04 123.488 611.147 123.488 611.36L130.408 638.48C130.408 638.667 129.794 638.813 128.568 638.92C127.341 639.027 126.368 639.08 125.648 639.08ZM115.208 627.72H119.408L117.608 619.44H117.368L115.208 627.72ZM134.099 629.24C134.605 629.64 135.472 630.187 136.699 630.88C137.952 631.573 139.139 631.92 140.259 631.92C141.405 631.92 141.979 631.48 141.979 630.6C141.979 630.2 141.819 629.853 141.499 629.56C141.179 629.24 140.592 628.88 139.739 628.48C138.885 628.08 138.245 627.773 137.819 627.56C137.392 627.32 136.819 626.947 136.099 626.44C135.405 625.907 134.872 625.36 134.499 624.8C133.432 623.28 132.899 621.347 132.899 619C132.899 616.653 133.765 614.68 135.499 613.08C137.259 611.453 139.552 610.64 142.379 610.64C144.299 610.64 146.072 610.853 147.699 611.28C149.325 611.68 150.165 612.213 150.219 612.88C150.219 612.96 150.219 613.04 150.219 613.12C150.219 614.053 149.925 615.24 149.339 616.68C148.752 618.093 148.339 618.88 148.099 619.04C146.392 618.16 144.859 617.72 143.499 617.72C142.165 617.72 141.499 618.2 141.499 619.16C141.499 619.747 141.992 620.267 142.979 620.72C143.192 620.827 143.499 620.973 143.899 621.16C144.299 621.347 144.752 621.573 145.259 621.84C145.792 622.08 146.352 622.4 146.939 622.8C147.552 623.173 148.205 623.68 148.899 624.32C150.312 625.653 151.019 627.413 151.019 629.6C151.019 632.453 150.232 634.787 148.659 636.6C147.085 638.413 144.659 639.347 141.379 639.4C139.779 639.4 138.325 639.267 137.019 639C135.739 638.733 134.619 638.213 133.659 637.44C132.699 636.667 132.219 635.733 132.219 634.64C132.219 633.547 132.419 632.467 132.819 631.4C133.219 630.307 133.645 629.587 134.099 629.24ZM167.309 622.12C167.815 622.12 168.069 623.053 168.069 624.92C168.069 625.48 168.002 626.147 167.869 626.92C167.762 627.667 167.549 628.04 167.229 628.04H162.149V632.04H169.509C169.962 632.04 170.269 632.627 170.429 633.8C170.509 634.307 170.549 634.853 170.549 635.44C170.549 636 170.469 636.733 170.309 637.64C170.149 638.547 169.882 639 169.509 639H155.829C154.815 639 154.309 638.587 154.309 637.76V612.04C154.309 611.347 154.615 611 155.229 611H169.549C170.109 611 170.389 612.187 170.389 614.56C170.389 616.907 170.109 618.08 169.549 618.08H162.149V622.12H167.309ZM180.374 636.36C180.374 635.613 180.561 634.773 180.934 633.84C181.308 632.88 181.668 632.12 182.014 631.56C182.361 630.973 182.561 630.68 182.614 630.68C184.161 631.613 185.788 632.08 187.494 632.08C188.561 632.08 189.414 631.867 190.054 631.44C190.721 631.013 191.054 630.427 191.054 629.68C191.054 628.907 190.748 628.413 190.134 628.2C189.548 627.987 188.601 627.84 187.294 627.76H185.854C185.534 627.76 185.228 627.373 184.934 626.6C184.668 625.8 184.534 625.027 184.534 624.28C184.534 623.027 184.908 622.387 185.654 622.36L186.814 622.32C187.534 622.32 188.281 622.12 189.054 621.72C189.854 621.293 190.254 620.76 190.254 620.12C190.254 619 189.254 618.44 187.254 618.44C185.761 618.44 184.321 618.733 182.934 619.32C181.734 617.16 181.134 615.48 181.134 614.28C181.134 613.053 181.974 612.133 183.654 611.52C185.361 610.907 187.494 610.6 190.054 610.6C192.614 610.6 194.614 611.133 196.054 612.2C197.494 613.267 198.214 614.72 198.214 616.56C198.214 619.787 196.828 622.267 194.054 624C197.414 625.36 199.094 627.667 199.094 630.92C199.094 633.453 198.201 635.507 196.414 637.08C194.628 638.627 192.068 639.4 188.734 639.4C186.628 639.4 184.708 639.107 182.974 638.52C181.241 637.907 180.374 637.187 180.374 636.36Z" fill="white"/>
<path d="M51.242 101.886C51.242 101.813 51.5573 101.747 52.188 101.688C52.8333 101.615 53.3613 101.578 53.772 101.578C55.4 101.578 56.2507 101.791 56.324 102.216L58.216 111.896L59.998 102.216C60.086 101.791 60.9953 101.578 62.726 101.578C63.1513 101.578 63.6867 101.607 64.332 101.666C64.9773 101.725 65.3 101.791 65.3 101.864L61.406 116.428C61.3473 116.663 60.9147 116.817 60.108 116.89C58.8613 117.022 57.7247 117.051 56.698 116.978C55.686 116.89 55.1507 116.743 55.092 116.538L51.242 101.886ZM68.0969 113.216V105.384H66.5349C66.2856 105.384 66.1096 105.069 66.0069 104.438C65.9629 104.13 65.9409 103.815 65.9409 103.492C65.9409 103.169 65.9629 102.854 66.0069 102.546C66.1096 101.915 66.2856 101.6 66.5349 101.6H73.9269C74.1763 101.6 74.3449 101.915 74.4329 102.546C74.4916 102.854 74.5209 103.169 74.5209 103.492C74.5209 103.815 74.4916 104.13 74.4329 104.438C74.3449 105.069 74.1763 105.384 73.9269 105.384H72.4529V113.216H73.9929C74.2423 113.216 74.4183 113.531 74.5209 114.162C74.5796 114.47 74.6089 114.785 74.6089 115.108C74.6089 115.431 74.5796 115.746 74.5209 116.054C74.4183 116.685 74.2423 117 73.9929 117H66.5789C66.3296 117 66.1609 116.685 66.0729 116.054C66.0143 115.746 65.9849 115.431 65.9849 115.108C65.9849 114.785 66.0143 114.47 66.0729 114.162C66.1609 113.531 66.3296 113.216 66.5789 113.216H68.0969ZM77.9906 117.044C76.6559 117.044 75.9886 116.897 75.9886 116.604V102.348C75.9886 101.849 76.2159 101.6 76.6706 101.6H80.5426C82.7132 101.6 84.2752 102.047 85.2286 102.942C86.1966 103.837 86.6806 105.135 86.6806 106.836C86.6806 108.244 86.2259 109.535 85.3166 110.708C84.8619 111.295 84.1946 111.764 83.3146 112.116C82.4346 112.468 81.4079 112.644 80.2346 112.644V116.582C80.2346 116.758 79.9559 116.883 79.3986 116.956C78.8559 117.015 78.3866 117.044 77.9906 117.044ZM80.2346 105.428V108.904H80.5206C81.0339 108.904 81.4666 108.743 81.8186 108.42C82.1706 108.097 82.3466 107.643 82.3466 107.056C82.3466 106.469 82.2219 106.051 81.9726 105.802C81.7379 105.553 81.3126 105.428 80.6966 105.428H80.2346ZM97.3899 121.004C97.3899 121.107 96.7593 121.158 95.4979 121.158C94.2513 121.158 93.6279 121.107 93.6279 121.004V109.674H92.8799C92.5279 109.674 92.2859 109.351 92.1539 108.706C92.1099 108.501 92.0879 108.237 92.0879 107.914C92.0879 107.591 92.1906 107.21 92.3959 106.77C92.6893 106.125 93.1586 105.802 93.8039 105.802C94.2293 105.802 94.6179 105.905 94.9699 106.11C95.3366 106.301 95.5859 106.484 95.7179 106.66C95.8646 106.821 95.9379 106.917 95.9379 106.946C96.9206 106.183 97.9839 105.802 99.1279 105.802C100.272 105.802 101.255 106.249 102.076 107.144C102.897 108.024 103.308 109.395 103.308 111.258C103.308 113.106 102.897 114.543 102.076 115.57C101.255 116.582 100.213 117.088 98.9519 117.088C98.3799 117.088 97.8593 117.059 97.3899 117V121.004ZM98.2919 109.652C98.0426 109.652 97.8006 109.733 97.5659 109.894V113.788C97.8153 113.817 98.0133 113.832 98.1599 113.832C98.3213 113.832 98.4459 113.832 98.5339 113.832C99.1353 113.773 99.4359 113.003 99.4359 111.522C99.4359 110.275 99.0546 109.652 98.2919 109.652ZM109.681 116.978C109.681 117.081 109.014 117.132 107.679 117.132C106.344 117.103 105.677 117.044 105.677 116.956V109.652H105.083C104.848 109.652 104.658 109.513 104.511 109.234C104.379 108.941 104.313 108.581 104.313 108.156C104.313 106.572 104.782 105.78 105.721 105.78C106.381 105.78 106.931 105.985 107.371 106.396C107.811 106.792 108.031 107.247 108.031 107.76C108.339 107.159 108.75 106.682 109.263 106.33C109.791 105.963 110.326 105.78 110.869 105.78C111.72 105.78 112.233 106 112.409 106.44C112.453 106.557 112.475 106.733 112.475 106.968C112.475 107.188 112.402 107.591 112.255 108.178C112.123 108.765 111.984 109.19 111.837 109.454C111.69 109.718 111.602 109.85 111.573 109.85C111.544 109.85 111.404 109.799 111.155 109.696C110.92 109.579 110.708 109.52 110.517 109.52C109.96 109.52 109.681 109.96 109.681 110.84V116.978ZM121.902 116.406C120.978 116.949 119.79 117.22 118.338 117.22C116.886 117.22 115.661 116.729 114.664 115.746C113.666 114.749 113.168 113.377 113.168 111.632C113.168 109.872 113.644 108.457 114.598 107.386C115.566 106.315 116.783 105.78 118.25 105.78C119.716 105.78 120.846 106.154 121.638 106.902C122.444 107.65 122.848 108.559 122.848 109.63C122.848 112.006 121.484 113.194 118.756 113.194H117.238C117.238 113.634 117.355 113.942 117.59 114.118C117.839 114.279 118.198 114.36 118.668 114.36C119.694 114.36 120.67 114.125 121.594 113.656C121.608 113.641 121.674 113.744 121.792 113.964C122.144 114.595 122.32 115.13 122.32 115.57C122.32 115.995 122.18 116.274 121.902 116.406ZM119.152 110.048C119.152 109.432 118.851 109.124 118.25 109.124C117.971 109.124 117.729 109.212 117.524 109.388C117.333 109.549 117.238 109.791 117.238 110.114V110.796H118.426C118.91 110.796 119.152 110.547 119.152 110.048ZM124.747 113.04C125.935 113.759 126.874 114.118 127.563 114.118C128.003 114.118 128.223 113.964 128.223 113.656C128.223 113.436 127.842 113.15 127.079 112.798C125.246 112.05 124.329 110.825 124.329 109.124C124.329 108.039 124.725 107.21 125.517 106.638C126.309 106.066 127.255 105.78 128.355 105.78C129.47 105.78 130.408 105.897 131.171 106.132C131.948 106.367 132.337 106.675 132.337 107.056C132.337 107.379 132.176 107.804 131.853 108.332C131.545 108.86 131.332 109.146 131.215 109.19C130.584 108.838 129.902 108.662 129.169 108.662C128.773 108.662 128.575 108.801 128.575 109.08C128.575 109.256 128.648 109.41 128.795 109.542C128.956 109.659 129.242 109.813 129.653 110.004C130.064 110.18 130.401 110.341 130.665 110.488C130.944 110.635 131.252 110.84 131.589 111.104C132.293 111.661 132.645 112.387 132.645 113.282C132.645 114.455 132.256 115.409 131.479 116.142C130.702 116.861 129.528 117.22 127.959 117.22C126.918 117.22 125.972 117.044 125.121 116.692C124.27 116.34 123.845 115.856 123.845 115.24C123.845 114.829 123.94 114.397 124.131 113.942C124.336 113.487 124.542 113.187 124.747 113.04ZM142.505 116.406C141.581 116.949 140.393 117.22 138.941 117.22C137.489 117.22 136.265 116.729 135.267 115.746C134.27 114.749 133.771 113.377 133.771 111.632C133.771 109.872 134.248 108.457 135.201 107.386C136.169 106.315 137.387 105.78 138.853 105.78C140.32 105.78 141.449 106.154 142.241 106.902C143.048 107.65 143.451 108.559 143.451 109.63C143.451 112.006 142.087 113.194 139.359 113.194H137.841C137.841 113.634 137.959 113.942 138.193 114.118C138.443 114.279 138.802 114.36 139.271 114.36C140.298 114.36 141.273 114.125 142.197 113.656C142.212 113.641 142.278 113.744 142.395 113.964C142.747 114.595 142.923 115.13 142.923 115.57C142.923 115.995 142.784 116.274 142.505 116.406ZM139.755 110.048C139.755 109.432 139.455 109.124 138.853 109.124C138.575 109.124 138.333 109.212 138.127 109.388C137.937 109.549 137.841 109.791 137.841 110.114V110.796H139.029C139.513 110.796 139.755 110.547 139.755 110.048ZM148.914 116.868C148.914 116.985 148.24 117.044 146.89 117.044C145.556 117.044 144.888 116.993 144.888 116.89V106.088C144.888 105.985 145.556 105.934 146.89 105.934C148.24 105.934 148.914 105.978 148.914 106.066V116.868ZM148.914 104.768C148.914 104.871 148.24 104.922 146.89 104.922C145.556 104.922 144.888 104.878 144.888 104.79V101.622C144.888 101.475 145.556 101.402 146.89 101.402C148.24 101.402 148.914 101.446 148.914 101.534V104.768ZM154.908 116.824C154.908 116.956 154.16 117.022 152.664 117.022C151.491 117.007 150.904 116.949 150.904 116.846V101.864C150.904 101.644 151.615 101.534 153.038 101.534C154.285 101.578 154.908 101.651 154.908 101.754V116.824ZM54.014 157.044C52.6793 157.044 52.012 156.897 52.012 156.604V142.348C52.012 141.849 52.2393 141.6 52.694 141.6H56.566C58.7367 141.6 60.2987 142.047 61.252 142.942C62.22 143.837 62.704 145.135 62.704 146.836C62.704 148.244 62.2493 149.535 61.34 150.708C60.8853 151.295 60.218 151.764 59.338 152.116C58.458 152.468 57.4313 152.644 56.258 152.644V156.582C56.258 156.758 55.9793 156.883 55.422 156.956C54.8793 157.015 54.41 157.044 54.014 157.044ZM56.258 145.428V148.904H56.544C57.0573 148.904 57.49 148.743 57.842 148.42C58.194 148.097 58.37 147.643 58.37 147.056C58.37 146.469 58.2453 146.051 57.996 145.802C57.7613 145.553 57.336 145.428 56.72 145.428H56.258ZM69.3549 156.978C69.3549 157.081 68.6875 157.132 67.3529 157.132C66.0182 157.103 65.3509 157.044 65.3509 156.956V149.652H64.7569C64.5222 149.652 64.3315 149.513 64.1849 149.234C64.0529 148.941 63.9869 148.581 63.9869 148.156C63.9869 146.572 64.4562 145.78 65.3949 145.78C66.0549 145.78 66.6049 145.985 67.0449 146.396C67.4849 146.792 67.7049 147.247 67.7049 147.76C68.0129 147.159 68.4235 146.682 68.9369 146.33C69.4649 145.963 70.0002 145.78 70.5429 145.78C71.3935 145.78 71.9069 146 72.0829 146.44C72.1269 146.557 72.1489 146.733 72.1489 146.968C72.1489 147.188 72.0755 147.591 71.9289 148.178C71.7969 148.765 71.6575 149.19 71.5109 149.454C71.3642 149.718 71.2762 149.85 71.2469 149.85C71.2175 149.85 71.0782 149.799 70.8289 149.696C70.5942 149.579 70.3815 149.52 70.1909 149.52C69.6335 149.52 69.3549 149.96 69.3549 150.84V156.978ZM77.2855 156.868C77.2855 156.985 76.6109 157.044 75.2615 157.044C73.9269 157.044 73.2595 156.993 73.2595 156.89V146.088C73.2595 145.985 73.9269 145.934 75.2615 145.934C76.6109 145.934 77.2855 145.978 77.2855 146.066V156.868ZM77.2855 144.768C77.2855 144.871 76.6109 144.922 75.2615 144.922C73.9269 144.922 73.2595 144.878 73.2595 144.79V141.622C73.2595 141.475 73.9269 141.402 75.2615 141.402C76.6109 141.402 77.2855 141.446 77.2855 141.534V144.768ZM78.4172 146.066C78.3732 145.949 79.0552 145.89 80.4632 145.89C81.8858 145.89 82.5972 145.927 82.5972 146L84.1812 153.48L85.3692 146.11C85.4132 145.978 86.1392 145.912 87.5472 145.912C88.9698 145.912 89.6592 145.971 89.6152 146.088L86.5132 156.846C86.4105 156.993 85.5378 157.066 83.8952 157.066C82.2525 157.066 81.3725 156.956 81.2552 156.736L78.4172 146.066ZM92.1338 149.014C91.7231 148.281 91.5178 147.687 91.5178 147.232C91.5178 146.763 91.6425 146.462 91.8918 146.33C92.7278 145.963 93.8718 145.78 95.3238 145.78C96.7905 145.78 97.8245 146.125 98.4258 146.814C99.0271 147.489 99.3278 148.493 99.3278 149.828V153.304H100.076C100.325 153.304 100.516 153.451 100.648 153.744C100.794 154.037 100.868 154.441 100.868 154.954C100.868 155.467 100.736 155.973 100.472 156.472C100.222 156.971 99.8778 157.22 99.4378 157.22C98.6458 157.22 98.0078 157.007 97.5238 156.582C97.3038 156.406 97.1351 156.193 97.0178 155.944C96.3431 156.795 95.2945 157.22 93.8718 157.22C92.8011 157.22 91.8991 156.839 91.1658 156.076C90.4325 155.313 90.0658 154.411 90.0658 153.37C90.0658 150.979 91.4958 149.784 94.3558 149.784H95.5658V149.564C95.5658 149.183 95.4998 148.941 95.3678 148.838C95.2505 148.721 94.9645 148.662 94.5098 148.662C93.9525 148.662 93.1605 148.779 92.1338 149.014ZM93.8938 153.062C93.8938 153.385 93.9818 153.634 94.1578 153.81C94.3338 153.971 94.5538 154.052 94.8178 154.052C95.0965 154.052 95.3458 153.942 95.5658 153.722V152.028H94.9498C94.2458 152.028 93.8938 152.373 93.8938 153.062ZM107.173 156.868C107.173 157.044 106.557 157.132 105.325 157.132C103.858 157.073 103.125 156.978 103.125 156.846V149.058H102.003C101.71 149.058 101.563 148.552 101.563 147.54C101.563 147.276 101.585 146.953 101.629 146.572C101.688 146.191 101.798 146 101.959 146H103.125V144.064C103.125 143.771 103.741 143.624 104.973 143.624C106.22 143.624 106.843 143.741 106.843 143.976V145.384L106.865 146H108.735C108.984 146 109.109 146.513 109.109 147.54C109.109 148.567 108.984 149.08 108.735 149.08H107.173V156.868ZM119.089 161.004C119.089 161.107 118.458 161.158 117.197 161.158C115.95 161.158 115.327 161.107 115.327 161.004V149.674H114.579C114.227 149.674 113.985 149.351 113.853 148.706C113.809 148.501 113.787 148.237 113.787 147.914C113.787 147.591 113.89 147.21 114.095 146.77C114.388 146.125 114.858 145.802 115.503 145.802C115.928 145.802 116.317 145.905 116.669 146.11C117.036 146.301 117.285 146.484 117.417 146.66C117.564 146.821 117.637 146.917 117.637 146.946C118.62 146.183 119.683 145.802 120.827 145.802C121.971 145.802 122.954 146.249 123.775 147.144C124.596 148.024 125.007 149.395 125.007 151.258C125.007 153.106 124.596 154.543 123.775 155.57C122.954 156.582 121.912 157.088 120.651 157.088C120.079 157.088 119.558 157.059 119.089 157V161.004ZM119.991 149.652C119.742 149.652 119.5 149.733 119.265 149.894V153.788C119.514 153.817 119.712 153.832 119.859 153.832C120.02 153.832 120.145 153.832 120.233 153.832C120.834 153.773 121.135 153.003 121.135 151.522C121.135 150.275 120.754 149.652 119.991 149.652ZM131.38 156.978C131.38 157.081 130.713 157.132 129.378 157.132C128.044 157.103 127.376 157.044 127.376 156.956V149.652H126.782C126.548 149.652 126.357 149.513 126.21 149.234C126.078 148.941 126.012 148.581 126.012 148.156C126.012 146.572 126.482 145.78 127.42 145.78C128.08 145.78 128.63 145.985 129.07 146.396C129.51 146.792 129.73 147.247 129.73 147.76C130.038 147.159 130.449 146.682 130.962 146.33C131.49 145.963 132.026 145.78 132.568 145.78C133.419 145.78 133.932 146 134.108 146.44C134.152 146.557 134.174 146.733 134.174 146.968C134.174 147.188 134.101 147.591 133.954 148.178C133.822 148.765 133.683 149.19 133.536 149.454C133.39 149.718 133.302 149.85 133.272 149.85C133.243 149.85 133.104 149.799 132.854 149.696C132.62 149.579 132.407 149.52 132.216 149.52C131.659 149.52 131.38 149.96 131.38 150.84V156.978ZM143.601 156.406C142.677 156.949 141.489 157.22 140.037 157.22C138.585 157.22 137.36 156.729 136.363 155.746C135.366 154.749 134.867 153.377 134.867 151.632C134.867 149.872 135.344 148.457 136.297 147.386C137.265 146.315 138.482 145.78 139.949 145.78C141.416 145.78 142.545 146.154 143.337 146.902C144.144 147.65 144.547 148.559 144.547 149.63C144.547 152.006 143.183 153.194 140.455 153.194H138.937C138.937 153.634 139.054 153.942 139.289 154.118C139.538 154.279 139.898 154.36 140.367 154.36C141.394 154.36 142.369 154.125 143.293 153.656C143.308 153.641 143.374 153.744 143.491 153.964C143.843 154.595 144.019 155.13 144.019 155.57C144.019 155.995 143.88 156.274 143.601 156.406ZM140.851 150.048C140.851 149.432 140.55 149.124 139.949 149.124C139.67 149.124 139.428 149.212 139.223 149.388C139.032 149.549 138.937 149.791 138.937 150.114V150.796H140.125C140.609 150.796 140.851 150.547 140.851 150.048ZM146.446 153.04C147.634 153.759 148.573 154.118 149.262 154.118C149.702 154.118 149.922 153.964 149.922 153.656C149.922 153.436 149.541 153.15 148.778 152.798C146.945 152.05 146.028 150.825 146.028 149.124C146.028 148.039 146.424 147.21 147.216 146.638C148.008 146.066 148.954 145.78 150.054 145.78C151.169 145.78 152.107 145.897 152.87 146.132C153.647 146.367 154.036 146.675 154.036 147.056C154.036 147.379 153.875 147.804 153.552 148.332C153.244 148.86 153.031 149.146 152.914 149.19C152.283 148.838 151.601 148.662 150.868 148.662C150.472 148.662 150.274 148.801 150.274 149.08C150.274 149.256 150.347 149.41 150.494 149.542C150.655 149.659 150.941 149.813 151.352 150.004C151.763 150.18 152.1 150.341 152.364 150.488C152.643 150.635 152.951 150.84 153.288 151.104C153.992 151.661 154.344 152.387 154.344 153.282C154.344 154.455 153.955 155.409 153.178 156.142C152.401 156.861 151.227 157.22 149.658 157.22C148.617 157.22 147.671 157.044 146.82 156.692C145.969 156.34 145.544 155.856 145.544 155.24C145.544 154.829 145.639 154.397 145.83 153.942C146.035 153.487 146.241 153.187 146.446 153.04ZM164.204 156.406C163.28 156.949 162.092 157.22 160.64 157.22C159.188 157.22 157.964 156.729 156.966 155.746C155.969 154.749 155.47 153.377 155.47 151.632C155.47 149.872 155.947 148.457 156.9 147.386C157.868 146.315 159.086 145.78 160.552 145.78C162.019 145.78 163.148 146.154 163.94 146.902C164.747 147.65 165.15 148.559 165.15 149.63C165.15 152.006 163.786 153.194 161.058 153.194H159.54C159.54 153.634 159.658 153.942 159.892 154.118C160.142 154.279 160.501 154.36 160.97 154.36C161.997 154.36 162.972 154.125 163.896 153.656C163.911 153.641 163.977 153.744 164.094 153.964C164.446 154.595 164.622 155.13 164.622 155.57C164.622 155.995 164.483 156.274 164.204 156.406ZM161.454 150.048C161.454 149.432 161.154 149.124 160.552 149.124C160.274 149.124 160.032 149.212 159.826 149.388C159.636 149.549 159.54 149.791 159.54 150.114V150.796H160.728C161.212 150.796 161.454 150.547 161.454 150.048ZM170.614 156.868C170.614 156.985 169.939 157.044 168.59 157.044C167.255 157.044 166.588 156.993 166.588 156.89V146.088C166.588 145.985 167.255 145.934 168.59 145.934C169.939 145.934 170.614 145.978 170.614 146.066V156.868ZM170.614 144.768C170.614 144.871 169.939 144.922 168.59 144.922C167.255 144.922 166.588 144.878 166.588 144.79V141.622C166.588 141.475 167.255 141.402 168.59 141.402C169.939 141.402 170.614 141.446 170.614 141.534V144.768ZM176.607 156.824C176.607 156.956 175.859 157.022 174.363 157.022C173.19 157.007 172.603 156.949 172.603 156.846V141.864C172.603 141.644 173.315 141.534 174.737 141.534C175.984 141.578 176.607 141.651 176.607 141.754V156.824ZM62.902 185.582C62.902 187.107 62.242 188.266 60.922 189.058C61.6407 189.322 62.242 189.777 62.726 190.422C63.21 191.067 63.452 191.984 63.452 193.172C63.452 194.345 63.012 195.277 62.132 195.966C61.2667 196.655 60.02 197 58.392 197H53.2C52.9507 197 52.7453 196.919 52.584 196.758C52.4227 196.582 52.342 196.355 52.342 196.076V181.996C52.342 181.835 52.364 181.732 52.408 181.688C52.4667 181.629 52.5767 181.6 52.738 181.6H57.754C61.186 181.6 62.902 182.927 62.902 185.582ZM56.566 185.164V188.046H56.676C58.084 188.046 58.788 187.577 58.788 186.638C58.788 186.125 58.6487 185.751 58.37 185.516C58.106 185.281 57.6587 185.164 57.028 185.164H56.566ZM56.566 190.642V193.502H56.962C57.5927 193.502 58.0547 193.385 58.348 193.15C58.6413 192.915 58.788 192.541 58.788 192.028C58.788 191.515 58.6487 191.155 58.37 190.95C58.106 190.745 57.6587 190.642 57.028 190.642H56.566ZM64.9425 186.132C64.9425 185.971 65.5732 185.89 66.8345 185.89C68.0958 185.89 68.7265 185.971 68.7265 186.132V192.556C68.7265 193.289 68.9612 193.656 69.4305 193.656C69.7825 193.656 70.1785 193.502 70.6185 193.194V186.132C70.6185 185.985 71.2418 185.912 72.4885 185.912C73.7352 185.912 74.3585 185.985 74.3585 186.132V193.348H74.9305C75.4292 193.348 75.6785 193.825 75.6785 194.778C75.6785 195.262 75.5758 195.753 75.3705 196.252C75.0772 196.897 74.6812 197.22 74.1825 197.22C73.1998 197.22 72.4738 196.817 72.0045 196.01L71.9825 196.032C71.0878 196.824 70.1272 197.22 69.1005 197.22C67.6778 197.22 66.6292 196.868 65.9545 196.164C65.2798 195.445 64.9425 194.265 64.9425 192.622V186.132ZM81.0453 196.868C81.0453 196.985 80.3706 197.044 79.0213 197.044C77.6866 197.044 77.0193 196.993 77.0193 196.89V186.088C77.0193 185.985 77.6866 185.934 79.0213 185.934C80.3706 185.934 81.0453 185.978 81.0453 186.066V196.868ZM81.0453 184.768C81.0453 184.871 80.3706 184.922 79.0213 184.922C77.6866 184.922 77.0193 184.878 77.0193 184.79V181.622C77.0193 181.475 77.6866 181.402 79.0213 181.402C80.3706 181.402 81.0453 181.446 81.0453 181.534V184.768ZM87.0389 196.824C87.0389 196.956 86.2909 197.022 84.7949 197.022C83.6216 197.007 83.0349 196.949 83.0349 196.846V181.864C83.0349 181.644 83.7463 181.534 85.1689 181.534C86.4156 181.578 87.0389 181.651 87.0389 181.754V196.824ZM94.5951 181.732C94.5951 181.512 95.1744 181.402 96.3331 181.402C96.7291 181.402 97.1837 181.431 97.6971 181.49C98.2251 181.534 98.4891 181.6 98.4891 181.688V193.282H99.2591C99.6257 193.282 99.8677 193.612 99.9851 194.272C100.014 194.463 100.029 194.727 100.029 195.064C100.029 195.387 99.9264 195.783 99.7211 196.252C99.4277 196.897 98.9584 197.22 98.3131 197.22C97.8291 197.22 97.3964 197.125 97.0151 196.934C96.6484 196.743 96.3991 196.545 96.2671 196.34L96.0691 196.054C95.2624 196.831 94.2504 197.22 93.0331 197.22C91.8157 197.22 90.7744 196.714 89.9091 195.702C89.0437 194.69 88.6111 193.282 88.6111 191.478C88.6111 189.659 89.0657 188.259 89.9751 187.276C90.8844 186.279 92.0211 185.78 93.3851 185.78C93.7811 185.78 94.1844 185.824 94.5951 185.912V181.732ZM93.8691 189.3C93.0477 189.3 92.6371 190.041 92.6371 191.522C92.6371 192.27 92.7544 192.813 92.9891 193.15C93.2237 193.473 93.4804 193.634 93.7591 193.634C94.0524 193.634 94.3311 193.509 94.5951 193.26V189.52C94.3457 189.373 94.1037 189.3 93.8691 189.3ZM105.495 196.868C105.495 196.985 104.82 197.044 103.471 197.044C102.136 197.044 101.469 196.993 101.469 196.89V186.088C101.469 185.985 102.136 185.934 103.471 185.934C104.82 185.934 105.495 185.978 105.495 186.066V196.868ZM105.495 184.768C105.495 184.871 104.82 184.922 103.471 184.922C102.136 184.922 101.469 184.878 101.469 184.79V181.622C101.469 181.475 102.136 181.402 103.471 181.402C104.82 181.402 105.495 181.446 105.495 181.534V184.768ZM112.082 196.868C112.082 196.971 111.554 197.022 110.498 197.022C109.031 196.978 108.298 196.897 108.298 196.78V189.652H107.726C107.345 189.652 107.095 189.329 106.978 188.684C106.949 188.493 106.934 188.303 106.934 188.112C106.934 187.657 107.022 187.203 107.198 186.748C107.462 186.103 107.873 185.78 108.43 185.78C108.987 185.78 109.486 185.912 109.926 186.176C110.366 186.44 110.659 186.704 110.806 186.968C111.73 186.176 112.83 185.78 114.106 185.78C115.382 185.78 116.306 186.125 116.878 186.814C117.45 187.503 117.736 188.633 117.736 190.202V196.802C117.736 196.978 117.105 197.066 115.844 197.066C114.597 197.066 113.974 196.978 113.974 196.802V190.444C113.974 189.711 113.717 189.344 113.204 189.344C113.057 189.344 112.852 189.41 112.588 189.542C112.324 189.659 112.155 189.747 112.082 189.806V196.868ZM123.649 197C122.227 197 121.127 196.545 120.349 195.636C119.572 194.712 119.183 193.355 119.183 191.566C119.183 189.762 119.689 188.354 120.701 187.342C121.728 186.315 123.085 185.802 124.771 185.802C126.473 185.802 127.873 186.176 128.973 186.924V197.88C128.973 198.965 128.533 199.794 127.653 200.366C126.773 200.953 125.644 201.246 124.265 201.246C122.887 201.246 121.655 201.07 120.569 200.718C120.423 200.366 120.349 200.051 120.349 199.772C120.349 198.833 120.503 198.144 120.811 197.704C121.794 198.129 122.843 198.342 123.957 198.342C124.764 198.342 125.167 198.056 125.167 197.484V196.824C124.537 196.941 124.031 197 123.649 197ZM124.661 189.388C123.679 189.388 123.187 190.129 123.187 191.61C123.187 192.534 123.378 193.135 123.759 193.414C124.009 193.605 124.258 193.7 124.507 193.7C124.757 193.7 124.977 193.678 125.167 193.634V189.454C124.991 189.41 124.823 189.388 124.661 189.388ZM138.7 191.544C138.7 192.981 139.242 193.7 140.328 193.7C141.032 193.7 141.618 193.561 142.088 193.282C142.308 193.282 142.484 193.663 142.616 194.426C142.762 195.174 142.836 195.687 142.836 195.966C142.836 196.23 142.799 196.406 142.726 196.494C141.948 196.978 140.885 197.22 139.536 197.22C138.186 197.22 137.035 196.721 136.082 195.724C135.143 194.712 134.674 193.341 134.674 191.61C134.674 189.865 135.136 188.457 136.06 187.386C136.998 186.315 138.238 185.78 139.778 185.78C141.332 185.78 142.41 186.154 143.012 186.902C143.144 187.063 143.21 187.305 143.21 187.628C143.21 187.936 143.151 188.317 143.034 188.772C142.77 189.711 142.425 190.253 142 190.4C141.941 190.415 141.853 190.422 141.736 190.422C141.633 190.422 141.501 190.334 141.34 190.158C140.768 189.586 140.306 189.3 139.954 189.3C139.616 189.3 139.323 189.476 139.074 189.828C138.824 190.18 138.7 190.752 138.7 191.544ZM145.362 195.702C144.452 194.69 143.998 193.289 143.998 191.5C143.998 189.711 144.452 188.31 145.362 187.298C146.286 186.286 147.525 185.78 149.08 185.78C150.634 185.78 151.866 186.286 152.776 187.298C153.685 188.31 154.14 189.711 154.14 191.5C154.14 193.289 153.685 194.69 152.776 195.702C151.866 196.714 150.634 197.22 149.08 197.22C147.525 197.22 146.286 196.714 145.362 195.702ZM149.08 189.454C148.258 189.454 147.848 190.129 147.848 191.478C147.848 192.827 148.258 193.502 149.08 193.502C149.916 193.502 150.334 192.827 150.334 191.478C150.334 190.129 149.916 189.454 149.08 189.454ZM165.661 196.89C165.661 196.993 165.03 197.044 163.769 197.044C162.522 197.044 161.899 196.978 161.899 196.846V190.444C161.899 189.711 161.657 189.344 161.173 189.344C160.924 189.344 160.594 189.505 160.183 189.828V196.868C160.183 197.015 159.552 197.088 158.291 197.088C157.044 197.088 156.421 197.007 156.421 196.846V189.652H155.871C155.387 189.652 155.145 189.146 155.145 188.134C155.145 187.679 155.233 187.217 155.409 186.748C155.644 186.103 156.025 185.78 156.553 185.78C157.081 185.78 157.587 185.919 158.071 186.198C158.57 186.477 158.87 186.741 158.973 186.99C159.882 186.183 160.887 185.78 161.987 185.78C163.102 185.78 163.996 186.125 164.671 186.814C165.463 186.125 166.416 185.78 167.531 185.78C169.951 185.78 171.161 187.254 171.161 190.202V196.89C171.161 196.993 170.53 197.044 169.269 197.044C168.022 197.044 167.399 196.978 167.399 196.846V190.444C167.399 189.711 167.157 189.344 166.673 189.344C166.409 189.344 166.072 189.505 165.661 189.828V196.89ZM182.999 196.89C182.999 196.993 182.368 197.044 181.107 197.044C179.86 197.044 179.237 196.978 179.237 196.846V190.444C179.237 189.711 178.995 189.344 178.511 189.344C178.262 189.344 177.932 189.505 177.521 189.828V196.868C177.521 197.015 176.89 197.088 175.629 197.088C174.382 197.088 173.759 197.007 173.759 196.846V189.652H173.209C172.725 189.652 172.483 189.146 172.483 188.134C172.483 187.679 172.571 187.217 172.747 186.748C172.982 186.103 173.363 185.78 173.891 185.78C174.419 185.78 174.925 185.919 175.409 186.198C175.908 186.477 176.208 186.741 176.311 186.99C177.22 186.183 178.225 185.78 179.325 185.78C180.44 185.78 181.334 186.125 182.009 186.814C182.801 186.125 183.754 185.78 184.869 185.78C187.289 185.78 188.499 187.254 188.499 190.202V196.89C188.499 196.993 187.868 197.044 186.607 197.044C185.36 197.044 184.737 196.978 184.737 196.846V190.444C184.737 189.711 184.495 189.344 184.011 189.344C183.747 189.344 183.41 189.505 182.999 189.828V196.89ZM190.261 186.132C190.261 185.971 190.892 185.89 192.153 185.89C193.414 185.89 194.045 185.971 194.045 186.132V192.556C194.045 193.289 194.28 193.656 194.749 193.656C195.101 193.656 195.497 193.502 195.937 193.194V186.132C195.937 185.985 196.56 185.912 197.807 185.912C199.054 185.912 199.677 185.985 199.677 186.132V193.348H200.249C200.748 193.348 200.997 193.825 200.997 194.778C200.997 195.262 200.894 195.753 200.689 196.252C200.396 196.897 200 197.22 199.501 197.22C198.518 197.22 197.792 196.817 197.323 196.01L197.301 196.032C196.406 196.824 195.446 197.22 194.419 197.22C192.996 197.22 191.948 196.868 191.273 196.164C190.598 195.445 190.261 194.265 190.261 192.622V186.132ZM206.936 196.868C206.936 196.971 206.408 197.022 205.352 197.022C203.885 196.978 203.152 196.897 203.152 196.78V189.652H202.58C202.198 189.652 201.949 189.329 201.832 188.684C201.802 188.493 201.788 188.303 201.788 188.112C201.788 187.657 201.876 187.203 202.052 186.748C202.316 186.103 202.726 185.78 203.284 185.78C203.841 185.78 204.34 185.912 204.78 186.176C205.22 186.44 205.513 186.704 205.66 186.968C206.584 186.176 207.684 185.78 208.96 185.78C210.236 185.78 211.16 186.125 211.732 186.814C212.304 187.503 212.59 188.633 212.59 190.202V196.802C212.59 196.978 211.959 197.066 210.698 197.066C209.451 197.066 208.828 196.978 208.828 196.802V190.444C208.828 189.711 208.571 189.344 208.058 189.344C207.911 189.344 207.706 189.41 207.442 189.542C207.178 189.659 207.009 189.747 206.936 189.806V196.868ZM218.481 196.868C218.481 196.985 217.806 197.044 216.457 197.044C215.122 197.044 214.455 196.993 214.455 196.89V186.088C214.455 185.985 215.122 185.934 216.457 185.934C217.806 185.934 218.481 185.978 218.481 186.066V196.868ZM218.481 184.768C218.481 184.871 217.806 184.922 216.457 184.922C215.122 184.922 214.455 184.878 214.455 184.79V181.622C214.455 181.475 215.122 181.402 216.457 181.402C217.806 181.402 218.481 181.446 218.481 181.534V184.768ZM225.53 196.868C225.53 197.044 224.914 197.132 223.682 197.132C222.216 197.073 221.482 196.978 221.482 196.846V189.058H220.36C220.067 189.058 219.92 188.552 219.92 187.54C219.92 187.276 219.942 186.953 219.986 186.572C220.045 186.191 220.155 186 220.316 186H221.482V184.064C221.482 183.771 222.098 183.624 223.33 183.624C224.577 183.624 225.2 183.741 225.2 183.976V185.384L225.222 186H227.092C227.342 186 227.466 186.513 227.466 187.54C227.466 188.567 227.342 189.08 227.092 189.08H225.53V196.868ZM227.8 186.11C227.8 185.949 228.467 185.868 229.802 185.868C231.151 185.868 231.848 185.941 231.892 186.088L233.476 191.28L234.994 186.044C235.053 185.927 235.507 185.868 236.358 185.868C238.309 185.868 239.24 185.963 239.152 186.154L233.982 200.872C233.967 200.96 233.564 201.004 232.772 201.004C231.995 201.004 231.269 200.975 230.594 200.916C229.919 200.872 229.597 200.813 229.626 200.74L231.54 196.12L227.8 186.11Z" fill="white"/>
<path d="M60.328 400.6C60.5773 400.6 60.702 401.253 60.702 402.558C60.702 403.849 60.5773 404.494 60.328 404.494H56.302V407.002H58.986C59.2353 407.002 59.36 407.574 59.36 408.718C59.36 409.847 59.2427 410.412 59.008 410.412H56.302V415.714C56.302 415.919 56.0233 416.051 55.466 416.11C54.9233 416.183 54.4687 416.22 54.102 416.22L53.068 416.176C52.3493 416.088 51.99 415.941 51.99 415.736V401.172C51.99 400.937 52.034 400.783 52.122 400.71C52.2247 400.637 52.3713 400.6 52.562 400.6H60.328ZM62.9795 408.014C62.5688 407.281 62.3635 406.687 62.3635 406.232C62.3635 405.763 62.4882 405.462 62.7375 405.33C63.5735 404.963 64.7175 404.78 66.1695 404.78C67.6362 404.78 68.6702 405.125 69.2715 405.814C69.8728 406.489 70.1735 407.493 70.1735 408.828V412.304H70.9215C71.1708 412.304 71.3615 412.451 71.4935 412.744C71.6402 413.037 71.7135 413.441 71.7135 413.954C71.7135 414.467 71.5815 414.973 71.3175 415.472C71.0682 415.971 70.7235 416.22 70.2835 416.22C69.4915 416.22 68.8535 416.007 68.3695 415.582C68.1495 415.406 67.9808 415.193 67.8635 414.944C67.1888 415.795 66.1402 416.22 64.7175 416.22C63.6468 416.22 62.7448 415.839 62.0115 415.076C61.2782 414.313 60.9115 413.411 60.9115 412.37C60.9115 409.979 62.3415 408.784 65.2015 408.784H66.4115V408.564C66.4115 408.183 66.3455 407.941 66.2135 407.838C66.0962 407.721 65.8102 407.662 65.3555 407.662C64.7982 407.662 64.0062 407.779 62.9795 408.014ZM64.7395 412.062C64.7395 412.385 64.8275 412.634 65.0035 412.81C65.1795 412.971 65.3995 413.052 65.6635 413.052C65.9422 413.052 66.1915 412.942 66.4115 412.722V411.028H65.7955C65.0915 411.028 64.7395 411.373 64.7395 412.062ZM76.9848 415.868C76.9848 415.985 76.3101 416.044 74.9608 416.044C73.6261 416.044 72.9588 415.993 72.9588 415.89V405.088C72.9588 404.985 73.6261 404.934 74.9608 404.934C76.3101 404.934 76.9848 404.978 76.9848 405.066V415.868ZM76.9848 403.768C76.9848 403.871 76.3101 403.922 74.9608 403.922C73.6261 403.922 72.9588 403.878 72.9588 403.79V400.622C72.9588 400.475 73.6261 400.402 74.9608 400.402C76.3101 400.402 76.9848 400.446 76.9848 400.534V403.768ZM82.9784 415.824C82.9784 415.956 82.2304 416.022 80.7344 416.022C79.561 416.007 78.9744 415.949 78.9744 415.846V400.864C78.9744 400.644 79.6857 400.534 81.1084 400.534C82.355 400.578 82.9784 400.651 82.9784 400.754V415.824ZM89.7865 415.978C89.7865 416.081 89.1192 416.132 87.7845 416.132C86.4498 416.103 85.7825 416.044 85.7825 415.956V408.652H85.1885C84.9538 408.652 84.7632 408.513 84.6165 408.234C84.4845 407.941 84.4185 407.581 84.4185 407.156C84.4185 405.572 84.8878 404.78 85.8265 404.78C86.4865 404.78 87.0365 404.985 87.4765 405.396C87.9165 405.792 88.1365 406.247 88.1365 406.76C88.4445 406.159 88.8552 405.682 89.3685 405.33C89.8965 404.963 90.4318 404.78 90.9745 404.78C91.8252 404.78 92.3385 405 92.5145 405.44C92.5585 405.557 92.5805 405.733 92.5805 405.968C92.5805 406.188 92.5072 406.591 92.3605 407.178C92.2285 407.765 92.0892 408.19 91.9425 408.454C91.7958 408.718 91.7078 408.85 91.6785 408.85C91.6492 408.85 91.5098 408.799 91.2605 408.696C91.0258 408.579 90.8132 408.52 90.6225 408.52C90.0652 408.52 89.7865 408.96 89.7865 409.84V415.978ZM97.6952 415.824C97.6952 415.956 96.9472 416.022 95.4512 416.022C94.2778 416.007 93.6912 415.949 93.6912 415.846V400.864C93.6912 400.644 94.4025 400.534 95.8252 400.534C97.0718 400.578 97.6952 400.651 97.6952 400.754V415.824ZM100.631 414.702C99.722 413.69 99.2673 412.289 99.2673 410.5C99.2673 408.711 99.722 407.31 100.631 406.298C101.555 405.286 102.795 404.78 104.349 404.78C105.904 404.78 107.136 405.286 108.045 406.298C108.955 407.31 109.409 408.711 109.409 410.5C109.409 412.289 108.955 413.69 108.045 414.702C107.136 415.714 105.904 416.22 104.349 416.22C102.795 416.22 101.555 415.714 100.631 414.702ZM104.349 408.454C103.528 408.454 103.117 409.129 103.117 410.478C103.117 411.827 103.528 412.502 104.349 412.502C105.185 412.502 105.603 411.827 105.603 410.478C105.603 409.129 105.185 408.454 104.349 408.454ZM115.563 415.868C115.563 415.971 115.035 416.022 113.979 416.022C112.512 415.978 111.779 415.897 111.779 415.78V408.652H111.207C110.825 408.652 110.576 408.329 110.459 407.684C110.429 407.493 110.415 407.303 110.415 407.112C110.415 406.657 110.503 406.203 110.679 405.748C110.943 405.103 111.353 404.78 111.911 404.78C112.468 404.78 112.967 404.912 113.407 405.176C113.847 405.44 114.14 405.704 114.287 405.968C115.211 405.176 116.311 404.78 117.587 404.78C118.863 404.78 119.787 405.125 120.359 405.814C120.931 406.503 121.217 407.633 121.217 409.202V415.802C121.217 415.978 120.586 416.066 119.325 416.066C118.078 416.066 117.455 415.978 117.455 415.802V409.444C117.455 408.711 117.198 408.344 116.685 408.344C116.538 408.344 116.333 408.41 116.069 408.542C115.805 408.659 115.636 408.747 115.563 408.806V415.868ZM126.69 410.544C126.69 411.981 127.232 412.7 128.318 412.7C129.022 412.7 129.608 412.561 130.078 412.282C130.298 412.282 130.474 412.663 130.606 413.426C130.752 414.174 130.826 414.687 130.826 414.966C130.826 415.23 130.789 415.406 130.716 415.494C129.938 415.978 128.875 416.22 127.526 416.22C126.176 416.22 125.025 415.721 124.072 414.724C123.133 413.712 122.664 412.341 122.664 410.61C122.664 408.865 123.126 407.457 124.05 406.386C124.988 405.315 126.228 404.78 127.768 404.78C129.322 404.78 130.4 405.154 131.002 405.902C131.134 406.063 131.2 406.305 131.2 406.628C131.2 406.936 131.141 407.317 131.024 407.772C130.76 408.711 130.415 409.253 129.99 409.4C129.931 409.415 129.843 409.422 129.726 409.422C129.623 409.422 129.491 409.334 129.33 409.158C128.758 408.586 128.296 408.3 127.944 408.3C127.606 408.3 127.313 408.476 127.064 408.828C126.814 409.18 126.69 409.752 126.69 410.544ZM136.08 415.846C136.08 415.978 135.464 416.044 134.232 416.044C133.015 416.044 132.406 415.941 132.406 415.736V400.666C132.406 400.563 132.633 400.49 133.088 400.446C133.543 400.402 133.924 400.38 134.232 400.38C135.464 400.38 136.08 400.512 136.08 400.776V405.176C136.901 404.927 137.525 404.802 137.95 404.802C139.065 404.802 139.945 405.103 140.59 405.704C141.235 406.291 141.558 407.391 141.558 409.004V415.824C141.558 415.956 140.986 416.022 139.842 416.022C138.551 415.978 137.906 415.905 137.906 415.802V409.334C137.906 408.615 137.671 408.256 137.202 408.256C136.879 408.256 136.505 408.41 136.08 408.718V415.846ZM51.88 454.702V441.018C51.88 440.71 52.6207 440.556 54.102 440.556C55.598 440.556 56.346 440.71 56.346 441.018V451.798H59.734C59.998 451.798 60.1813 452.143 60.284 452.832C60.328 453.169 60.35 453.514 60.35 453.866C60.35 454.218 60.328 454.577 60.284 454.944C60.1667 455.648 59.976 456 59.712 456H52.936C52.6133 456 52.3567 455.868 52.166 455.604C51.9753 455.34 51.88 455.039 51.88 454.702ZM65.5765 455.868C65.5765 455.985 64.9019 456.044 63.5525 456.044C62.2179 456.044 61.5505 455.993 61.5505 455.89V445.088C61.5505 444.985 62.2179 444.934 63.5525 444.934C64.9019 444.934 65.5765 444.978 65.5765 445.066V455.868ZM65.5765 443.768C65.5765 443.871 64.9019 443.922 63.5525 443.922C62.2179 443.922 61.5505 443.878 61.5505 443.79V440.622C61.5505 440.475 62.2179 440.402 63.5525 440.402C64.9019 440.402 65.5765 440.446 65.5765 440.534V443.768ZM68.0282 452.04C69.2162 452.759 70.1548 453.118 70.8442 453.118C71.2842 453.118 71.5042 452.964 71.5042 452.656C71.5042 452.436 71.1228 452.15 70.3602 451.798C68.5268 451.05 67.6102 449.825 67.6102 448.124C67.6102 447.039 68.0062 446.21 68.7982 445.638C69.5902 445.066 70.5362 444.78 71.6362 444.78C72.7508 444.78 73.6895 444.897 74.4522 445.132C75.2295 445.367 75.6182 445.675 75.6182 446.056C75.6182 446.379 75.4568 446.804 75.1342 447.332C74.8262 447.86 74.6135 448.146 74.4962 448.19C73.8655 447.838 73.1835 447.662 72.4502 447.662C72.0542 447.662 71.8562 447.801 71.8562 448.08C71.8562 448.256 71.9295 448.41 72.0762 448.542C72.2375 448.659 72.5235 448.813 72.9342 449.004C73.3448 449.18 73.6822 449.341 73.9462 449.488C74.2248 449.635 74.5328 449.84 74.8702 450.104C75.5742 450.661 75.9262 451.387 75.9262 452.282C75.9262 453.455 75.5375 454.409 74.7602 455.142C73.9828 455.861 72.8095 456.22 71.2402 456.22C70.1988 456.22 69.2528 456.044 68.4022 455.692C67.5515 455.34 67.1262 454.856 67.1262 454.24C67.1262 453.829 67.2215 453.397 67.4122 452.942C67.6175 452.487 67.8228 452.187 68.0282 452.04ZM82.5305 455.868C82.5305 456.044 81.9145 456.132 80.6825 456.132C79.2158 456.073 78.4825 455.978 78.4825 455.846V448.058H77.3605C77.0671 448.058 76.9205 447.552 76.9205 446.54C76.9205 446.276 76.9425 445.953 76.9865 445.572C77.0451 445.191 77.1551 445 77.3165 445H78.4825V443.064C78.4825 442.771 79.0985 442.624 80.3305 442.624C81.5771 442.624 82.2005 442.741 82.2005 442.976V444.384L82.2225 445H84.0925C84.3418 445 84.4665 445.513 84.4665 446.54C84.4665 447.567 84.3418 448.08 84.0925 448.08H82.5305V455.868ZM93.8861 455.406C92.9621 455.949 91.7741 456.22 90.3221 456.22C88.8701 456.22 87.6454 455.729 86.6481 454.746C85.6507 453.749 85.1521 452.377 85.1521 450.632C85.1521 448.872 85.6287 447.457 86.5821 446.386C87.5501 445.315 88.7674 444.78 90.2341 444.78C91.7007 444.78 92.8301 445.154 93.6221 445.902C94.4287 446.65 94.8321 447.559 94.8321 448.63C94.8321 451.006 93.4681 452.194 90.7401 452.194H89.2221C89.2221 452.634 89.3394 452.942 89.5741 453.118C89.8234 453.279 90.1827 453.36 90.6521 453.36C91.6787 453.36 92.6541 453.125 93.5781 452.656C93.5927 452.641 93.6587 452.744 93.7761 452.964C94.1281 453.595 94.3041 454.13 94.3041 454.57C94.3041 454.995 94.1647 455.274 93.8861 455.406ZM91.1361 449.048C91.1361 448.432 90.8354 448.124 90.2341 448.124C89.9554 448.124 89.7134 448.212 89.5081 448.388C89.3174 448.549 89.2221 448.791 89.2221 449.114V449.796H90.4101C90.8941 449.796 91.1361 449.547 91.1361 449.048ZM100.867 455.868C100.867 455.971 100.339 456.022 99.2833 456.022C97.8166 455.978 97.0833 455.897 97.0833 455.78V448.652H96.5113C96.13 448.652 95.8806 448.329 95.7633 447.684C95.734 447.493 95.7193 447.303 95.7193 447.112C95.7193 446.657 95.8073 446.203 95.9833 445.748C96.2473 445.103 96.658 444.78 97.2153 444.78C97.7726 444.78 98.2713 444.912 98.7113 445.176C99.1513 445.44 99.4446 445.704 99.5913 445.968C100.515 445.176 101.615 444.78 102.891 444.78C104.167 444.78 105.091 445.125 105.663 445.814C106.235 446.503 106.521 447.633 106.521 449.202V455.802C106.521 455.978 105.891 456.066 104.629 456.066C103.383 456.066 102.759 455.978 102.759 455.802V449.444C102.759 448.711 102.503 448.344 101.989 448.344C101.843 448.344 101.637 448.41 101.373 448.542C101.109 448.659 100.941 448.747 100.867 448.806V455.868ZM112.434 456C111.012 456 109.912 455.545 109.134 454.636C108.357 453.712 107.968 452.355 107.968 450.566C107.968 448.762 108.474 447.354 109.486 446.342C110.513 445.315 111.87 444.802 113.556 444.802C115.258 444.802 116.658 445.176 117.758 445.924V456.88C117.758 457.965 117.318 458.794 116.438 459.366C115.558 459.953 114.429 460.246 113.05 460.246C111.672 460.246 110.44 460.07 109.354 459.718C109.208 459.366 109.134 459.051 109.134 458.772C109.134 457.833 109.288 457.144 109.596 456.704C110.579 457.129 111.628 457.342 112.742 457.342C113.549 457.342 113.952 457.056 113.952 456.484V455.824C113.322 455.941 112.816 456 112.434 456ZM113.446 448.388C112.464 448.388 111.972 449.129 111.972 450.61C111.972 451.534 112.163 452.135 112.544 452.414C112.794 452.605 113.043 452.7 113.292 452.7C113.542 452.7 113.762 452.678 113.952 452.634V448.454C113.776 448.41 113.608 448.388 113.446 448.388ZM124.823 454.702C123.913 453.69 123.459 452.289 123.459 450.5C123.459 448.711 123.913 447.31 124.823 446.298C125.747 445.286 126.986 444.78 128.541 444.78C130.095 444.78 131.327 445.286 132.237 446.298C133.146 447.31 133.601 448.711 133.601 450.5C133.601 452.289 133.146 453.69 132.237 454.702C131.327 455.714 130.095 456.22 128.541 456.22C126.986 456.22 125.747 455.714 124.823 454.702ZM128.541 448.454C127.719 448.454 127.309 449.129 127.309 450.478C127.309 451.827 127.719 452.502 128.541 452.502C129.377 452.502 129.795 451.827 129.795 450.478C129.795 449.129 129.377 448.454 128.541 448.454ZM139.754 455.868C139.754 455.971 139.226 456.022 138.17 456.022C136.703 455.978 135.97 455.897 135.97 455.78V448.652H135.398C135.017 448.652 134.767 448.329 134.65 447.684C134.621 447.493 134.606 447.303 134.606 447.112C134.606 446.657 134.694 446.203 134.87 445.748C135.134 445.103 135.545 444.78 136.102 444.78C136.659 444.78 137.158 444.912 137.598 445.176C138.038 445.44 138.331 445.704 138.478 445.968C139.402 445.176 140.502 444.78 141.778 444.78C143.054 444.78 143.978 445.125 144.55 445.814C145.122 446.503 145.408 447.633 145.408 449.202V455.802C145.408 455.978 144.777 456.066 143.516 456.066C142.269 456.066 141.646 455.978 141.646 455.802V449.444C141.646 448.711 141.389 448.344 140.876 448.344C140.729 448.344 140.524 448.41 140.26 448.542C139.996 448.659 139.827 448.747 139.754 448.806V455.868ZM151.53 454.988V441.788C151.53 441.421 151.618 441.135 151.794 440.93C151.984 440.71 152.226 440.6 152.52 440.6H156.194C158.526 440.6 160.293 441.187 161.496 442.36C162.713 443.533 163.322 445.381 163.322 447.904C163.322 453.301 161.019 456 156.414 456H152.652C151.904 456 151.53 455.663 151.53 454.988ZM155.754 444.78V451.358C155.754 451.666 155.776 451.864 155.82 451.952C155.864 452.025 155.996 452.062 156.216 452.062C157.022 452.062 157.631 451.761 158.042 451.16C158.467 450.559 158.68 449.561 158.68 448.168C158.68 446.76 158.46 445.843 158.02 445.418C157.594 444.993 156.912 444.78 155.974 444.78H155.754ZM172.236 446.716C172.515 446.716 172.654 447.229 172.654 448.256C172.654 448.564 172.618 448.931 172.544 449.356C172.486 449.767 172.368 449.972 172.192 449.972H169.398V452.172H173.446C173.696 452.172 173.864 452.495 173.952 453.14C173.996 453.419 174.018 453.719 174.018 454.042C174.018 454.35 173.974 454.753 173.886 455.252C173.798 455.751 173.652 456 173.446 456H165.922C165.365 456 165.086 455.773 165.086 455.318V441.172C165.086 440.791 165.255 440.6 165.592 440.6H173.468C173.776 440.6 173.93 441.253 173.93 442.558C173.93 443.849 173.776 444.494 173.468 444.494H169.398V446.716H172.236ZM184.098 441.194C184.274 440.754 185.191 440.534 186.848 440.534C187.273 440.534 187.794 440.571 188.41 440.644C189.041 440.703 189.356 440.761 189.356 440.82L185.616 448.432L189.488 455.714C189.532 455.787 189.217 455.861 188.542 455.934C187.867 455.993 187.295 456.022 186.826 456.022C184.963 456.022 183.944 455.773 183.768 455.274L182.118 451.072L180.622 455.406C180.475 455.817 179.537 456.022 177.806 456.022C177.381 456.022 176.853 455.993 176.222 455.934C175.591 455.875 175.305 455.795 175.364 455.692L178.796 448.08L175.232 440.82C175.188 440.747 175.489 440.681 176.134 440.622C176.794 440.549 177.351 440.512 177.806 440.512C179.654 440.512 180.666 440.776 180.842 441.304L182.36 445L184.098 441.194ZM194.87 455.868C194.87 455.985 194.195 456.044 192.846 456.044C191.511 456.044 190.844 455.993 190.844 455.89V445.088C190.844 444.985 191.511 444.934 192.846 444.934C194.195 444.934 194.87 444.978 194.87 445.066V455.868ZM194.87 443.768C194.87 443.871 194.195 443.922 192.846 443.922C191.511 443.922 190.844 443.878 190.844 443.79V440.622C190.844 440.475 191.511 440.402 192.846 440.402C194.195 440.402 194.87 440.446 194.87 440.534V443.768ZM197.321 452.04C198.509 452.759 199.448 453.118 200.137 453.118C200.577 453.118 200.797 452.964 200.797 452.656C200.797 452.436 200.416 452.15 199.653 451.798C197.82 451.05 196.903 449.825 196.903 448.124C196.903 447.039 197.299 446.21 198.091 445.638C198.883 445.066 199.829 444.78 200.929 444.78C202.044 444.78 202.982 444.897 203.745 445.132C204.522 445.367 204.911 445.675 204.911 446.056C204.911 446.379 204.75 446.804 204.427 447.332C204.119 447.86 203.906 448.146 203.789 448.19C203.158 447.838 202.476 447.662 201.743 447.662C201.347 447.662 201.149 447.801 201.149 448.08C201.149 448.256 201.222 448.41 201.369 448.542C201.53 448.659 201.816 448.813 202.227 449.004C202.638 449.18 202.975 449.341 203.239 449.488C203.518 449.635 203.826 449.84 204.163 450.104C204.867 450.661 205.219 451.387 205.219 452.282C205.219 453.455 204.83 454.409 204.053 455.142C203.276 455.861 202.102 456.22 200.533 456.22C199.492 456.22 198.546 456.044 197.695 455.692C196.844 455.34 196.419 454.856 196.419 454.24C196.419 453.829 196.514 453.397 196.705 452.942C196.91 452.487 197.116 452.187 197.321 452.04ZM67.5 496.022C66.1947 496.022 65.542 495.875 65.542 495.582L65.08 486.76L62.396 495.692C62.3373 495.868 61.8387 495.956 60.9 495.956C59.9613 495.956 59.4773 495.875 59.448 495.714L56.676 486.672L56.368 495.45C56.3533 495.67 56.0747 495.824 55.532 495.912C54.9893 495.985 54.5347 496.022 54.168 496.022C53.816 496.022 53.4713 496 53.134 495.956C52.43 495.853 52.0853 495.67 52.1 495.406L52.606 481.106C52.606 480.754 53.5007 480.578 55.29 480.578C55.818 480.578 56.4633 480.622 57.226 480.71C57.9887 480.783 58.414 480.937 58.502 481.172L60.966 488.102L63.122 481.15C63.254 480.769 64.266 480.578 66.158 480.578C66.7007 480.578 67.346 480.622 68.094 480.71C68.8567 480.783 69.238 480.923 69.238 481.128L69.876 495.56C69.876 495.721 69.59 495.839 69.018 495.912C68.446 495.985 67.94 496.022 67.5 496.022ZM73.335 488.014C72.9243 487.281 72.719 486.687 72.719 486.232C72.719 485.763 72.8437 485.462 73.093 485.33C73.929 484.963 75.073 484.78 76.525 484.78C77.9917 484.78 79.0257 485.125 79.627 485.814C80.2283 486.489 80.529 487.493 80.529 488.828V492.304H81.277C81.5263 492.304 81.717 492.451 81.849 492.744C81.9957 493.037 82.069 493.441 82.069 493.954C82.069 494.467 81.937 494.973 81.673 495.472C81.4237 495.971 81.079 496.22 80.639 496.22C79.847 496.22 79.209 496.007 78.725 495.582C78.505 495.406 78.3363 495.193 78.219 494.944C77.5443 495.795 76.4957 496.22 75.073 496.22C74.0023 496.22 73.1003 495.839 72.367 495.076C71.6337 494.313 71.267 493.411 71.267 492.37C71.267 489.979 72.697 488.784 75.557 488.784H76.767V488.564C76.767 488.183 76.701 487.941 76.569 487.838C76.4517 487.721 76.1657 487.662 75.711 487.662C75.1537 487.662 74.3617 487.779 73.335 488.014ZM75.095 492.062C75.095 492.385 75.183 492.634 75.359 492.81C75.535 492.971 75.755 493.052 76.019 493.052C76.2977 493.052 76.547 492.942 76.767 492.722V491.028H76.151C75.447 491.028 75.095 491.373 75.095 492.062ZM83.3142 480.776C83.3142 480.541 83.9816 480.424 85.3162 480.424C86.5629 480.468 87.1862 480.563 87.1862 480.71V489.158L89.3642 485.132C89.4669 484.912 90.0902 484.802 91.2342 484.802C92.3782 484.802 93.1116 484.875 93.4342 485.022L90.5742 489.686L93.8742 495.868C93.9036 495.927 93.6249 495.971 93.0382 496C92.4662 496.044 91.9896 496.066 91.6082 496.066C90.2002 496.066 89.4449 496 89.3422 495.868L87.1642 490.984V495.846C87.1642 496.037 86.5189 496.132 85.2282 496.132C83.9522 496.132 83.3142 496.044 83.3142 495.868V480.776ZM99.0277 495.868C99.0277 495.985 98.3531 496.044 97.0037 496.044C95.6691 496.044 95.0017 495.993 95.0017 495.89V485.088C95.0017 484.985 95.6691 484.934 97.0037 484.934C98.3531 484.934 99.0277 484.978 99.0277 485.066V495.868ZM99.0277 483.768C99.0277 483.871 98.3531 483.922 97.0037 483.922C95.6691 483.922 95.0017 483.878 95.0017 483.79V480.622C95.0017 480.475 95.6691 480.402 97.0037 480.402C98.3531 480.402 99.0277 480.446 99.0277 480.534V483.768ZM105.615 495.868C105.615 495.971 105.087 496.022 104.031 496.022C102.565 495.978 101.831 495.897 101.831 495.78V488.652H101.259C100.878 488.652 100.629 488.329 100.511 487.684C100.482 487.493 100.467 487.303 100.467 487.112C100.467 486.657 100.555 486.203 100.731 485.748C100.995 485.103 101.406 484.78 101.963 484.78C102.521 484.78 103.019 484.912 103.459 485.176C103.899 485.44 104.193 485.704 104.339 485.968C105.263 485.176 106.363 484.78 107.639 484.78C108.915 484.78 109.839 485.125 110.411 485.814C110.983 486.503 111.269 487.633 111.269 489.202V495.802C111.269 495.978 110.639 496.066 109.377 496.066C108.131 496.066 107.507 495.978 107.507 495.802V489.444C107.507 488.711 107.251 488.344 106.737 488.344C106.591 488.344 106.385 488.41 106.121 488.542C105.857 488.659 105.689 488.747 105.615 488.806V495.868ZM117.183 496C115.76 496 114.66 495.545 113.883 494.636C113.105 493.712 112.717 492.355 112.717 490.566C112.717 488.762 113.223 487.354 114.235 486.342C115.261 485.315 116.618 484.802 118.305 484.802C120.006 484.802 121.407 485.176 122.507 485.924V496.88C122.507 497.965 122.067 498.794 121.187 499.366C120.307 499.953 119.177 500.246 117.799 500.246C116.42 500.246 115.188 500.07 114.103 499.718C113.956 499.366 113.883 499.051 113.883 498.772C113.883 497.833 114.037 497.144 114.345 496.704C115.327 497.129 116.376 497.342 117.491 497.342C118.297 497.342 118.701 497.056 118.701 496.484V495.824C118.07 495.941 117.564 496 117.183 496ZM118.195 488.388C117.212 488.388 116.721 489.129 116.721 490.61C116.721 491.534 116.911 492.135 117.293 492.414C117.542 492.605 117.791 492.7 118.041 492.7C118.29 492.7 118.51 492.678 118.701 492.634V488.454C118.525 488.41 118.356 488.388 118.195 488.388ZM132.651 495.868C132.651 495.985 131.976 496.044 130.627 496.044C129.292 496.044 128.625 495.993 128.625 495.89V485.088C128.625 484.985 129.292 484.934 130.627 484.934C131.976 484.934 132.651 484.978 132.651 485.066V495.868ZM132.651 483.768C132.651 483.871 131.976 483.922 130.627 483.922C129.292 483.922 128.625 483.878 128.625 483.79V480.622C128.625 480.475 129.292 480.402 130.627 480.402C131.976 480.402 132.651 480.446 132.651 480.534V483.768ZM139.238 495.868C139.238 495.971 138.71 496.022 137.654 496.022C136.188 495.978 135.454 495.897 135.454 495.78V488.652H134.882C134.501 488.652 134.252 488.329 134.134 487.684C134.105 487.493 134.09 487.303 134.09 487.112C134.09 486.657 134.178 486.203 134.354 485.748C134.618 485.103 135.029 484.78 135.586 484.78C136.144 484.78 136.642 484.912 137.082 485.176C137.522 485.44 137.816 485.704 137.962 485.968C138.886 485.176 139.986 484.78 141.262 484.78C142.538 484.78 143.462 485.125 144.034 485.814C144.606 486.503 144.892 487.633 144.892 489.202V495.802C144.892 495.978 144.262 496.066 143 496.066C141.754 496.066 141.13 495.978 141.13 495.802V489.444C141.13 488.711 140.874 488.344 140.36 488.344C140.214 488.344 140.008 488.41 139.744 488.542C139.48 488.659 139.312 488.747 139.238 488.806V495.868ZM151.818 495.868C151.818 496.044 151.202 496.132 149.97 496.132C148.503 496.073 147.77 495.978 147.77 495.846V488.058H146.648C146.354 488.058 146.208 487.552 146.208 486.54C146.208 486.276 146.23 485.953 146.274 485.572C146.332 485.191 146.442 485 146.604 485H147.77V483.064C147.77 482.771 148.386 482.624 149.618 482.624C150.864 482.624 151.488 482.741 151.488 482.976V484.384L151.51 485H153.38C153.629 485 153.754 485.513 153.754 486.54C153.754 487.567 153.629 488.08 153.38 488.08H151.818V495.868ZM163.173 495.406C162.249 495.949 161.061 496.22 159.609 496.22C158.157 496.22 156.933 495.729 155.935 494.746C154.938 493.749 154.439 492.377 154.439 490.632C154.439 488.872 154.916 487.457 155.869 486.386C156.837 485.315 158.055 484.78 159.521 484.78C160.988 484.78 162.117 485.154 162.909 485.902C163.716 486.65 164.119 487.559 164.119 488.63C164.119 491.006 162.755 492.194 160.027 492.194H158.509C158.509 492.634 158.627 492.942 158.861 493.118C159.111 493.279 159.47 493.36 159.939 493.36C160.966 493.36 161.941 493.125 162.865 492.656C162.88 492.641 162.946 492.744 163.063 492.964C163.415 493.595 163.591 494.13 163.591 494.57C163.591 494.995 163.452 495.274 163.173 495.406ZM160.423 489.048C160.423 488.432 160.123 488.124 159.521 488.124C159.243 488.124 159.001 488.212 158.795 488.388C158.605 488.549 158.509 488.791 158.509 489.114V489.796H159.697C160.181 489.796 160.423 489.547 160.423 489.048ZM170.374 495.978C170.374 496.081 169.707 496.132 168.372 496.132C167.038 496.103 166.37 496.044 166.37 495.956V488.652H165.776C165.542 488.652 165.351 488.513 165.204 488.234C165.072 487.941 165.006 487.581 165.006 487.156C165.006 485.572 165.476 484.78 166.414 484.78C167.074 484.78 167.624 484.985 168.064 485.396C168.504 485.792 168.724 486.247 168.724 486.76C169.032 486.159 169.443 485.682 169.956 485.33C170.484 484.963 171.02 484.78 171.562 484.78C172.413 484.78 172.926 485 173.102 485.44C173.146 485.557 173.168 485.733 173.168 485.968C173.168 486.188 173.095 486.591 172.948 487.178C172.816 487.765 172.677 488.19 172.53 488.454C172.384 488.718 172.296 488.85 172.266 488.85C172.237 488.85 172.098 488.799 171.848 488.696C171.614 488.579 171.401 488.52 171.21 488.52C170.653 488.52 170.374 488.96 170.374 489.84V495.978ZM185.697 485.11C185.697 484.978 186.1 484.912 186.907 484.912C188.726 484.912 189.62 484.971 189.591 485.088L187.435 495.78C187.391 496.015 186.577 496.132 184.993 496.132C183.409 496.132 182.595 496.015 182.551 495.78L181.649 490.852L180.527 495.78C180.483 496 179.64 496.11 177.997 496.11C176.369 496.11 175.533 495.978 175.489 495.714L173.531 485C173.487 484.912 174.118 484.868 175.423 484.868C176.714 484.883 177.359 484.912 177.359 484.956L178.371 492.392L180.197 485.044C180.226 484.956 180.71 484.912 181.649 484.912C182.588 484.912 183.072 484.956 183.101 485.044L184.905 492.304L185.697 485.11ZM191.768 494.702C190.859 493.69 190.404 492.289 190.404 490.5C190.404 488.711 190.859 487.31 191.768 486.298C192.692 485.286 193.931 484.78 195.486 484.78C197.041 484.78 198.273 485.286 199.182 486.298C200.091 487.31 200.546 488.711 200.546 490.5C200.546 492.289 200.091 493.69 199.182 494.702C198.273 495.714 197.041 496.22 195.486 496.22C193.931 496.22 192.692 495.714 191.768 494.702ZM195.486 488.454C194.665 488.454 194.254 489.129 194.254 490.478C194.254 491.827 194.665 492.502 195.486 492.502C196.322 492.502 196.74 491.827 196.74 490.478C196.74 489.129 196.322 488.454 195.486 488.454ZM201.243 485.066C201.199 484.949 201.881 484.89 203.289 484.89C204.712 484.89 205.423 484.927 205.423 485L207.007 492.48L208.195 485.11C208.239 484.978 208.965 484.912 210.373 484.912C211.796 484.912 212.485 484.971 212.441 485.088L209.339 495.846C209.237 495.993 208.364 496.066 206.721 496.066C205.079 496.066 204.199 495.956 204.081 495.736L201.243 485.066ZM214.036 492.04C215.224 492.759 216.163 493.118 216.852 493.118C217.292 493.118 217.512 492.964 217.512 492.656C217.512 492.436 217.131 492.15 216.368 491.798C214.535 491.05 213.618 489.825 213.618 488.124C213.618 487.039 214.014 486.21 214.806 485.638C215.598 485.066 216.544 484.78 217.644 484.78C218.759 484.78 219.697 484.897 220.46 485.132C221.237 485.367 221.626 485.675 221.626 486.056C221.626 486.379 221.465 486.804 221.142 487.332C220.834 487.86 220.621 488.146 220.504 488.19C219.873 487.838 219.191 487.662 218.458 487.662C218.062 487.662 217.864 487.801 217.864 488.08C217.864 488.256 217.937 488.41 218.084 488.542C218.245 488.659 218.531 488.813 218.942 489.004C219.353 489.18 219.69 489.341 219.954 489.488C220.233 489.635 220.541 489.84 220.878 490.104C221.582 490.661 221.934 491.387 221.934 492.282C221.934 493.455 221.545 494.409 220.768 495.142C219.991 495.861 218.817 496.22 217.248 496.22C216.207 496.22 215.261 496.044 214.41 495.692C213.559 495.34 213.134 494.856 213.134 494.24C213.134 493.829 213.229 493.397 213.42 492.942C213.625 492.487 213.831 492.187 214.036 492.04Z" fill="white"/>
<ellipse cx="33" cy="109.5" rx="7" ry="6.5" fill="#B9B0F0"/>
<circle cx="33" cy="150" r="7" fill="#B9B0F0"/>
<circle cx="33" cy="191" r="7" fill="#B9B0F0"/>
<ellipse cx="33" cy="407.5" rx="7" ry="6.5" fill="#B9B0F0"/>
<circle cx="33" cy="448" r="7" fill="#B9B0F0"/>
<circle cx="33" cy="489" r="7" fill="#B9B0F0"/>
<rect x="2.5" y="669.5" width="251" height="139" rx="17.5" fill="#272727" stroke="white" stroke-width="5"/>
<path d="M64.156 710.516C64.156 710.824 63.4667 710.978 62.088 710.978C60.7093 710.978 59.9613 710.868 59.844 710.648L56.17 703.784V710.626C56.17 710.89 55.488 711.022 54.124 711.022C52.7747 711.022 52.1 710.89 52.1 710.626V695.908C52.1 695.688 52.6793 695.578 53.838 695.578C54.2927 695.578 54.8207 695.622 55.422 695.71C56.038 695.783 56.412 695.93 56.544 696.15L60.064 702.926V696.018C60.064 695.739 60.746 695.6 62.11 695.6C63.474 695.6 64.156 695.739 64.156 696.018V710.516ZM74.5936 695.6C74.843 695.6 74.9676 696.253 74.9676 697.558C74.9676 698.849 74.843 699.494 74.5936 699.494H70.5676V702.002H73.2516C73.501 702.002 73.6256 702.574 73.6256 703.718C73.6256 704.847 73.5083 705.412 73.2736 705.412H70.5676V710.714C70.5676 710.919 70.289 711.051 69.7316 711.11C69.189 711.183 68.7343 711.22 68.3676 711.22L67.3336 711.176C66.615 711.088 66.2556 710.941 66.2556 710.736V696.172C66.2556 695.937 66.2996 695.783 66.3876 695.71C66.4903 695.637 66.637 695.6 66.8276 695.6H74.5936ZM83.3646 710.648C83.3646 710.941 82.6386 711.088 81.1866 711.088C79.7346 711.088 79.0086 710.941 79.0086 710.648V699.604H76.3686C76.1192 699.604 75.9432 699.267 75.8406 698.592C75.7966 698.269 75.7746 697.939 75.7746 697.602C75.7746 697.265 75.7966 696.935 75.8406 696.612C75.9432 695.937 76.1192 695.6 76.3686 695.6H85.9386C86.1879 695.6 86.3639 695.937 86.4666 696.612C86.5106 696.935 86.5326 697.265 86.5326 697.602C86.5326 697.939 86.5106 698.269 86.4666 698.592C86.3639 699.267 86.1879 699.604 85.9386 699.604H83.3646V710.648ZM62.902 739.582C62.902 741.107 62.242 742.266 60.922 743.058C61.6407 743.322 62.242 743.777 62.726 744.422C63.21 745.067 63.452 745.984 63.452 747.172C63.452 748.345 63.012 749.277 62.132 749.966C61.2667 750.655 60.02 751 58.392 751H53.2C52.9507 751 52.7453 750.919 52.584 750.758C52.4227 750.582 52.342 750.355 52.342 750.076V735.996C52.342 735.835 52.364 735.732 52.408 735.688C52.4667 735.629 52.5767 735.6 52.738 735.6H57.754C61.186 735.6 62.902 736.927 62.902 739.582ZM56.566 739.164V742.046H56.676C58.084 742.046 58.788 741.577 58.788 740.638C58.788 740.125 58.6487 739.751 58.37 739.516C58.106 739.281 57.6587 739.164 57.028 739.164H56.566ZM56.566 744.642V747.502H56.962C57.5927 747.502 58.0547 747.385 58.348 747.15C58.6413 746.915 58.788 746.541 58.788 746.028C58.788 745.515 58.6487 745.155 58.37 744.95C58.106 744.745 57.6587 744.642 57.028 744.642H56.566ZM64.9425 740.132C64.9425 739.971 65.5732 739.89 66.8345 739.89C68.0958 739.89 68.7265 739.971 68.7265 740.132V746.556C68.7265 747.289 68.9612 747.656 69.4305 747.656C69.7825 747.656 70.1785 747.502 70.6185 747.194V740.132C70.6185 739.985 71.2418 739.912 72.4885 739.912C73.7352 739.912 74.3585 739.985 74.3585 740.132V747.348H74.9305C75.4292 747.348 75.6785 747.825 75.6785 748.778C75.6785 749.262 75.5758 749.753 75.3705 750.252C75.0772 750.897 74.6812 751.22 74.1825 751.22C73.1998 751.22 72.4738 750.817 72.0045 750.01L71.9825 750.032C71.0878 750.824 70.1272 751.22 69.1005 751.22C67.6778 751.22 66.6292 750.868 65.9545 750.164C65.2798 749.445 64.9425 748.265 64.9425 746.622V740.132ZM81.0453 750.868C81.0453 750.985 80.3706 751.044 79.0213 751.044C77.6866 751.044 77.0193 750.993 77.0193 750.89V740.088C77.0193 739.985 77.6866 739.934 79.0213 739.934C80.3706 739.934 81.0453 739.978 81.0453 740.066V750.868ZM81.0453 738.768C81.0453 738.871 80.3706 738.922 79.0213 738.922C77.6866 738.922 77.0193 738.878 77.0193 738.79V735.622C77.0193 735.475 77.6866 735.402 79.0213 735.402C80.3706 735.402 81.0453 735.446 81.0453 735.534V738.768ZM87.0389 750.824C87.0389 750.956 86.2909 751.022 84.7949 751.022C83.6216 751.007 83.0349 750.949 83.0349 750.846V735.864C83.0349 735.644 83.7463 735.534 85.1689 735.534C86.4156 735.578 87.0389 735.651 87.0389 735.754V750.824ZM94.5951 735.732C94.5951 735.512 95.1744 735.402 96.3331 735.402C96.7291 735.402 97.1837 735.431 97.6971 735.49C98.2251 735.534 98.4891 735.6 98.4891 735.688V747.282H99.2591C99.6257 747.282 99.8677 747.612 99.9851 748.272C100.014 748.463 100.029 748.727 100.029 749.064C100.029 749.387 99.9264 749.783 99.7211 750.252C99.4277 750.897 98.9584 751.22 98.3131 751.22C97.8291 751.22 97.3964 751.125 97.0151 750.934C96.6484 750.743 96.3991 750.545 96.2671 750.34L96.0691 750.054C95.2624 750.831 94.2504 751.22 93.0331 751.22C91.8157 751.22 90.7744 750.714 89.9091 749.702C89.0437 748.69 88.6111 747.282 88.6111 745.478C88.6111 743.659 89.0657 742.259 89.9751 741.276C90.8844 740.279 92.0211 739.78 93.3851 739.78C93.7811 739.78 94.1844 739.824 94.5951 739.912V735.732ZM93.8691 743.3C93.0477 743.3 92.6371 744.041 92.6371 745.522C92.6371 746.27 92.7544 746.813 92.9891 747.15C93.2237 747.473 93.4804 747.634 93.7591 747.634C94.0524 747.634 94.3311 747.509 94.5951 747.26V743.52C94.3457 743.373 94.1037 743.3 93.8691 743.3ZM105.495 750.868C105.495 750.985 104.82 751.044 103.471 751.044C102.136 751.044 101.469 750.993 101.469 750.89V740.088C101.469 739.985 102.136 739.934 103.471 739.934C104.82 739.934 105.495 739.978 105.495 740.066V750.868ZM105.495 738.768C105.495 738.871 104.82 738.922 103.471 738.922C102.136 738.922 101.469 738.878 101.469 738.79V735.622C101.469 735.475 102.136 735.402 103.471 735.402C104.82 735.402 105.495 735.446 105.495 735.534V738.768ZM112.082 750.868C112.082 750.971 111.554 751.022 110.498 751.022C109.031 750.978 108.298 750.897 108.298 750.78V743.652H107.726C107.345 743.652 107.095 743.329 106.978 742.684C106.949 742.493 106.934 742.303 106.934 742.112C106.934 741.657 107.022 741.203 107.198 740.748C107.462 740.103 107.873 739.78 108.43 739.78C108.987 739.78 109.486 739.912 109.926 740.176C110.366 740.44 110.659 740.704 110.806 740.968C111.73 740.176 112.83 739.78 114.106 739.78C115.382 739.78 116.306 740.125 116.878 740.814C117.45 741.503 117.736 742.633 117.736 744.202V750.802C117.736 750.978 117.105 751.066 115.844 751.066C114.597 751.066 113.974 750.978 113.974 750.802V744.444C113.974 743.711 113.717 743.344 113.204 743.344C113.057 743.344 112.852 743.41 112.588 743.542C112.324 743.659 112.155 743.747 112.082 743.806V750.868ZM123.649 751C122.227 751 121.127 750.545 120.349 749.636C119.572 748.712 119.183 747.355 119.183 745.566C119.183 743.762 119.689 742.354 120.701 741.342C121.728 740.315 123.085 739.802 124.771 739.802C126.473 739.802 127.873 740.176 128.973 740.924V751.88C128.973 752.965 128.533 753.794 127.653 754.366C126.773 754.953 125.644 755.246 124.265 755.246C122.887 755.246 121.655 755.07 120.569 754.718C120.423 754.366 120.349 754.051 120.349 753.772C120.349 752.833 120.503 752.144 120.811 751.704C121.794 752.129 122.843 752.342 123.957 752.342C124.764 752.342 125.167 752.056 125.167 751.484V750.824C124.537 750.941 124.031 751 123.649 751ZM124.661 743.388C123.679 743.388 123.187 744.129 123.187 745.61C123.187 746.534 123.378 747.135 123.759 747.414C124.009 747.605 124.258 747.7 124.507 747.7C124.757 747.7 124.977 747.678 125.167 747.634V743.454C124.991 743.41 124.823 743.388 124.661 743.388ZM139.822 755.004C139.822 755.107 139.191 755.158 137.93 755.158C136.683 755.158 136.06 755.107 136.06 755.004V743.674H135.312C134.96 743.674 134.718 743.351 134.586 742.706C134.542 742.501 134.52 742.237 134.52 741.914C134.52 741.591 134.622 741.21 134.828 740.77C135.121 740.125 135.59 739.802 136.236 739.802C136.661 739.802 137.05 739.905 137.402 740.11C137.768 740.301 138.018 740.484 138.15 740.66C138.296 740.821 138.37 740.917 138.37 740.946C139.352 740.183 140.416 739.802 141.56 739.802C142.704 739.802 143.686 740.249 144.508 741.144C145.329 742.024 145.74 743.395 145.74 745.258C145.74 747.106 145.329 748.543 144.508 749.57C143.686 750.582 142.645 751.088 141.384 751.088C140.812 751.088 140.291 751.059 139.822 751V755.004ZM140.724 743.652C140.474 743.652 140.232 743.733 139.998 743.894V747.788C140.247 747.817 140.445 747.832 140.592 747.832C140.753 747.832 140.878 747.832 140.966 747.832C141.567 747.773 141.868 747.003 141.868 745.522C141.868 744.275 141.486 743.652 140.724 743.652ZM152.113 750.978C152.113 751.081 151.445 751.132 150.111 751.132C148.776 751.103 148.109 751.044 148.109 750.956V743.652H147.515C147.28 743.652 147.089 743.513 146.943 743.234C146.811 742.941 146.745 742.581 146.745 742.156C146.745 740.572 147.214 739.78 148.153 739.78C148.813 739.78 149.363 739.985 149.803 740.396C150.243 740.792 150.463 741.247 150.463 741.76C150.771 741.159 151.181 740.682 151.695 740.33C152.223 739.963 152.758 739.78 153.301 739.78C154.151 739.78 154.665 740 154.841 740.44C154.885 740.557 154.907 740.733 154.907 740.968C154.907 741.188 154.833 741.591 154.687 742.178C154.555 742.765 154.415 743.19 154.269 743.454C154.122 743.718 154.034 743.85 154.005 743.85C153.975 743.85 153.836 743.799 153.587 743.696C153.352 743.579 153.139 743.52 152.949 743.52C152.391 743.52 152.113 743.96 152.113 744.84V750.978ZM156.963 749.702C156.054 748.69 155.599 747.289 155.599 745.5C155.599 743.711 156.054 742.31 156.963 741.298C157.887 740.286 159.127 739.78 160.681 739.78C162.236 739.78 163.468 740.286 164.377 741.298C165.287 742.31 165.741 743.711 165.741 745.5C165.741 747.289 165.287 748.69 164.377 749.702C163.468 750.714 162.236 751.22 160.681 751.22C159.127 751.22 157.887 750.714 156.963 749.702ZM160.681 743.454C159.86 743.454 159.449 744.129 159.449 745.478C159.449 746.827 159.86 747.502 160.681 747.502C161.517 747.502 161.935 746.827 161.935 745.478C161.935 744.129 161.517 743.454 160.681 743.454ZM167.297 750.23V740.088C167.297 740 167.957 739.956 169.277 739.956C170.611 739.956 171.279 739.993 171.279 740.066V751.792C171.279 752.877 170.824 753.735 169.915 754.366C169.02 755.011 167.898 755.334 166.549 755.334C164.657 755.334 163.711 754.674 163.711 753.354C163.711 752.914 163.784 752.547 163.931 752.254C164.063 752.269 164.246 752.276 164.481 752.276C165.551 752.276 166.285 752.107 166.681 751.77C167.091 751.433 167.297 750.919 167.297 750.23ZM167.297 738.79V735.622C167.297 735.475 167.957 735.402 169.277 735.402C170.611 735.402 171.279 735.446 171.279 735.534V738.768C171.279 738.871 170.611 738.922 169.277 738.922C167.957 738.922 167.297 738.878 167.297 738.79ZM181.585 750.406C180.661 750.949 179.473 751.22 178.021 751.22C176.569 751.22 175.345 750.729 174.347 749.746C173.35 748.749 172.851 747.377 172.851 745.632C172.851 743.872 173.328 742.457 174.281 741.386C175.249 740.315 176.467 739.78 177.933 739.78C179.4 739.78 180.529 740.154 181.321 740.902C182.128 741.65 182.531 742.559 182.531 743.63C182.531 746.006 181.167 747.194 178.439 747.194H176.921C176.921 747.634 177.039 747.942 177.273 748.118C177.523 748.279 177.882 748.36 178.351 748.36C179.378 748.36 180.353 748.125 181.277 747.656C181.292 747.641 181.358 747.744 181.475 747.964C181.827 748.595 182.003 749.13 182.003 749.57C182.003 749.995 181.864 750.274 181.585 750.406ZM178.835 744.048C178.835 743.432 178.535 743.124 177.933 743.124C177.655 743.124 177.413 743.212 177.207 743.388C177.017 743.549 176.921 743.791 176.921 744.114V744.796H178.109C178.593 744.796 178.835 744.547 178.835 744.048ZM187.577 745.544C187.577 746.981 188.119 747.7 189.205 747.7C189.909 747.7 190.495 747.561 190.965 747.282C191.185 747.282 191.361 747.663 191.493 748.426C191.639 749.174 191.713 749.687 191.713 749.966C191.713 750.23 191.676 750.406 191.603 750.494C190.825 750.978 189.762 751.22 188.413 751.22C187.063 751.22 185.912 750.721 184.959 749.724C184.02 748.712 183.551 747.341 183.551 745.61C183.551 743.865 184.013 742.457 184.937 741.386C185.875 740.315 187.115 739.78 188.655 739.78C190.209 739.78 191.287 740.154 191.889 740.902C192.021 741.063 192.087 741.305 192.087 741.628C192.087 741.936 192.028 742.317 191.911 742.772C191.647 743.711 191.302 744.253 190.877 744.4C190.818 744.415 190.73 744.422 190.613 744.422C190.51 744.422 190.378 744.334 190.217 744.158C189.645 743.586 189.183 743.3 188.831 743.3C188.493 743.3 188.2 743.476 187.951 743.828C187.701 744.18 187.577 744.752 187.577 745.544ZM198.353 750.868C198.353 751.044 197.737 751.132 196.505 751.132C195.038 751.073 194.305 750.978 194.305 750.846V743.058H193.183C192.889 743.058 192.743 742.552 192.743 741.54C192.743 741.276 192.765 740.953 192.809 740.572C192.867 740.191 192.977 740 193.139 740H194.305V738.064C194.305 737.771 194.921 737.624 196.153 737.624C197.399 737.624 198.023 737.741 198.023 737.976V739.384L198.045 740H199.915C200.164 740 200.289 740.513 200.289 741.54C200.289 742.567 200.164 743.08 199.915 743.08H198.353V750.868ZM201.854 747.04C203.042 747.759 203.981 748.118 204.67 748.118C205.11 748.118 205.33 747.964 205.33 747.656C205.33 747.436 204.949 747.15 204.186 746.798C202.353 746.05 201.436 744.825 201.436 743.124C201.436 742.039 201.832 741.21 202.624 740.638C203.416 740.066 204.362 739.78 205.462 739.78C206.577 739.78 207.516 739.897 208.278 740.132C209.056 740.367 209.444 740.675 209.444 741.056C209.444 741.379 209.283 741.804 208.96 742.332C208.652 742.86 208.44 743.146 208.322 743.19C207.692 742.838 207.01 742.662 206.276 742.662C205.88 742.662 205.682 742.801 205.682 743.08C205.682 743.256 205.756 743.41 205.902 743.542C206.064 743.659 206.35 743.813 206.76 744.004C207.171 744.18 207.508 744.341 207.772 744.488C208.051 744.635 208.359 744.84 208.696 745.104C209.4 745.661 209.752 746.387 209.752 747.282C209.752 748.455 209.364 749.409 208.586 750.142C207.809 750.861 206.636 751.22 205.066 751.22C204.025 751.22 203.079 751.044 202.228 750.692C201.378 750.34 200.952 749.856 200.952 749.24C200.952 748.829 201.048 748.397 201.238 747.942C201.444 747.487 201.649 747.187 201.854 747.04ZM63.408 780.11C63.408 779.978 63.8113 779.912 64.618 779.912C66.4367 779.912 67.3313 779.971 67.302 780.088L65.146 790.78C65.102 791.015 64.288 791.132 62.704 791.132C61.12 791.132 60.306 791.015 60.262 790.78L59.36 785.852L58.238 790.78C58.194 791 57.3507 791.11 55.708 791.11C54.08 791.11 53.244 790.978 53.2 790.714L51.242 780C51.198 779.912 51.8287 779.868 53.134 779.868C54.4247 779.883 55.07 779.912 55.07 779.956L56.082 787.392L57.908 780.044C57.9373 779.956 58.4213 779.912 59.36 779.912C60.2987 779.912 60.7827 779.956 60.812 780.044L62.616 787.304L63.408 780.11ZM72.559 790.868C72.559 790.985 71.8843 791.044 70.535 791.044C69.2003 791.044 68.533 790.993 68.533 790.89V780.088C68.533 779.985 69.2003 779.934 70.535 779.934C71.8843 779.934 72.559 779.978 72.559 780.066V790.868ZM72.559 778.768C72.559 778.871 71.8843 778.922 70.535 778.922C69.2003 778.922 68.533 778.878 68.533 778.79V775.622C68.533 775.475 69.2003 775.402 70.535 775.402C71.8843 775.402 72.559 775.446 72.559 775.534V778.768ZM75.4066 782.926H74.3286C74.1086 782.926 73.9986 782.442 73.9986 781.474C73.9986 780.491 74.1086 780 74.3286 780H75.4066V779.516C75.4066 777.961 75.7293 776.891 76.3746 776.304C77.0346 775.703 77.9513 775.402 79.1246 775.402C80.2979 775.402 81.3319 775.615 82.2266 776.04C82.3439 776.084 82.4026 776.245 82.4026 776.524C82.4026 776.788 82.2779 777.221 82.0286 777.822C81.7793 778.423 81.5666 778.768 81.3906 778.856C80.8919 778.548 80.3786 778.394 79.8506 778.394C79.2786 778.394 78.9926 778.775 78.9926 779.538V780H80.8186C81.0826 780 81.2146 780.469 81.2146 781.408C81.2146 782.435 81.0459 782.948 80.7086 782.948H79.3006V790.736C79.3006 790.912 78.6479 791 77.3426 791C76.0519 791 75.4066 790.912 75.4066 790.736V782.926ZM87.8911 789.702C86.9817 788.69 86.5271 787.289 86.5271 785.5C86.5271 783.711 86.9817 782.31 87.8911 781.298C88.8151 780.286 90.0544 779.78 91.6091 779.78C93.1637 779.78 94.3957 780.286 95.3051 781.298C96.2144 782.31 96.6691 783.711 96.6691 785.5C96.6691 787.289 96.2144 788.69 95.3051 789.702C94.3957 790.714 93.1637 791.22 91.6091 791.22C90.0544 791.22 88.8151 790.714 87.8911 789.702ZM91.6091 783.454C90.7877 783.454 90.3771 784.129 90.3771 785.478C90.3771 786.827 90.7877 787.502 91.6091 787.502C92.4451 787.502 92.8631 786.827 92.8631 785.478C92.8631 784.129 92.4451 783.454 91.6091 783.454ZM98.1144 780.132C98.1144 779.971 98.745 779.89 100.006 779.89C101.268 779.89 101.898 779.971 101.898 780.132V786.556C101.898 787.289 102.133 787.656 102.602 787.656C102.954 787.656 103.35 787.502 103.79 787.194V780.132C103.79 779.985 104.414 779.912 105.66 779.912C106.907 779.912 107.53 779.985 107.53 780.132V787.348H108.102C108.601 787.348 108.85 787.825 108.85 788.778C108.85 789.262 108.748 789.753 108.542 790.252C108.249 790.897 107.853 791.22 107.354 791.22C106.372 791.22 105.646 790.817 105.176 790.01L105.154 790.032C104.26 790.824 103.299 791.22 102.272 791.22C100.85 791.22 99.801 790.868 99.1264 790.164C98.4517 789.445 98.1144 788.265 98.1144 786.622V780.132ZM115.009 790.978C115.009 791.081 114.342 791.132 113.007 791.132C111.673 791.103 111.005 791.044 111.005 790.956V783.652H110.411C110.177 783.652 109.986 783.513 109.839 783.234C109.707 782.941 109.641 782.581 109.641 782.156C109.641 780.572 110.111 779.78 111.049 779.78C111.709 779.78 112.259 779.985 112.699 780.396C113.139 780.792 113.359 781.247 113.359 781.76C113.667 781.159 114.078 780.682 114.591 780.33C115.119 779.963 115.655 779.78 116.197 779.78C117.048 779.78 117.561 780 117.737 780.44C117.781 780.557 117.803 780.733 117.803 780.968C117.803 781.188 117.73 781.591 117.583 782.178C117.451 782.765 117.312 783.19 117.165 783.454C117.019 783.718 116.931 783.85 116.901 783.85C116.872 783.85 116.733 783.799 116.483 783.696C116.249 783.579 116.036 783.52 115.845 783.52C115.288 783.52 115.009 783.96 115.009 784.84V790.978ZM126.668 785.544C126.668 786.981 127.211 787.7 128.296 787.7C129 787.7 129.587 787.561 130.056 787.282C130.276 787.282 130.452 787.663 130.584 788.426C130.731 789.174 130.804 789.687 130.804 789.966C130.804 790.23 130.768 790.406 130.694 790.494C129.917 790.978 128.854 791.22 127.504 791.22C126.155 791.22 125.004 790.721 124.05 789.724C123.112 788.712 122.642 787.341 122.642 785.61C122.642 783.865 123.104 782.457 124.028 781.386C124.967 780.315 126.206 779.78 127.746 779.78C129.301 779.78 130.379 780.154 130.98 780.902C131.112 781.063 131.178 781.305 131.178 781.628C131.178 781.936 131.12 782.317 131.002 782.772C130.738 783.711 130.394 784.253 129.968 784.4C129.91 784.415 129.822 784.422 129.704 784.422C129.602 784.422 129.47 784.334 129.308 784.158C128.736 783.586 128.274 783.3 127.922 783.3C127.585 783.3 127.292 783.476 127.042 783.828C126.793 784.18 126.668 784.752 126.668 785.544ZM133.331 789.702C132.421 788.69 131.967 787.289 131.967 785.5C131.967 783.711 132.421 782.31 133.331 781.298C134.255 780.286 135.494 779.78 137.049 779.78C138.603 779.78 139.835 780.286 140.745 781.298C141.654 782.31 142.109 783.711 142.109 785.5C142.109 787.289 141.654 788.69 140.745 789.702C139.835 790.714 138.603 791.22 137.049 791.22C135.494 791.22 134.255 790.714 133.331 789.702ZM137.049 783.454C136.227 783.454 135.817 784.129 135.817 785.478C135.817 786.827 136.227 787.502 137.049 787.502C137.885 787.502 138.303 786.827 138.303 785.478C138.303 784.129 137.885 783.454 137.049 783.454ZM153.63 790.89C153.63 790.993 152.999 791.044 151.738 791.044C150.491 791.044 149.868 790.978 149.868 790.846V784.444C149.868 783.711 149.626 783.344 149.142 783.344C148.892 783.344 148.562 783.505 148.152 783.828V790.868C148.152 791.015 147.521 791.088 146.26 791.088C145.013 791.088 144.39 791.007 144.39 790.846V783.652H143.84C143.356 783.652 143.114 783.146 143.114 782.134C143.114 781.679 143.202 781.217 143.378 780.748C143.612 780.103 143.994 779.78 144.522 779.78C145.05 779.78 145.556 779.919 146.04 780.198C146.538 780.477 146.839 780.741 146.942 780.99C147.851 780.183 148.856 779.78 149.956 779.78C151.07 779.78 151.965 780.125 152.64 780.814C153.432 780.125 154.385 779.78 155.5 779.78C157.92 779.78 159.13 781.254 159.13 784.202V790.89C159.13 790.993 158.499 791.044 157.238 791.044C155.991 791.044 155.368 790.978 155.368 790.846V784.444C155.368 783.711 155.126 783.344 154.642 783.344C154.378 783.344 154.04 783.505 153.63 783.828V790.89ZM170.968 790.89C170.968 790.993 170.337 791.044 169.076 791.044C167.829 791.044 167.206 790.978 167.206 790.846V784.444C167.206 783.711 166.964 783.344 166.48 783.344C166.23 783.344 165.9 783.505 165.49 783.828V790.868C165.49 791.015 164.859 791.088 163.598 791.088C162.351 791.088 161.728 791.007 161.728 790.846V783.652H161.178C160.694 783.652 160.452 783.146 160.452 782.134C160.452 781.679 160.54 781.217 160.716 780.748C160.95 780.103 161.332 779.78 161.86 779.78C162.388 779.78 162.894 779.919 163.378 780.198C163.876 780.477 164.177 780.741 164.28 780.99C165.189 780.183 166.194 779.78 167.294 779.78C168.408 779.78 169.303 780.125 169.978 780.814C170.77 780.125 171.723 779.78 172.838 779.78C175.258 779.78 176.468 781.254 176.468 784.202V790.89C176.468 790.993 175.837 791.044 174.576 791.044C173.329 791.044 172.706 790.978 172.706 790.846V784.444C172.706 783.711 172.464 783.344 171.98 783.344C171.716 783.344 171.378 783.505 170.968 783.828V790.89ZM178.23 780.132C178.23 779.971 178.86 779.89 180.122 779.89C181.383 779.89 182.014 779.971 182.014 780.132V786.556C182.014 787.289 182.248 787.656 182.718 787.656C183.07 787.656 183.466 787.502 183.906 787.194V780.132C183.906 779.985 184.529 779.912 185.776 779.912C187.022 779.912 187.646 779.985 187.646 780.132V787.348H188.218C188.716 787.348 188.966 787.825 188.966 788.778C188.966 789.262 188.863 789.753 188.658 790.252C188.364 790.897 187.968 791.22 187.47 791.22C186.487 791.22 185.761 790.817 185.292 790.01L185.27 790.032C184.375 790.824 183.414 791.22 182.388 791.22C180.965 791.22 179.916 790.868 179.242 790.164C178.567 789.445 178.23 788.265 178.23 786.622V780.132ZM194.904 790.868C194.904 790.971 194.376 791.022 193.32 791.022C191.854 790.978 191.12 790.897 191.12 790.78V783.652H190.548C190.167 783.652 189.918 783.329 189.8 782.684C189.771 782.493 189.756 782.303 189.756 782.112C189.756 781.657 189.844 781.203 190.02 780.748C190.284 780.103 190.695 779.78 191.252 779.78C191.81 779.78 192.308 779.912 192.748 780.176C193.188 780.44 193.482 780.704 193.628 780.968C194.552 780.176 195.652 779.78 196.928 779.78C198.204 779.78 199.128 780.125 199.7 780.814C200.272 781.503 200.558 782.633 200.558 784.202V790.802C200.558 790.978 199.928 791.066 198.666 791.066C197.42 791.066 196.796 790.978 196.796 790.802V784.444C196.796 783.711 196.54 783.344 196.026 783.344C195.88 783.344 195.674 783.41 195.41 783.542C195.146 783.659 194.978 783.747 194.904 783.806V790.868ZM206.45 790.868C206.45 790.985 205.775 791.044 204.426 791.044C203.091 791.044 202.424 790.993 202.424 790.89V780.088C202.424 779.985 203.091 779.934 204.426 779.934C205.775 779.934 206.45 779.978 206.45 780.066V790.868ZM206.45 778.768C206.45 778.871 205.775 778.922 204.426 778.922C203.091 778.922 202.424 778.878 202.424 778.79V775.622C202.424 775.475 203.091 775.402 204.426 775.402C205.775 775.402 206.45 775.446 206.45 775.534V778.768ZM213.499 790.868C213.499 791.044 212.883 791.132 211.651 791.132C210.185 791.073 209.451 790.978 209.451 790.846V783.058H208.329C208.036 783.058 207.889 782.552 207.889 781.54C207.889 781.276 207.911 780.953 207.955 780.572C208.014 780.191 208.124 780 208.285 780H209.451V778.064C209.451 777.771 210.067 777.624 211.299 777.624C212.546 777.624 213.169 777.741 213.169 777.976V779.384L213.191 780H215.061C215.311 780 215.435 780.513 215.435 781.54C215.435 782.567 215.311 783.08 215.061 783.08H213.499V790.868ZM220.565 790.868C220.565 790.985 219.89 791.044 218.541 791.044C217.206 791.044 216.539 790.993 216.539 790.89V780.088C216.539 779.985 217.206 779.934 218.541 779.934C219.89 779.934 220.565 779.978 220.565 780.066V790.868ZM220.565 778.768C220.565 778.871 219.89 778.922 218.541 778.922C217.206 778.922 216.539 778.878 216.539 778.79V775.622C216.539 775.475 217.206 775.402 218.541 775.402C219.89 775.402 220.565 775.446 220.565 775.534V778.768ZM230.87 790.406C229.946 790.949 228.758 791.22 227.306 791.22C225.854 791.22 224.63 790.729 223.632 789.746C222.635 788.749 222.136 787.377 222.136 785.632C222.136 783.872 222.613 782.457 223.566 781.386C224.534 780.315 225.752 779.78 227.218 779.78C228.685 779.78 229.814 780.154 230.606 780.902C231.413 781.65 231.816 782.559 231.816 783.63C231.816 786.006 230.452 787.194 227.724 787.194H226.206C226.206 787.634 226.324 787.942 226.558 788.118C226.808 788.279 227.167 788.36 227.636 788.36C228.663 788.36 229.638 788.125 230.562 787.656C230.577 787.641 230.643 787.744 230.76 787.964C231.112 788.595 231.288 789.13 231.288 789.57C231.288 789.995 231.149 790.274 230.87 790.406ZM228.12 784.048C228.12 783.432 227.82 783.124 227.218 783.124C226.94 783.124 226.698 783.212 226.492 783.388C226.302 783.549 226.206 783.791 226.206 784.114V784.796H227.394C227.878 784.796 228.12 784.547 228.12 784.048Z" fill="white"/>
<ellipse cx="33" cy="702.5" rx="7" ry="6.5" fill="#B9B0F0"/>
<circle cx="33" cy="743" r="7" fill="#B9B0F0"/>
<line x1="130.5" y1="222" x2="130.5" y2="297" stroke="white" stroke-width="5"/>
<line x1="130.5" y1="524" x2="130.5" y2="593" stroke="white" stroke-width="5"/>
</svg>
