<svg width="1633" height="1402" viewBox="0 0 1633 1402" fill="none" xmlns="http://www.w3.org/2000/svg">
<line x1="795.5" y1="1.09278e-07" x2="795.5" y2="1272" stroke="white" stroke-width="5"/>
<line x1="793" y1="303.5" x2="663" y2="303.5" stroke="white" stroke-width="5"/>
<line x1="793" y1="973.5" x2="663" y2="973.5" stroke="white" stroke-width="5"/>
<line x1="928" y1="534.5" x2="798" y2="534.5" stroke="white" stroke-width="5"/>
<rect x="2.5" y="233.5" width="663" height="136" rx="47.5" fill="#272727" stroke="white" stroke-width="5"/>
<rect x="2.5" y="903.5" width="663" height="136" rx="47.5" fill="#272727" stroke="white" stroke-width="5"/>
<rect x="930.5" y="464.5" width="663" height="136" rx="47.5" fill="#272727" stroke="white" stroke-width="5"/>
<rect x="2.5" y="398.5" width="663" height="328" rx="47.5" fill="#272727" stroke="white" stroke-width="5"/>
<rect x="930.5" y="629.5" width="663" height="328" rx="47.5" fill="#272727" stroke="white" stroke-width="5"/>
<path d="M201.429 331.16C196.575 331.16 194.149 330.627 194.149 329.56V277.72C194.149 275.907 194.975 275 196.629 275H210.709C218.602 275 224.282 276.627 227.749 279.88C231.269 283.133 233.029 287.853 233.029 294.04C233.029 299.16 231.375 303.853 228.069 308.12C226.415 310.253 223.989 311.96 220.789 313.24C217.589 314.52 213.855 315.16 209.589 315.16V329.48C209.589 330.12 208.575 330.573 206.549 330.84C204.575 331.053 202.869 331.16 201.429 331.16ZM209.589 288.92V301.56H210.629C212.495 301.56 214.069 300.973 215.349 299.8C216.629 298.627 217.269 296.973 217.269 294.84C217.269 292.707 216.815 291.187 215.909 290.28C215.055 289.373 213.509 288.92 211.269 288.92H209.589ZM283.614 329.64C283.614 330.547 280.92 331 275.534 331C270.147 331 267.454 330.547 267.454 329.64V311.24H256.254V329.64C256.254 330.547 253.56 331 248.174 331C242.787 331 240.094 330.547 240.094 329.64V276.6C240.094 275.48 242.787 274.92 248.174 274.92C253.56 274.92 256.254 275.48 256.254 276.6V295.4H267.454V276.76C267.454 276.013 268.787 275.48 271.454 275.16C272.84 275.053 274.2 275 275.534 275L279.614 275.16C282.28 275.48 283.614 276.013 283.614 276.76V329.64ZM329.178 331.16C324.538 331.16 322.031 330.413 321.658 328.92L319.018 318.6H306.298L303.978 328.52C303.658 330.173 301.098 331 296.298 331C293.738 331 291.845 330.867 290.618 330.6C289.391 330.28 288.778 330.04 288.778 329.88L302.938 275.72C302.938 275.293 306.591 275.08 313.898 275.08C321.205 275.08 324.858 275.293 324.858 275.72L338.698 329.96C338.698 330.333 337.471 330.627 335.018 330.84C332.565 331.053 330.618 331.16 329.178 331.16ZM308.298 308.44H316.698L313.098 291.88H312.618L308.298 308.44ZM346.08 311.48C347.093 312.28 348.827 313.373 351.28 314.76C353.787 316.147 356.16 316.84 358.4 316.84C360.693 316.84 361.84 315.96 361.84 314.2C361.84 313.4 361.52 312.707 360.88 312.12C360.24 311.48 359.067 310.76 357.36 309.96C355.653 309.16 354.373 308.547 353.52 308.12C352.667 307.64 351.52 306.893 350.08 305.88C348.693 304.813 347.627 303.72 346.88 302.6C344.747 299.56 343.68 295.693 343.68 291C343.68 286.307 345.413 282.36 348.88 279.16C352.4 275.907 356.987 274.28 362.64 274.28C366.48 274.28 370.027 274.707 373.28 275.56C376.533 276.36 378.213 277.427 378.32 278.76C378.32 278.92 378.32 279.08 378.32 279.24C378.32 281.107 377.733 283.48 376.56 286.36C375.387 289.187 374.56 290.76 374.08 291.08C370.667 289.32 367.6 288.44 364.88 288.44C362.213 288.44 360.88 289.4 360.88 291.32C360.88 292.493 361.867 293.533 363.84 294.44C364.267 294.653 364.88 294.947 365.68 295.32C366.48 295.693 367.387 296.147 368.4 296.68C369.467 297.16 370.587 297.8 371.76 298.6C372.987 299.347 374.293 300.36 375.68 301.64C378.507 304.307 379.92 307.827 379.92 312.2C379.92 317.907 378.347 322.573 375.2 326.2C372.053 329.827 367.2 331.693 360.64 331.8C357.44 331.8 354.533 331.533 351.92 331C349.36 330.467 347.12 329.427 345.2 327.88C343.28 326.333 342.32 324.467 342.32 322.28C342.32 320.093 342.72 317.933 343.52 315.8C344.32 313.613 345.173 312.173 346.08 311.48ZM412.5 297.24C413.513 297.24 414.02 299.107 414.02 302.84C414.02 303.96 413.887 305.293 413.62 306.84C413.407 308.333 412.98 309.08 412.34 309.08H402.18V317.08H416.9C417.807 317.08 418.42 318.253 418.74 320.6C418.9 321.613 418.98 322.707 418.98 323.88C418.98 325 418.82 326.467 418.5 328.28C418.18 330.093 417.647 331 416.9 331H389.54C387.513 331 386.5 330.173 386.5 328.52V277.08C386.5 275.693 387.113 275 388.34 275H416.98C418.1 275 418.66 277.373 418.66 282.12C418.66 286.813 418.1 289.16 416.98 289.16H402.18V297.24H412.5ZM465.511 329.64C465.511 330.547 462.791 331 457.351 331C451.965 331 449.271 330.547 449.271 329.64V290.2L440.631 290.28C439.031 290.28 438.231 287.72 438.231 282.6C438.231 280.84 438.391 279.133 438.711 277.48C439.085 275.827 439.698 275 440.551 275H462.471C463.378 275 464.098 275.213 464.631 275.64C465.218 276.013 465.511 276.493 465.511 277.08V329.64Z" fill="white"/>
<path d="M196.546 1001.16C191.693 1001.16 189.266 1000.63 189.266 999.56V947.72C189.266 945.907 190.093 945 191.746 945H205.826C213.719 945 219.399 946.627 222.866 949.88C226.386 953.133 228.146 957.853 228.146 964.04C228.146 969.16 226.493 973.853 223.186 978.12C221.533 980.253 219.106 981.96 215.906 983.24C212.706 984.52 208.973 985.16 204.706 985.16V999.48C204.706 1000.12 203.693 1000.57 201.666 1000.84C199.693 1001.05 197.986 1001.16 196.546 1001.16ZM204.706 958.92V971.56H205.746C207.613 971.56 209.186 970.973 210.466 969.8C211.746 968.627 212.386 966.973 212.386 964.84C212.386 962.707 211.933 961.187 211.026 960.28C210.173 959.373 208.626 958.92 206.386 958.92H204.706ZM278.731 999.64C278.731 1000.55 276.038 1001 270.651 1001C265.264 1001 262.571 1000.55 262.571 999.64V981.24H251.371V999.64C251.371 1000.55 248.678 1001 243.291 1001C237.904 1001 235.211 1000.55 235.211 999.64V946.6C235.211 945.48 237.904 944.92 243.291 944.92C248.678 944.92 251.371 945.48 251.371 946.6V965.4H262.571V946.76C262.571 946.013 263.904 945.48 266.571 945.16C267.958 945.053 269.318 945 270.651 945L274.731 945.16C277.398 945.48 278.731 946.013 278.731 946.76V999.64ZM324.295 1001.16C319.655 1001.16 317.149 1000.41 316.775 998.92L314.135 988.6H301.415L299.095 998.52C298.775 1000.17 296.215 1001 291.415 1001C288.855 1001 286.962 1000.87 285.735 1000.6C284.509 1000.28 283.895 1000.04 283.895 999.88L298.055 945.72C298.055 945.293 301.709 945.08 309.015 945.08C316.322 945.08 319.975 945.293 319.975 945.72L333.815 999.96C333.815 1000.33 332.589 1000.63 330.135 1000.84C327.682 1001.05 325.735 1001.16 324.295 1001.16ZM303.415 978.44H311.815L308.215 961.88H307.735L303.415 978.44ZM341.197 981.48C342.211 982.28 343.944 983.373 346.397 984.76C348.904 986.147 351.277 986.84 353.517 986.84C355.811 986.84 356.957 985.96 356.957 984.2C356.957 983.4 356.637 982.707 355.997 982.12C355.357 981.48 354.184 980.76 352.477 979.96C350.771 979.16 349.491 978.547 348.637 978.12C347.784 977.64 346.637 976.893 345.197 975.88C343.811 974.813 342.744 973.72 341.997 972.6C339.864 969.56 338.797 965.693 338.797 961C338.797 956.307 340.531 952.36 343.997 949.16C347.517 945.907 352.104 944.28 357.757 944.28C361.597 944.28 365.144 944.707 368.397 945.56C371.651 946.36 373.331 947.427 373.437 948.76C373.437 948.92 373.437 949.08 373.437 949.24C373.437 951.107 372.851 953.48 371.677 956.36C370.504 959.187 369.677 960.76 369.197 961.08C365.784 959.32 362.717 958.44 359.997 958.44C357.331 958.44 355.997 959.4 355.997 961.32C355.997 962.493 356.984 963.533 358.957 964.44C359.384 964.653 359.997 964.947 360.797 965.32C361.597 965.693 362.504 966.147 363.517 966.68C364.584 967.16 365.704 967.8 366.877 968.6C368.104 969.347 369.411 970.36 370.797 971.64C373.624 974.307 375.037 977.827 375.037 982.2C375.037 987.907 373.464 992.573 370.317 996.2C367.171 999.827 362.317 1001.69 355.757 1001.8C352.557 1001.8 349.651 1001.53 347.037 1001C344.477 1000.47 342.237 999.427 340.317 997.88C338.397 996.333 337.437 994.467 337.437 992.28C337.437 990.093 337.837 987.933 338.637 985.8C339.437 983.613 340.291 982.173 341.197 981.48ZM407.617 967.24C408.631 967.24 409.137 969.107 409.137 972.84C409.137 973.96 409.004 975.293 408.737 976.84C408.524 978.333 408.097 979.08 407.457 979.08H397.297V987.08H412.017C412.924 987.08 413.537 988.253 413.857 990.6C414.017 991.613 414.097 992.707 414.097 993.88C414.097 995 413.937 996.467 413.617 998.28C413.297 1000.09 412.764 1001 412.017 1001H384.657C382.631 1001 381.617 1000.17 381.617 998.52V947.08C381.617 945.693 382.231 945 383.457 945H412.097C413.217 945 413.777 947.373 413.777 952.12C413.777 956.813 413.217 959.16 412.097 959.16H397.297V967.24H407.617ZM433.748 995.72C433.748 994.227 434.122 992.547 434.868 990.68C435.615 988.76 436.335 987.24 437.028 986.12C437.722 984.947 438.122 984.36 438.228 984.36C441.322 986.227 444.575 987.16 447.988 987.16C450.122 987.16 451.828 986.733 453.108 985.88C454.442 985.027 455.108 983.853 455.108 982.36C455.108 980.813 454.495 979.827 453.268 979.4C452.095 978.973 450.202 978.68 447.588 978.52H444.708C444.068 978.52 443.455 977.747 442.868 976.2C442.335 974.6 442.068 973.053 442.068 971.56C442.068 969.053 442.815 967.773 444.308 967.72L446.628 967.64C448.068 967.64 449.562 967.24 451.108 966.44C452.708 965.587 453.508 964.52 453.508 963.24C453.508 961 451.508 959.88 447.508 959.88C444.522 959.88 441.642 960.467 438.868 961.64C436.468 957.32 435.268 953.96 435.268 951.56C435.268 949.107 436.948 947.267 440.308 946.04C443.722 944.813 447.988 944.2 453.108 944.2C458.228 944.2 462.228 945.267 465.108 947.4C467.988 949.533 469.428 952.44 469.428 956.12C469.428 962.573 466.655 967.533 461.108 971C467.828 973.72 471.188 978.333 471.188 984.84C471.188 989.907 469.402 994.013 465.828 997.16C462.255 1000.25 457.135 1001.8 450.468 1001.8C446.255 1001.8 442.415 1001.21 438.948 1000.04C435.482 998.813 433.748 997.373 433.748 995.72Z" fill="white"/>
<path d="M1124.66 562.16C1119.81 562.16 1117.38 561.627 1117.38 560.56V508.72C1117.38 506.907 1118.21 506 1119.86 506H1133.94C1141.84 506 1147.52 507.627 1150.98 510.88C1154.5 514.133 1156.26 518.853 1156.26 525.04C1156.26 530.16 1154.61 534.853 1151.3 539.12C1149.65 541.253 1147.22 542.96 1144.02 544.24C1140.82 545.52 1137.09 546.16 1132.82 546.16V560.48C1132.82 561.12 1131.81 561.573 1129.78 561.84C1127.81 562.053 1126.1 562.16 1124.66 562.16ZM1132.82 519.92V532.56H1133.86C1135.73 532.56 1137.3 531.973 1138.58 530.8C1139.86 529.627 1140.5 527.973 1140.5 525.84C1140.5 523.707 1140.05 522.187 1139.14 521.28C1138.29 520.373 1136.74 519.92 1134.5 519.92H1132.82ZM1206.85 560.64C1206.85 561.547 1204.15 562 1198.77 562C1193.38 562 1190.69 561.547 1190.69 560.64V542.24H1179.49V560.64C1179.49 561.547 1176.79 562 1171.41 562C1166.02 562 1163.33 561.547 1163.33 560.64V507.6C1163.33 506.48 1166.02 505.92 1171.41 505.92C1176.79 505.92 1179.49 506.48 1179.49 507.6V526.4H1190.69V507.76C1190.69 507.013 1192.02 506.48 1194.69 506.16C1196.07 506.053 1197.43 506 1198.77 506L1202.85 506.16C1205.51 506.48 1206.85 507.013 1206.85 507.76V560.64ZM1252.41 562.16C1247.77 562.16 1245.27 561.413 1244.89 559.92L1242.25 549.6H1229.53L1227.21 559.52C1226.89 561.173 1224.33 562 1219.53 562C1216.97 562 1215.08 561.867 1213.85 561.6C1212.63 561.28 1212.01 561.04 1212.01 560.88L1226.17 506.72C1226.17 506.293 1229.83 506.08 1237.13 506.08C1244.44 506.08 1248.09 506.293 1248.09 506.72L1261.93 560.96C1261.93 561.333 1260.71 561.627 1258.25 561.84C1255.8 562.053 1253.85 562.16 1252.41 562.16ZM1231.53 539.44H1239.93L1236.33 522.88H1235.85L1231.53 539.44ZM1269.31 542.48C1270.33 543.28 1272.06 544.373 1274.51 545.76C1277.02 547.147 1279.39 547.84 1281.63 547.84C1283.93 547.84 1285.07 546.96 1285.07 545.2C1285.07 544.4 1284.75 543.707 1284.11 543.12C1283.47 542.48 1282.3 541.76 1280.59 540.96C1278.89 540.16 1277.61 539.547 1276.75 539.12C1275.9 538.64 1274.75 537.893 1273.31 536.88C1271.93 535.813 1270.86 534.72 1270.11 533.6C1267.98 530.56 1266.91 526.693 1266.91 522C1266.91 517.307 1268.65 513.36 1272.11 510.16C1275.63 506.907 1280.22 505.28 1285.87 505.28C1289.71 505.28 1293.26 505.707 1296.51 506.56C1299.77 507.36 1301.45 508.427 1301.55 509.76C1301.55 509.92 1301.55 510.08 1301.55 510.24C1301.55 512.107 1300.97 514.48 1299.79 517.36C1298.62 520.187 1297.79 521.76 1297.31 522.08C1293.9 520.32 1290.83 519.44 1288.11 519.44C1285.45 519.44 1284.11 520.4 1284.11 522.32C1284.11 523.493 1285.1 524.533 1287.07 525.44C1287.5 525.653 1288.11 525.947 1288.91 526.32C1289.71 526.693 1290.62 527.147 1291.63 527.68C1292.7 528.16 1293.82 528.8 1294.99 529.6C1296.22 530.347 1297.53 531.36 1298.91 532.64C1301.74 535.307 1303.15 538.827 1303.15 543.2C1303.15 548.907 1301.58 553.573 1298.43 557.2C1295.29 560.827 1290.43 562.693 1283.87 562.8C1280.67 562.8 1277.77 562.533 1275.15 562C1272.59 561.467 1270.35 560.427 1268.43 558.88C1266.51 557.333 1265.55 555.467 1265.55 553.28C1265.55 551.093 1265.95 548.933 1266.75 546.8C1267.55 544.613 1268.41 543.173 1269.31 542.48ZM1335.73 528.24C1336.75 528.24 1337.25 530.107 1337.25 533.84C1337.25 534.96 1337.12 536.293 1336.85 537.84C1336.64 539.333 1336.21 540.08 1335.57 540.08H1325.41V548.08H1340.13C1341.04 548.08 1341.65 549.253 1341.97 551.6C1342.13 552.613 1342.21 553.707 1342.21 554.88C1342.21 556 1342.05 557.467 1341.73 559.28C1341.41 561.093 1340.88 562 1340.13 562H1312.77C1310.75 562 1309.73 561.173 1309.73 559.52V508.08C1309.73 506.693 1310.35 506 1311.57 506H1340.21C1341.33 506 1341.89 508.373 1341.89 513.12C1341.89 517.813 1341.33 520.16 1340.21 520.16H1325.41V528.24H1335.73ZM1394.91 562H1368.35C1366.48 562 1365.17 560.187 1364.43 556.56C1364.05 554.587 1363.87 553.093 1363.87 552.08C1363.87 551.067 1364.03 550.4 1364.35 550.08C1376.29 537.76 1382.27 529.387 1382.27 524.96C1382.27 523.467 1381.87 522.347 1381.07 521.6C1380.32 520.853 1379.09 520.48 1377.39 520.48C1375.73 520.48 1374.05 520.8 1372.35 521.44C1370.69 522.08 1369.39 522.773 1368.43 523.52C1366.35 521.013 1364.91 518.373 1364.11 515.6C1363.84 514.693 1363.71 513.867 1363.71 513.12C1363.71 512.32 1363.84 511.573 1364.11 510.88C1364.53 509.493 1366.51 508.187 1370.03 506.96C1373.6 505.733 1377.36 505.12 1381.31 505.12C1393.25 505.12 1399.23 510.427 1399.23 521.04C1399.23 525.733 1397.63 530.507 1394.43 535.36C1391.23 540.16 1387.49 544.32 1383.23 547.84L1399.39 547.2C1399.65 550.027 1399.79 552.48 1399.79 554.56C1399.79 556.64 1399.36 558.4 1398.51 559.84C1397.65 561.28 1396.45 562 1394.91 562Z" fill="white"/>
<path d="M128.528 459.024C128.528 458.864 129.216 458.72 130.592 458.592C132 458.432 133.152 458.352 134.048 458.352C137.6 458.352 139.456 458.816 139.616 459.744L143.744 480.864L147.632 459.744C147.824 458.816 149.808 458.352 153.584 458.352C154.512 458.352 155.68 458.416 157.088 458.544C158.496 458.672 159.2 458.816 159.2 458.976L150.704 490.752C150.576 491.264 149.632 491.6 147.872 491.76C145.152 492.048 142.672 492.112 140.432 491.952C138.224 491.76 137.056 491.44 136.928 490.992L128.528 459.024ZM165.302 483.744V466.656H161.894C161.35 466.656 160.966 465.968 160.742 464.592C160.646 463.92 160.598 463.232 160.598 462.528C160.598 461.824 160.646 461.136 160.742 460.464C160.966 459.088 161.35 458.4 161.894 458.4H178.022C178.566 458.4 178.934 459.088 179.126 460.464C179.254 461.136 179.318 461.824 179.318 462.528C179.318 463.232 179.254 463.92 179.126 464.592C178.934 465.968 178.566 466.656 178.022 466.656H174.806V483.744H178.166C178.71 483.744 179.094 484.432 179.318 485.808C179.446 486.48 179.51 487.168 179.51 487.872C179.51 488.576 179.446 489.264 179.318 489.936C179.094 491.312 178.71 492 178.166 492H161.99C161.446 492 161.078 491.312 160.886 489.936C160.758 489.264 160.694 488.576 160.694 487.872C160.694 487.168 160.758 486.48 160.886 485.808C161.078 484.432 161.446 483.744 161.99 483.744H165.302ZM186.889 492.096C183.977 492.096 182.521 491.776 182.521 491.136V460.032C182.521 458.944 183.017 458.4 184.009 458.4H192.457C197.193 458.4 200.601 459.376 202.681 461.328C204.793 463.28 205.849 466.112 205.849 469.824C205.849 472.896 204.857 475.712 202.873 478.272C201.881 479.552 200.425 480.576 198.505 481.344C196.585 482.112 194.345 482.496 191.785 482.496V491.088C191.785 491.472 191.177 491.744 189.961 491.904C188.777 492.032 187.753 492.096 186.889 492.096ZM191.785 466.752V474.336H192.409C193.529 474.336 194.473 473.984 195.241 473.28C196.009 472.576 196.393 471.584 196.393 470.304C196.393 469.024 196.121 468.112 195.577 467.568C195.065 467.024 194.137 466.752 192.793 466.752H191.785ZM229.214 500.736C229.214 500.96 227.838 501.072 225.086 501.072C222.366 501.072 221.006 500.96 221.006 500.736V476.016H219.374C218.606 476.016 218.078 475.312 217.79 473.904C217.694 473.456 217.646 472.88 217.646 472.176C217.646 471.472 217.87 470.64 218.318 469.68C218.958 468.272 219.982 467.568 221.39 467.568C222.318 467.568 223.166 467.792 223.934 468.24C224.734 468.656 225.278 469.056 225.566 469.44C225.886 469.792 226.046 470 226.046 470.064C228.19 468.4 230.51 467.568 233.006 467.568C235.502 467.568 237.646 468.544 239.438 470.496C241.23 472.416 242.126 475.408 242.126 479.472C242.126 483.504 241.23 486.64 239.438 488.88C237.646 491.088 235.374 492.192 232.622 492.192C231.374 492.192 230.238 492.128 229.214 492V500.736ZM231.182 475.968C230.638 475.968 230.11 476.144 229.598 476.496V484.992C230.142 485.056 230.574 485.088 230.894 485.088C231.246 485.088 231.518 485.088 231.71 485.088C233.022 484.96 233.678 483.28 233.678 480.048C233.678 477.328 232.846 475.968 231.182 475.968ZM256.031 491.952C256.031 492.176 254.575 492.288 251.663 492.288C248.751 492.224 247.295 492.096 247.295 491.904V475.968H245.999C245.487 475.968 245.071 475.664 244.751 475.056C244.463 474.416 244.319 473.632 244.319 472.704C244.319 469.248 245.343 467.52 247.391 467.52C248.831 467.52 250.031 467.968 250.991 468.864C251.951 469.728 252.431 470.72 252.431 471.84C253.103 470.528 253.999 469.488 255.119 468.72C256.271 467.92 257.439 467.52 258.623 467.52C260.479 467.52 261.599 468 261.983 468.96C262.079 469.216 262.127 469.6 262.127 470.112C262.127 470.592 261.967 471.472 261.647 472.752C261.359 474.032 261.055 474.96 260.735 475.536C260.415 476.112 260.223 476.4 260.159 476.4C260.095 476.4 259.791 476.288 259.247 476.064C258.735 475.808 258.271 475.68 257.855 475.68C256.639 475.68 256.031 476.64 256.031 478.56V491.952ZM282.695 490.704C280.679 491.888 278.087 492.48 274.919 492.48C271.751 492.48 269.079 491.408 266.903 489.264C264.727 487.088 263.639 484.096 263.639 480.288C263.639 476.448 264.679 473.36 266.759 471.024C268.871 468.688 271.527 467.52 274.727 467.52C277.927 467.52 280.391 468.336 282.119 469.968C283.879 471.6 284.759 473.584 284.759 475.92C284.759 481.104 281.783 483.696 275.831 483.696H272.519C272.519 484.656 272.775 485.328 273.287 485.712C273.831 486.064 274.615 486.24 275.639 486.24C277.879 486.24 280.007 485.728 282.023 484.704C282.055 484.672 282.199 484.896 282.455 485.376C283.223 486.752 283.607 487.92 283.607 488.88C283.607 489.808 283.303 490.416 282.695 490.704ZM276.695 476.832C276.695 475.488 276.039 474.816 274.727 474.816C274.119 474.816 273.591 475.008 273.143 475.392C272.727 475.744 272.519 476.272 272.519 476.976V478.464H275.111C276.167 478.464 276.695 477.92 276.695 476.832ZM288.902 483.36C291.494 484.928 293.542 485.712 295.046 485.712C296.006 485.712 296.486 485.376 296.486 484.704C296.486 484.224 295.654 483.6 293.99 482.832C289.99 481.2 287.99 478.528 287.99 474.816C287.99 472.448 288.854 470.64 290.582 469.392C292.31 468.144 294.374 467.52 296.774 467.52C299.206 467.52 301.254 467.776 302.918 468.288C304.614 468.8 305.462 469.472 305.462 470.304C305.462 471.008 305.11 471.936 304.406 473.088C303.734 474.24 303.27 474.864 303.014 474.96C301.638 474.192 300.15 473.808 298.55 473.808C297.686 473.808 297.254 474.112 297.254 474.72C297.254 475.104 297.414 475.44 297.734 475.728C298.086 475.984 298.71 476.32 299.606 476.736C300.502 477.12 301.238 477.472 301.814 477.792C302.422 478.112 303.094 478.56 303.83 479.136C305.366 480.352 306.134 481.936 306.134 483.888C306.134 486.448 305.286 488.528 303.59 490.128C301.894 491.696 299.334 492.48 295.91 492.48C293.638 492.48 291.574 492.096 289.718 491.328C287.862 490.56 286.934 489.504 286.934 488.16C286.934 487.264 287.142 486.32 287.558 485.328C288.006 484.336 288.454 483.68 288.902 483.36ZM327.648 490.704C325.632 491.888 323.04 492.48 319.872 492.48C316.704 492.48 314.032 491.408 311.856 489.264C309.68 487.088 308.592 484.096 308.592 480.288C308.592 476.448 309.632 473.36 311.712 471.024C313.824 468.688 316.48 467.52 319.68 467.52C322.88 467.52 325.344 468.336 327.072 469.968C328.832 471.6 329.712 473.584 329.712 475.92C329.712 481.104 326.736 483.696 320.784 483.696H317.472C317.472 484.656 317.728 485.328 318.24 485.712C318.784 486.064 319.568 486.24 320.592 486.24C322.832 486.24 324.96 485.728 326.976 484.704C327.008 484.672 327.152 484.896 327.408 485.376C328.176 486.752 328.56 487.92 328.56 488.88C328.56 489.808 328.256 490.416 327.648 490.704ZM321.648 476.832C321.648 475.488 320.992 474.816 319.68 474.816C319.072 474.816 318.544 475.008 318.096 475.392C317.68 475.744 317.472 476.272 317.472 476.976V478.464H320.064C321.12 478.464 321.648 477.92 321.648 476.832ZM341.632 491.712C341.632 491.968 340.16 492.096 337.216 492.096C334.304 492.096 332.848 491.984 332.848 491.76V468.192C332.848 467.968 334.304 467.856 337.216 467.856C340.16 467.856 341.632 467.952 341.632 468.144V491.712ZM341.632 465.312C341.632 465.536 340.16 465.648 337.216 465.648C334.304 465.648 332.848 465.552 332.848 465.36V458.448C332.848 458.128 334.304 457.968 337.216 457.968C340.16 457.968 341.632 458.064 341.632 458.256V465.312ZM354.709 491.616C354.709 491.904 353.077 492.048 349.812 492.048C347.253 492.016 345.973 491.888 345.973 491.664V458.976C345.973 458.496 347.525 458.256 350.629 458.256C353.349 458.352 354.709 458.512 354.709 458.736V491.616ZM134.576 582.096C131.664 582.096 130.208 581.776 130.208 581.136V550.032C130.208 548.944 130.704 548.4 131.696 548.4H140.144C144.88 548.4 148.288 549.376 150.368 551.328C152.48 553.28 153.536 556.112 153.536 559.824C153.536 562.896 152.544 565.712 150.56 568.272C149.568 569.552 148.112 570.576 146.192 571.344C144.272 572.112 142.032 572.496 139.472 572.496V581.088C139.472 581.472 138.864 581.744 137.648 581.904C136.464 582.032 135.44 582.096 134.576 582.096ZM139.472 556.752V564.336H140.096C141.216 564.336 142.16 563.984 142.928 563.28C143.696 562.576 144.08 561.584 144.08 560.304C144.08 559.024 143.808 558.112 143.264 557.568C142.752 557.024 141.824 556.752 140.48 556.752H139.472ZM168.047 581.952C168.047 582.176 166.591 582.288 163.679 582.288C160.767 582.224 159.311 582.096 159.311 581.904V565.968H158.015C157.503 565.968 157.087 565.664 156.767 565.056C156.479 564.416 156.335 563.632 156.335 562.704C156.335 559.248 157.359 557.52 159.407 557.52C160.847 557.52 162.047 557.968 163.007 558.864C163.967 559.728 164.447 560.72 164.447 561.84C165.119 560.528 166.015 559.488 167.135 558.72C168.287 557.92 169.455 557.52 170.639 557.52C172.495 557.52 173.615 558 173.999 558.96C174.095 559.216 174.143 559.6 174.143 560.112C174.143 560.592 173.983 561.472 173.663 562.752C173.375 564.032 173.071 564.96 172.751 565.536C172.431 566.112 172.239 566.4 172.175 566.4C172.111 566.4 171.807 566.288 171.263 566.064C170.751 565.808 170.287 565.68 169.871 565.68C168.655 565.68 168.047 566.64 168.047 568.56V581.952ZM185.35 581.712C185.35 581.968 183.878 582.096 180.934 582.096C178.022 582.096 176.566 581.984 176.566 581.76V558.192C176.566 557.968 178.022 557.856 180.934 557.856C183.878 557.856 185.35 557.952 185.35 558.144V581.712ZM185.35 555.312C185.35 555.536 183.878 555.648 180.934 555.648C178.022 555.648 176.566 555.552 176.566 555.36V548.448C176.566 548.128 178.022 547.968 180.934 547.968C183.878 547.968 185.35 548.064 185.35 548.256V555.312ZM187.819 558.144C187.723 557.888 189.211 557.76 192.283 557.76C195.387 557.76 196.939 557.84 196.939 558L200.395 574.32L202.987 558.24C203.083 557.952 204.667 557.808 207.739 557.808C210.843 557.808 212.347 557.936 212.251 558.192L205.483 581.664C205.259 581.984 203.355 582.144 199.771 582.144C196.187 582.144 194.267 581.904 194.011 581.424L187.819 558.144ZM217.747 564.576C216.851 562.976 216.403 561.68 216.403 560.688C216.403 559.664 216.675 559.008 217.219 558.72C219.043 557.92 221.539 557.52 224.707 557.52C227.907 557.52 230.163 558.272 231.475 559.776C232.787 561.248 233.443 563.44 233.443 566.352V573.936H235.075C235.619 573.936 236.035 574.256 236.323 574.896C236.643 575.536 236.802 576.416 236.802 577.536C236.802 578.656 236.515 579.76 235.939 580.848C235.395 581.936 234.643 582.48 233.683 582.48C231.955 582.48 230.563 582.016 229.507 581.088C229.027 580.704 228.659 580.24 228.403 579.696C226.931 581.552 224.643 582.48 221.539 582.48C219.203 582.48 217.235 581.648 215.635 579.984C214.035 578.32 213.235 576.352 213.235 574.08C213.235 568.864 216.355 566.256 222.595 566.256H225.234V565.776C225.234 564.944 225.091 564.416 224.803 564.192C224.547 563.936 223.923 563.808 222.931 563.808C221.715 563.808 219.987 564.064 217.747 564.576ZM221.587 573.408C221.587 574.112 221.779 574.656 222.163 575.04C222.547 575.392 223.027 575.568 223.603 575.568C224.211 575.568 224.755 575.328 225.234 574.848V571.152H223.891C222.355 571.152 221.587 571.904 221.587 573.408ZM250.559 581.712C250.559 582.096 249.215 582.288 246.527 582.288C243.327 582.16 241.727 581.952 241.727 581.664V564.672H239.279C238.639 564.672 238.319 563.568 238.319 561.36C238.319 560.784 238.367 560.08 238.463 559.248C238.591 558.416 238.831 558 239.183 558H241.727V553.776C241.727 553.136 243.071 552.816 245.759 552.816C248.479 552.816 249.839 553.072 249.839 553.584V556.656L249.887 558H253.967C254.511 558 254.783 559.12 254.783 561.36C254.783 563.6 254.511 564.72 253.967 564.72H250.559V581.712ZM276.558 590.736C276.558 590.96 275.182 591.072 272.43 591.072C269.71 591.072 268.35 590.96 268.35 590.736V566.016H266.718C265.95 566.016 265.422 565.312 265.134 563.904C265.038 563.456 264.99 562.88 264.99 562.176C264.99 561.472 265.214 560.64 265.662 559.68C266.302 558.272 267.326 557.568 268.734 557.568C269.662 557.568 270.51 557.792 271.278 558.24C272.078 558.656 272.622 559.056 272.91 559.44C273.23 559.792 273.39 560 273.39 560.064C275.534 558.4 277.854 557.568 280.35 557.568C282.846 557.568 284.99 558.544 286.782 560.496C288.574 562.416 289.47 565.408 289.47 569.472C289.47 573.504 288.574 576.64 286.782 578.88C284.99 581.088 282.718 582.192 279.966 582.192C278.718 582.192 277.582 582.128 276.558 582V590.736ZM278.526 565.968C277.982 565.968 277.454 566.144 276.942 566.496V574.992C277.486 575.056 277.918 575.088 278.238 575.088C278.59 575.088 278.862 575.088 279.054 575.088C280.366 574.96 281.022 573.28 281.022 570.048C281.022 567.328 280.19 565.968 278.526 565.968ZM303.375 581.952C303.375 582.176 301.919 582.288 299.007 582.288C296.095 582.224 294.639 582.096 294.639 581.904V565.968H293.343C292.831 565.968 292.415 565.664 292.095 565.056C291.807 564.416 291.663 563.632 291.663 562.704C291.663 559.248 292.687 557.52 294.735 557.52C296.175 557.52 297.375 557.968 298.335 558.864C299.295 559.728 299.775 560.72 299.775 561.84C300.447 560.528 301.343 559.488 302.463 558.72C303.615 557.92 304.783 557.52 305.967 557.52C307.823 557.52 308.943 558 309.327 558.96C309.423 559.216 309.471 559.6 309.471 560.112C309.471 560.592 309.311 561.472 308.991 562.752C308.703 564.032 308.399 564.96 308.079 565.536C307.759 566.112 307.567 566.4 307.503 566.4C307.439 566.4 307.135 566.288 306.591 566.064C306.079 565.808 305.615 565.68 305.199 565.68C303.983 565.68 303.375 566.64 303.375 568.56V581.952ZM330.038 580.704C328.022 581.888 325.43 582.48 322.262 582.48C319.094 582.48 316.422 581.408 314.246 579.264C312.07 577.088 310.982 574.096 310.982 570.288C310.982 566.448 312.022 563.36 314.102 561.024C316.214 558.688 318.87 557.52 322.07 557.52C325.27 557.52 327.734 558.336 329.462 559.968C331.222 561.6 332.102 563.584 332.102 565.92C332.102 571.104 329.126 573.696 323.174 573.696H319.862C319.862 574.656 320.118 575.328 320.63 575.712C321.174 576.064 321.958 576.24 322.982 576.24C325.222 576.24 327.35 575.728 329.366 574.704C329.398 574.672 329.542 574.896 329.798 575.376C330.566 576.752 330.95 577.92 330.95 578.88C330.95 579.808 330.646 580.416 330.038 580.704ZM324.038 566.832C324.038 565.488 323.382 564.816 322.07 564.816C321.462 564.816 320.934 565.008 320.486 565.392C320.07 565.744 319.862 566.272 319.862 566.976V568.464H322.454C323.51 568.464 324.038 567.92 324.038 566.832ZM336.246 573.36C338.838 574.928 340.886 575.712 342.39 575.712C343.35 575.712 343.83 575.376 343.83 574.704C343.83 574.224 342.998 573.6 341.334 572.832C337.334 571.2 335.334 568.528 335.334 564.816C335.334 562.448 336.198 560.64 337.926 559.392C339.654 558.144 341.718 557.52 344.118 557.52C346.55 557.52 348.598 557.776 350.262 558.288C351.958 558.8 352.806 559.472 352.806 560.304C352.806 561.008 352.454 561.936 351.75 563.088C351.078 564.24 350.614 564.864 350.358 564.96C348.982 564.192 347.494 563.808 345.894 563.808C345.03 563.808 344.598 564.112 344.598 564.72C344.598 565.104 344.758 565.44 345.078 565.728C345.43 565.984 346.054 566.32 346.95 566.736C347.846 567.12 348.582 567.472 349.158 567.792C349.766 568.112 350.438 568.56 351.174 569.136C352.71 570.352 353.478 571.936 353.478 573.888C353.478 576.448 352.63 578.528 350.934 580.128C349.238 581.696 346.678 582.48 343.254 582.48C340.982 582.48 338.918 582.096 337.062 581.328C335.206 580.56 334.278 579.504 334.278 578.16C334.278 577.264 334.486 576.32 334.902 575.328C335.35 574.336 335.798 573.68 336.246 573.36ZM374.992 580.704C372.976 581.888 370.384 582.48 367.216 582.48C364.048 582.48 361.376 581.408 359.2 579.264C357.024 577.088 355.936 574.096 355.936 570.288C355.936 566.448 356.976 563.36 359.056 561.024C361.168 558.688 363.824 557.52 367.023 557.52C370.224 557.52 372.688 558.336 374.416 559.968C376.176 561.6 377.056 563.584 377.056 565.92C377.056 571.104 374.08 573.696 368.128 573.696H364.816C364.816 574.656 365.072 575.328 365.584 575.712C366.128 576.064 366.912 576.24 367.936 576.24C370.176 576.24 372.304 575.728 374.32 574.704C374.352 574.672 374.496 574.896 374.752 575.376C375.52 576.752 375.904 577.92 375.904 578.88C375.904 579.808 375.6 580.416 374.992 580.704ZM368.992 566.832C368.992 565.488 368.336 564.816 367.023 564.816C366.416 564.816 365.888 565.008 365.44 565.392C365.024 565.744 364.816 566.272 364.816 566.976V568.464H367.408C368.464 568.464 368.992 567.92 368.992 566.832ZM388.975 581.712C388.975 581.968 387.503 582.096 384.559 582.096C381.647 582.096 380.191 581.984 380.191 581.76V558.192C380.191 557.968 381.647 557.856 384.559 557.856C387.503 557.856 388.975 557.952 388.975 558.144V581.712ZM388.975 555.312C388.975 555.536 387.503 555.648 384.559 555.648C381.647 555.648 380.191 555.552 380.191 555.36V548.448C380.191 548.128 381.647 547.968 384.559 547.968C387.503 547.968 388.975 548.064 388.975 548.256V555.312ZM402.052 581.616C402.052 581.904 400.42 582.048 397.156 582.048C394.596 582.016 393.316 581.888 393.316 581.664V548.976C393.316 548.496 394.868 548.256 397.972 548.256C400.692 548.352 402.052 548.512 402.052 548.736V581.616ZM153.968 647.088C153.968 650.416 152.528 652.944 149.648 654.672C151.216 655.248 152.528 656.24 153.584 657.648C154.64 659.056 155.168 661.056 155.168 663.648C155.168 666.208 154.208 668.24 152.288 669.744C150.4 671.248 147.68 672 144.128 672H132.8C132.256 672 131.808 671.824 131.456 671.472C131.104 671.088 130.928 670.592 130.928 669.984V639.264C130.928 638.912 130.976 638.688 131.072 638.592C131.2 638.464 131.44 638.4 131.792 638.4H142.736C150.224 638.4 153.968 641.296 153.968 647.088ZM140.144 646.176V652.464H140.384C143.456 652.464 144.992 651.44 144.992 649.392C144.992 648.272 144.688 647.456 144.08 646.944C143.504 646.432 142.528 646.176 141.152 646.176H140.144ZM140.144 658.128V664.368H141.008C142.384 664.368 143.392 664.112 144.032 663.6C144.672 663.088 144.992 662.272 144.992 661.152C144.992 660.032 144.688 659.248 144.08 658.8C143.504 658.352 142.528 658.128 141.152 658.128H140.144ZM158.42 648.288C158.42 647.936 159.796 647.76 162.548 647.76C165.3 647.76 166.676 647.936 166.676 648.288V662.304C166.676 663.904 167.188 664.704 168.212 664.704C168.98 664.704 169.844 664.368 170.804 663.696V648.288C170.804 647.968 172.164 647.808 174.884 647.808C177.604 647.808 178.964 647.968 178.964 648.288V664.032H180.212C181.3 664.032 181.844 665.072 181.844 667.152C181.844 668.208 181.62 669.28 181.172 670.368C180.532 671.776 179.668 672.48 178.58 672.48C176.436 672.48 174.852 671.6 173.828 669.84L173.78 669.888C171.828 671.616 169.732 672.48 167.492 672.48C164.388 672.48 162.1 671.712 160.628 670.176C159.156 668.608 158.42 666.032 158.42 662.448V648.288ZM193.553 671.712C193.553 671.968 192.081 672.096 189.137 672.096C186.225 672.096 184.769 671.984 184.769 671.76V648.192C184.769 647.968 186.225 647.856 189.137 647.856C192.081 647.856 193.553 647.952 193.553 648.144V671.712ZM193.553 645.312C193.553 645.536 192.081 645.648 189.137 645.648C186.225 645.648 184.769 645.552 184.769 645.36V638.448C184.769 638.128 186.225 637.968 189.137 637.968C192.081 637.968 193.553 638.064 193.553 638.256V645.312ZM206.63 671.616C206.63 671.904 204.998 672.048 201.734 672.048C199.174 672.016 197.894 671.888 197.894 671.664V638.976C197.894 638.496 199.446 638.256 202.55 638.256C205.27 638.352 206.63 638.512 206.63 638.736V671.616ZM223.117 638.688C223.117 638.208 224.381 637.968 226.909 637.968C227.773 637.968 228.765 638.032 229.885 638.16C231.037 638.256 231.613 638.4 231.613 638.592V663.888H233.293C234.093 663.888 234.621 664.608 234.877 666.048C234.941 666.464 234.973 667.04 234.973 667.776C234.973 668.48 234.749 669.344 234.301 670.368C233.661 671.776 232.637 672.48 231.229 672.48C230.173 672.48 229.229 672.272 228.397 671.856C227.597 671.44 227.053 671.008 226.765 670.56L226.333 669.936C224.573 671.632 222.365 672.48 219.709 672.48C217.053 672.48 214.781 671.376 212.893 669.168C211.005 666.96 210.061 663.888 210.061 659.952C210.061 655.984 211.053 652.928 213.037 650.784C215.021 648.608 217.501 647.52 220.477 647.52C221.341 647.52 222.221 647.616 223.117 647.808V638.688ZM221.533 655.2C219.741 655.2 218.845 656.816 218.845 660.048C218.845 661.68 219.101 662.864 219.613 663.6C220.125 664.304 220.685 664.656 221.293 664.656C221.933 664.656 222.541 664.384 223.117 663.84V655.68C222.573 655.36 222.045 655.2 221.533 655.2ZM246.897 671.712C246.897 671.968 245.425 672.096 242.481 672.096C239.569 672.096 238.113 671.984 238.113 671.76V648.192C238.113 647.968 239.569 647.856 242.481 647.856C245.425 647.856 246.897 647.952 246.897 648.144V671.712ZM246.897 645.312C246.897 645.536 245.425 645.648 242.481 645.648C239.569 645.648 238.113 645.552 238.113 645.36V638.448C238.113 638.128 239.569 637.968 242.481 637.968C245.425 637.968 246.897 638.064 246.897 638.256V645.312ZM261.27 671.712C261.27 671.936 260.118 672.048 257.814 672.048C254.614 671.952 253.014 671.776 253.014 671.52V655.968H251.766C250.934 655.968 250.39 655.264 250.134 653.856C250.07 653.44 250.038 653.024 250.038 652.608C250.038 651.616 250.23 650.624 250.614 649.632C251.19 648.224 252.086 647.52 253.302 647.52C254.518 647.52 255.606 647.808 256.566 648.384C257.526 648.96 258.166 649.536 258.486 650.112C260.502 648.384 262.902 647.52 265.686 647.52C268.47 647.52 270.486 648.272 271.734 649.776C272.982 651.28 273.606 653.744 273.606 657.168V671.568C273.606 671.952 272.23 672.144 269.478 672.144C266.758 672.144 265.398 671.952 265.398 671.568V657.696C265.398 656.096 264.838 655.296 263.718 655.296C263.398 655.296 262.95 655.44 262.374 655.728C261.798 655.984 261.43 656.176 261.27 656.304V671.712ZM286.508 672C283.404 672 281.004 671.008 279.308 669.024C277.612 667.008 276.764 664.048 276.764 660.144C276.764 656.208 277.868 653.136 280.076 650.928C282.316 648.688 285.276 647.568 288.956 647.568C292.668 647.568 295.724 648.384 298.124 650.016V673.92C298.124 676.288 297.164 678.096 295.244 679.344C293.324 680.624 290.86 681.264 287.852 681.264C284.844 681.264 282.156 680.88 279.788 680.112C279.468 679.344 279.308 678.656 279.308 678.048C279.308 676 279.644 674.496 280.316 673.536C282.46 674.464 284.748 674.928 287.18 674.928C288.94 674.928 289.82 674.304 289.82 673.056V671.616C288.444 671.872 287.34 672 286.508 672ZM288.716 655.392C286.572 655.392 285.5 657.008 285.5 660.24C285.5 662.256 285.916 663.568 286.748 664.176C287.292 664.592 287.836 664.8 288.38 664.8C288.924 664.8 289.404 664.752 289.82 664.656V655.536C289.436 655.44 289.068 655.392 288.716 655.392ZM319.345 660.096C319.345 663.232 320.529 664.8 322.897 664.8C324.433 664.8 325.713 664.496 326.737 663.888C327.217 663.888 327.601 664.72 327.889 666.384C328.209 668.016 328.369 669.136 328.369 669.744C328.369 670.32 328.289 670.704 328.129 670.896C326.433 671.952 324.113 672.48 321.169 672.48C318.225 672.48 315.713 671.392 313.633 669.216C311.585 667.008 310.561 664.016 310.561 660.24C310.561 656.432 311.569 653.36 313.585 651.024C315.633 648.688 318.337 647.52 321.697 647.52C325.089 647.52 327.441 648.336 328.753 649.968C329.041 650.32 329.185 650.848 329.185 651.552C329.185 652.224 329.057 653.056 328.801 654.048C328.225 656.096 327.473 657.28 326.545 657.6C326.417 657.632 326.225 657.648 325.969 657.648C325.745 657.648 325.457 657.456 325.105 657.072C323.857 655.824 322.849 655.2 322.081 655.2C321.345 655.2 320.705 655.584 320.161 656.352C319.617 657.12 319.345 658.368 319.345 660.096ZM333.88 669.168C331.896 666.96 330.904 663.904 330.904 660C330.904 656.096 331.896 653.04 333.88 650.832C335.896 648.624 338.6 647.52 341.992 647.52C345.384 647.52 348.072 648.624 350.056 650.832C352.04 653.04 353.032 656.096 353.032 660C353.032 663.904 352.04 666.96 350.056 669.168C348.072 671.376 345.384 672.48 341.992 672.48C338.6 672.48 335.896 671.376 333.88 669.168ZM341.992 655.536C340.2 655.536 339.304 657.008 339.304 659.952C339.304 662.896 340.2 664.368 341.992 664.368C343.816 664.368 344.728 662.896 344.728 659.952C344.728 657.008 343.816 655.536 341.992 655.536ZM378.17 671.76C378.17 671.984 376.794 672.096 374.042 672.096C371.322 672.096 369.962 671.952 369.962 671.664V657.696C369.962 656.096 369.434 655.296 368.378 655.296C367.834 655.296 367.114 655.648 366.218 656.352V671.712C366.218 672.032 364.842 672.192 362.09 672.192C359.37 672.192 358.01 672.016 358.01 671.664V655.968H356.81C355.754 655.968 355.226 654.864 355.226 652.656C355.226 651.664 355.418 650.656 355.802 649.632C356.314 648.224 357.146 647.52 358.298 647.52C359.45 647.52 360.554 647.824 361.61 648.432C362.698 649.04 363.354 649.616 363.578 650.16C365.562 648.4 367.754 647.52 370.154 647.52C372.586 647.52 374.538 648.272 376.01 649.776C377.738 648.272 379.818 647.52 382.25 647.52C387.53 647.52 390.17 650.736 390.17 657.168V671.76C390.17 671.984 388.794 672.096 386.042 672.096C383.322 672.096 381.962 671.952 381.962 671.664V657.696C381.962 656.096 381.434 655.296 380.378 655.296C379.802 655.296 379.066 655.648 378.17 656.352V671.76ZM415.998 671.76C415.998 671.984 414.622 672.096 411.87 672.096C409.15 672.096 407.79 671.952 407.79 671.664V657.696C407.79 656.096 407.262 655.296 406.206 655.296C405.662 655.296 404.942 655.648 404.046 656.352V671.712C404.046 672.032 402.67 672.192 399.918 672.192C397.198 672.192 395.838 672.016 395.838 671.664V655.968H394.638C393.582 655.968 393.054 654.864 393.054 652.656C393.054 651.664 393.246 650.656 393.63 649.632C394.142 648.224 394.974 647.52 396.126 647.52C397.278 647.52 398.382 647.824 399.438 648.432C400.526 649.04 401.182 649.616 401.406 650.16C403.39 648.4 405.582 647.52 407.982 647.52C410.414 647.52 412.366 648.272 413.838 649.776C415.566 648.272 417.646 647.52 420.078 647.52C425.358 647.52 427.998 650.736 427.998 657.168V671.76C427.998 671.984 426.622 672.096 423.87 672.096C421.15 672.096 419.79 671.952 419.79 671.664V657.696C419.79 656.096 419.262 655.296 418.206 655.296C417.63 655.296 416.894 655.648 415.998 656.352V671.76ZM431.842 648.288C431.842 647.936 433.218 647.76 435.97 647.76C438.722 647.76 440.098 647.936 440.098 648.288V662.304C440.098 663.904 440.61 664.704 441.634 664.704C442.402 664.704 443.266 664.368 444.226 663.696V648.288C444.226 647.968 445.586 647.808 448.306 647.808C451.026 647.808 452.386 647.968 452.386 648.288V664.032H453.634C454.722 664.032 455.266 665.072 455.266 667.152C455.266 668.208 455.042 669.28 454.594 670.368C453.954 671.776 453.09 672.48 452.002 672.48C449.858 672.48 448.274 671.6 447.25 669.84L447.202 669.888C445.25 671.616 443.154 672.48 440.914 672.48C437.81 672.48 435.522 671.712 434.05 670.176C432.578 668.608 431.842 666.032 431.842 662.448V648.288ZM468.223 671.712C468.223 671.936 467.071 672.048 464.767 672.048C461.567 671.952 459.967 671.776 459.967 671.52V655.968H458.719C457.887 655.968 457.343 655.264 457.087 653.856C457.023 653.44 456.991 653.024 456.991 652.608C456.991 651.616 457.183 650.624 457.567 649.632C458.143 648.224 459.039 647.52 460.255 647.52C461.471 647.52 462.559 647.808 463.519 648.384C464.479 648.96 465.119 649.536 465.439 650.112C467.455 648.384 469.855 647.52 472.639 647.52C475.423 647.52 477.439 648.272 478.687 649.776C479.935 651.28 480.559 653.744 480.559 657.168V671.568C480.559 671.952 479.183 672.144 476.431 672.144C473.711 672.144 472.351 671.952 472.351 671.568V657.696C472.351 656.096 471.791 655.296 470.671 655.296C470.351 655.296 469.903 655.44 469.327 655.728C468.751 655.984 468.383 656.176 468.223 656.304V671.712ZM493.413 671.712C493.413 671.968 491.941 672.096 488.997 672.096C486.085 672.096 484.629 671.984 484.629 671.76V648.192C484.629 647.968 486.085 647.856 488.997 647.856C491.941 647.856 493.413 647.952 493.413 648.144V671.712ZM493.413 645.312C493.413 645.536 491.941 645.648 488.997 645.648C486.085 645.648 484.629 645.552 484.629 645.36V638.448C484.629 638.128 486.085 637.968 488.997 637.968C491.941 637.968 493.413 638.064 493.413 638.256V645.312ZM508.794 671.712C508.794 672.096 507.45 672.288 504.762 672.288C501.562 672.16 499.962 671.952 499.962 671.664V654.672H497.514C496.874 654.672 496.554 653.568 496.554 651.36C496.554 650.784 496.602 650.08 496.698 649.248C496.826 648.416 497.066 648 497.418 648H499.962V643.776C499.962 643.136 501.306 642.816 503.994 642.816C506.714 642.816 508.074 643.072 508.074 643.584V646.656L508.122 648H512.202C512.746 648 513.018 649.12 513.018 651.36C513.018 653.6 512.746 654.72 512.202 654.72H508.794V671.712ZM513.746 648.24C513.746 647.888 515.202 647.712 518.114 647.712C521.058 647.712 522.578 647.872 522.674 648.192L526.13 659.52L529.442 648.096C529.57 647.84 530.562 647.712 532.418 647.712C536.674 647.712 538.706 647.92 538.514 648.336L527.234 680.448C527.202 680.64 526.322 680.736 524.594 680.736C522.898 680.736 521.314 680.672 519.842 680.544C518.37 680.448 517.666 680.32 517.73 680.16L521.906 670.08L513.746 648.24Z" fill="white"/>
<path d="M1076.35 689.4C1076.9 689.4 1077.17 690.824 1077.17 693.672C1077.17 696.488 1076.9 697.896 1076.35 697.896H1067.57V703.368H1073.42C1073.97 703.368 1074.24 704.616 1074.24 707.112C1074.24 709.576 1073.98 710.808 1073.47 710.808H1067.57V722.376C1067.57 722.824 1066.96 723.112 1065.74 723.24C1064.56 723.4 1063.57 723.48 1062.77 723.48L1060.51 723.384C1058.94 723.192 1058.16 722.872 1058.16 722.424V690.648C1058.16 690.136 1058.26 689.8 1058.45 689.64C1058.67 689.48 1058.99 689.4 1059.41 689.4H1076.35ZM1082.14 705.576C1081.24 703.976 1080.79 702.68 1080.79 701.688C1080.79 700.664 1081.07 700.008 1081.61 699.72C1083.43 698.92 1085.93 698.52 1089.1 698.52C1092.3 698.52 1094.55 699.272 1095.87 700.776C1097.18 702.248 1097.83 704.44 1097.83 707.352V714.936H1099.47C1100.01 714.936 1100.43 715.256 1100.71 715.896C1101.03 716.536 1101.19 717.416 1101.19 718.536C1101.19 719.656 1100.91 720.76 1100.33 721.848C1099.79 722.936 1099.03 723.48 1098.07 723.48C1096.35 723.48 1094.95 723.016 1093.9 722.088C1093.42 721.704 1093.05 721.24 1092.79 720.696C1091.32 722.552 1089.03 723.48 1085.93 723.48C1083.59 723.48 1081.63 722.648 1080.03 720.984C1078.43 719.32 1077.63 717.352 1077.63 715.08C1077.63 709.864 1080.75 707.256 1086.99 707.256H1089.63V706.776C1089.63 705.944 1089.48 705.416 1089.19 705.192C1088.94 704.936 1088.31 704.808 1087.32 704.808C1086.11 704.808 1084.38 705.064 1082.14 705.576ZM1085.98 714.408C1085.98 715.112 1086.17 715.656 1086.55 716.04C1086.94 716.392 1087.42 716.568 1087.99 716.568C1088.6 716.568 1089.15 716.328 1089.63 715.848V712.152H1088.28C1086.75 712.152 1085.98 712.904 1085.98 714.408ZM1112.69 722.712C1112.69 722.968 1111.22 723.096 1108.28 723.096C1105.37 723.096 1103.91 722.984 1103.91 722.76V699.192C1103.91 698.968 1105.37 698.856 1108.28 698.856C1111.22 698.856 1112.69 698.952 1112.69 699.144V722.712ZM1112.69 696.312C1112.69 696.536 1111.22 696.648 1108.28 696.648C1105.37 696.648 1103.91 696.552 1103.91 696.36V689.448C1103.91 689.128 1105.37 688.968 1108.28 688.968C1111.22 688.968 1112.69 689.064 1112.69 689.256V696.312ZM1125.77 722.616C1125.77 722.904 1124.14 723.048 1120.88 723.048C1118.32 723.016 1117.04 722.888 1117.04 722.664V689.976C1117.04 689.496 1118.59 689.256 1121.69 689.256C1124.41 689.352 1125.77 689.512 1125.77 689.736V722.616ZM1140.63 722.952C1140.63 723.176 1139.17 723.288 1136.26 723.288C1133.35 723.224 1131.89 723.096 1131.89 722.904V706.968H1130.59C1130.08 706.968 1129.67 706.664 1129.35 706.056C1129.06 705.416 1128.91 704.632 1128.91 703.704C1128.91 700.248 1129.94 698.52 1131.99 698.52C1133.43 698.52 1134.63 698.968 1135.59 699.864C1136.55 700.728 1137.03 701.72 1137.03 702.84C1137.7 701.528 1138.59 700.488 1139.71 699.72C1140.87 698.92 1142.03 698.52 1143.22 698.52C1145.07 698.52 1146.19 699 1146.58 699.96C1146.67 700.216 1146.72 700.6 1146.72 701.112C1146.72 701.592 1146.56 702.472 1146.24 703.752C1145.95 705.032 1145.65 705.96 1145.33 706.536C1145.01 707.112 1144.82 707.4 1144.75 707.4C1144.69 707.4 1144.39 707.288 1143.84 707.064C1143.33 706.808 1142.87 706.68 1142.45 706.68C1141.23 706.68 1140.63 707.64 1140.63 709.56V722.952ZM1157.88 722.616C1157.88 722.904 1156.25 723.048 1152.98 723.048C1150.42 723.016 1149.14 722.888 1149.14 722.664V689.976C1149.14 689.496 1150.7 689.256 1153.8 689.256C1156.52 689.352 1157.88 689.512 1157.88 689.736V722.616ZM1164.29 720.168C1162.3 717.96 1161.31 714.904 1161.31 711C1161.31 707.096 1162.3 704.04 1164.29 701.832C1166.3 699.624 1169.01 698.52 1172.4 698.52C1175.79 698.52 1178.48 699.624 1180.46 701.832C1182.45 704.04 1183.44 707.096 1183.44 711C1183.44 714.904 1182.45 717.96 1180.46 720.168C1178.48 722.376 1175.79 723.48 1172.4 723.48C1169.01 723.48 1166.3 722.376 1164.29 720.168ZM1172.4 706.536C1170.61 706.536 1169.71 708.008 1169.71 710.952C1169.71 713.896 1170.61 715.368 1172.4 715.368C1174.22 715.368 1175.13 713.896 1175.13 710.952C1175.13 708.008 1174.22 706.536 1172.4 706.536ZM1196.86 722.712C1196.86 722.936 1195.71 723.048 1193.41 723.048C1190.21 722.952 1188.61 722.776 1188.61 722.52V706.968H1187.36C1186.53 706.968 1185.98 706.264 1185.73 704.856C1185.66 704.44 1185.63 704.024 1185.63 703.608C1185.63 702.616 1185.82 701.624 1186.21 700.632C1186.78 699.224 1187.68 698.52 1188.9 698.52C1190.11 698.52 1191.2 698.808 1192.16 699.384C1193.12 699.96 1193.76 700.536 1194.08 701.112C1196.1 699.384 1198.5 698.52 1201.28 698.52C1204.06 698.52 1206.08 699.272 1207.33 700.776C1208.58 702.28 1209.2 704.744 1209.2 708.168V722.568C1209.2 722.952 1207.82 723.144 1205.07 723.144C1202.35 723.144 1200.99 722.952 1200.99 722.568V708.696C1200.99 707.096 1200.43 706.296 1199.31 706.296C1198.99 706.296 1198.54 706.44 1197.97 706.728C1197.39 706.984 1197.02 707.176 1196.86 707.304V722.712ZM1221.14 711.096C1221.14 714.232 1222.33 715.8 1224.69 715.8C1226.23 715.8 1227.51 715.496 1228.53 714.888C1229.01 714.888 1229.4 715.72 1229.69 717.384C1230.01 719.016 1230.17 720.136 1230.17 720.744C1230.17 721.32 1230.09 721.704 1229.93 721.896C1228.23 722.952 1225.91 723.48 1222.97 723.48C1220.02 723.48 1217.51 722.392 1215.43 720.216C1213.38 718.008 1212.36 715.016 1212.36 711.24C1212.36 707.432 1213.37 704.36 1215.38 702.024C1217.43 699.688 1220.13 698.52 1223.49 698.52C1226.89 698.52 1229.24 699.336 1230.55 700.968C1230.84 701.32 1230.98 701.848 1230.98 702.552C1230.98 703.224 1230.85 704.056 1230.6 705.048C1230.02 707.096 1229.27 708.28 1228.34 708.6C1228.21 708.632 1228.02 708.648 1227.77 708.648C1227.54 708.648 1227.25 708.456 1226.9 708.072C1225.65 706.824 1224.65 706.2 1223.88 706.2C1223.14 706.2 1222.5 706.584 1221.96 707.352C1221.41 708.12 1221.14 709.368 1221.14 711.096ZM1241.63 722.664C1241.63 722.952 1240.29 723.096 1237.6 723.096C1234.94 723.096 1233.61 722.872 1233.61 722.424V689.544C1233.61 689.32 1234.11 689.16 1235.1 689.064C1236.09 688.968 1236.93 688.92 1237.6 688.92C1240.29 688.92 1241.63 689.208 1241.63 689.784V699.384C1243.42 698.84 1244.78 698.568 1245.71 698.568C1248.14 698.568 1250.06 699.224 1251.47 700.536C1252.88 701.816 1253.58 704.216 1253.58 707.736V722.616C1253.58 722.904 1252.33 723.048 1249.84 723.048C1247.02 722.952 1245.61 722.792 1245.61 722.568V708.456C1245.61 706.888 1245.1 706.104 1244.08 706.104C1243.37 706.104 1242.56 706.44 1241.63 707.112V722.664ZM1057.92 810.168V780.312C1057.92 779.64 1059.54 779.304 1062.77 779.304C1066.03 779.304 1067.66 779.64 1067.66 780.312V803.832H1075.06C1075.63 803.832 1076.03 804.584 1076.26 806.088C1076.35 806.824 1076.4 807.576 1076.4 808.344C1076.4 809.112 1076.35 809.896 1076.26 810.696C1076 812.232 1075.58 813 1075.01 813H1060.22C1059.52 813 1058.96 812.712 1058.54 812.136C1058.13 811.56 1057.92 810.904 1057.92 810.168ZM1087.8 812.712C1087.8 812.968 1086.33 813.096 1083.39 813.096C1080.48 813.096 1079.02 812.984 1079.02 812.76V789.192C1079.02 788.968 1080.48 788.856 1083.39 788.856C1086.33 788.856 1087.8 788.952 1087.8 789.144V812.712ZM1087.8 786.312C1087.8 786.536 1086.33 786.648 1083.39 786.648C1080.48 786.648 1079.02 786.552 1079.02 786.36V779.448C1079.02 779.128 1080.48 778.968 1083.39 778.968C1086.33 778.968 1087.8 779.064 1087.8 779.256V786.312ZM1093.15 804.36C1095.74 805.928 1097.79 806.712 1099.3 806.712C1100.26 806.712 1100.74 806.376 1100.74 805.704C1100.74 805.224 1099.9 804.6 1098.24 803.832C1094.24 802.2 1092.24 799.528 1092.24 795.816C1092.24 793.448 1093.1 791.64 1094.83 790.392C1096.56 789.144 1098.62 788.52 1101.02 788.52C1103.46 788.52 1105.5 788.776 1107.17 789.288C1108.86 789.8 1109.71 790.472 1109.71 791.304C1109.71 792.008 1109.36 792.936 1108.66 794.088C1107.98 795.24 1107.52 795.864 1107.26 795.96C1105.89 795.192 1104.4 794.808 1102.8 794.808C1101.94 794.808 1101.5 795.112 1101.5 795.72C1101.5 796.104 1101.66 796.44 1101.98 796.728C1102.34 796.984 1102.96 797.32 1103.86 797.736C1104.75 798.12 1105.49 798.472 1106.06 798.792C1106.67 799.112 1107.34 799.56 1108.08 800.136C1109.62 801.352 1110.38 802.936 1110.38 804.888C1110.38 807.448 1109.54 809.528 1107.84 811.128C1106.14 812.696 1103.58 813.48 1100.16 813.48C1097.89 813.48 1095.82 813.096 1093.97 812.328C1092.11 811.56 1091.18 810.504 1091.18 809.16C1091.18 808.264 1091.39 807.32 1091.81 806.328C1092.26 805.336 1092.7 804.68 1093.15 804.36ZM1124.79 812.712C1124.79 813.096 1123.45 813.288 1120.76 813.288C1117.56 813.16 1115.96 812.952 1115.96 812.664V795.672H1113.51C1112.87 795.672 1112.55 794.568 1112.55 792.36C1112.55 791.784 1112.6 791.08 1112.7 790.248C1112.83 789.416 1113.07 789 1113.42 789H1115.96V784.776C1115.96 784.136 1117.31 783.816 1119.99 783.816C1122.71 783.816 1124.07 784.072 1124.07 784.584V787.656L1124.12 789H1128.2C1128.75 789 1129.02 790.12 1129.02 792.36C1129.02 794.6 1128.75 795.72 1128.2 795.72H1124.79V812.712ZM1149.57 811.704C1147.55 812.888 1144.96 813.48 1141.79 813.48C1138.63 813.48 1135.95 812.408 1133.78 810.264C1131.6 808.088 1130.51 805.096 1130.51 801.288C1130.51 797.448 1131.55 794.36 1133.63 792.024C1135.75 789.688 1138.4 788.52 1141.6 788.52C1144.8 788.52 1147.27 789.336 1148.99 790.968C1150.75 792.6 1151.63 794.584 1151.63 796.92C1151.63 802.104 1148.66 804.696 1142.71 804.696H1139.39C1139.39 805.656 1139.65 806.328 1140.16 806.712C1140.71 807.064 1141.49 807.24 1142.51 807.24C1144.75 807.24 1146.88 806.728 1148.9 805.704C1148.93 805.672 1149.07 805.896 1149.33 806.376C1150.1 807.752 1150.48 808.92 1150.48 809.88C1150.48 810.808 1150.18 811.416 1149.57 811.704ZM1143.57 797.832C1143.57 796.488 1142.91 795.816 1141.6 795.816C1140.99 795.816 1140.47 796.008 1140.02 796.392C1139.6 796.744 1139.39 797.272 1139.39 797.976V799.464H1141.99C1143.04 799.464 1143.57 798.92 1143.57 797.832ZM1164.8 812.712C1164.8 812.936 1163.65 813.048 1161.35 813.048C1158.15 812.952 1156.55 812.776 1156.55 812.52V796.968H1155.3C1154.47 796.968 1153.92 796.264 1153.67 794.856C1153.6 794.44 1153.57 794.024 1153.57 793.608C1153.57 792.616 1153.76 791.624 1154.15 790.632C1154.72 789.224 1155.62 788.52 1156.83 788.52C1158.05 788.52 1159.14 788.808 1160.1 789.384C1161.06 789.96 1161.7 790.536 1162.02 791.112C1164.03 789.384 1166.43 788.52 1169.22 788.52C1172 788.52 1174.02 789.272 1175.27 790.776C1176.51 792.28 1177.14 794.744 1177.14 798.168V812.568C1177.14 812.952 1175.76 813.144 1173.01 813.144C1170.29 813.144 1168.93 812.952 1168.93 812.568V798.696C1168.93 797.096 1168.37 796.296 1167.25 796.296C1166.93 796.296 1166.48 796.44 1165.91 796.728C1165.33 796.984 1164.96 797.176 1164.8 797.304V812.712ZM1190.04 813C1186.93 813 1184.53 812.008 1182.84 810.024C1181.14 808.008 1180.29 805.048 1180.29 801.144C1180.29 797.208 1181.4 794.136 1183.61 791.928C1185.85 789.688 1188.81 788.568 1192.49 788.568C1196.2 788.568 1199.25 789.384 1201.65 791.016V814.92C1201.65 817.288 1200.69 819.096 1198.77 820.344C1196.85 821.624 1194.39 822.264 1191.38 822.264C1188.37 822.264 1185.69 821.88 1183.32 821.112C1183 820.344 1182.84 819.656 1182.84 819.048C1182.84 817 1183.17 815.496 1183.85 814.536C1185.99 815.464 1188.28 815.928 1190.71 815.928C1192.47 815.928 1193.35 815.304 1193.35 814.056V812.616C1191.97 812.872 1190.87 813 1190.04 813ZM1192.25 796.392C1190.1 796.392 1189.03 798.008 1189.03 801.24C1189.03 803.256 1189.45 804.568 1190.28 805.176C1190.82 805.592 1191.37 805.8 1191.91 805.8C1192.45 805.8 1192.93 805.752 1193.35 805.656V796.536C1192.97 796.44 1192.6 796.392 1192.25 796.392ZM1217.07 810.168C1215.08 807.96 1214.09 804.904 1214.09 801C1214.09 797.096 1215.08 794.04 1217.07 791.832C1219.08 789.624 1221.79 788.52 1225.18 788.52C1228.57 788.52 1231.26 789.624 1233.24 791.832C1235.23 794.04 1236.22 797.096 1236.22 801C1236.22 804.904 1235.23 807.96 1233.24 810.168C1231.26 812.376 1228.57 813.48 1225.18 813.48C1221.79 813.48 1219.08 812.376 1217.07 810.168ZM1225.18 796.536C1223.39 796.536 1222.49 798.008 1222.49 800.952C1222.49 803.896 1223.39 805.368 1225.18 805.368C1227 805.368 1227.92 803.896 1227.92 800.952C1227.92 798.008 1227 796.536 1225.18 796.536ZM1249.65 812.712C1249.65 812.936 1248.49 813.048 1246.19 813.048C1242.99 812.952 1241.39 812.776 1241.39 812.52V796.968H1240.14C1239.31 796.968 1238.77 796.264 1238.51 794.856C1238.45 794.44 1238.41 794.024 1238.41 793.608C1238.41 792.616 1238.61 791.624 1238.99 790.632C1239.57 789.224 1240.46 788.52 1241.68 788.52C1242.89 788.52 1243.98 788.808 1244.94 789.384C1245.9 789.96 1246.54 790.536 1246.86 791.112C1248.88 789.384 1251.28 788.52 1254.06 788.52C1256.85 788.52 1258.86 789.272 1260.11 790.776C1261.36 792.28 1261.98 794.744 1261.98 798.168V812.568C1261.98 812.952 1260.61 813.144 1257.85 813.144C1255.13 813.144 1253.77 812.952 1253.77 812.568V798.696C1253.77 797.096 1253.21 796.296 1252.09 796.296C1251.77 796.296 1251.33 796.44 1250.75 796.728C1250.17 796.984 1249.81 797.176 1249.65 797.304V812.712ZM1275.34 810.792V781.992C1275.34 781.192 1275.53 780.568 1275.91 780.12C1276.33 779.64 1276.86 779.4 1277.5 779.4H1285.51C1290.6 779.4 1294.46 780.68 1297.08 783.24C1299.74 785.8 1301.07 789.832 1301.07 795.336C1301.07 807.112 1296.04 813 1285.99 813H1277.79C1276.15 813 1275.34 812.264 1275.34 810.792ZM1284.55 788.52V802.872C1284.55 803.544 1284.6 803.976 1284.7 804.168C1284.79 804.328 1285.08 804.408 1285.56 804.408C1287.32 804.408 1288.65 803.752 1289.55 802.44C1290.47 801.128 1290.94 798.952 1290.94 795.912C1290.94 792.84 1290.46 790.84 1289.5 789.912C1288.57 788.984 1287.08 788.52 1285.03 788.52H1284.55ZM1320.52 792.744C1321.12 792.744 1321.43 793.864 1321.43 796.104C1321.43 796.776 1321.35 797.576 1321.19 798.504C1321.06 799.4 1320.8 799.848 1320.42 799.848H1314.32V804.648H1323.16C1323.7 804.648 1324.07 805.352 1324.26 806.76C1324.36 807.368 1324.4 808.024 1324.4 808.728C1324.4 809.4 1324.31 810.28 1324.12 811.368C1323.92 812.456 1323.6 813 1323.16 813H1306.74C1305.52 813 1304.92 812.504 1304.92 811.512V780.648C1304.92 779.816 1305.28 779.4 1306.02 779.4H1323.2C1323.88 779.4 1324.21 780.824 1324.21 783.672C1324.21 786.488 1323.88 787.896 1323.2 787.896H1314.32V792.744H1320.52ZM1346.4 780.696C1346.78 779.736 1348.78 779.256 1352.4 779.256C1353.32 779.256 1354.46 779.336 1355.8 779.496C1357.18 779.624 1357.87 779.752 1357.87 779.88L1349.71 796.488L1358.16 812.376C1358.25 812.536 1357.56 812.696 1356.09 812.856C1354.62 812.984 1353.37 813.048 1352.35 813.048C1348.28 813.048 1346.06 812.504 1345.68 811.416L1342.08 802.248L1338.81 811.704C1338.49 812.6 1336.44 813.048 1332.67 813.048C1331.74 813.048 1330.59 812.984 1329.21 812.856C1327.84 812.728 1327.21 812.552 1327.34 812.328L1334.83 795.72L1327.05 779.88C1326.96 779.72 1327.61 779.576 1329.02 779.448C1330.46 779.288 1331.68 779.208 1332.67 779.208C1336.7 779.208 1338.91 779.784 1339.29 780.936L1342.6 789L1346.4 780.696ZM1369.9 812.712C1369.9 812.968 1368.43 813.096 1365.48 813.096C1362.57 813.096 1361.11 812.984 1361.11 812.76V789.192C1361.11 788.968 1362.57 788.856 1365.48 788.856C1368.43 788.856 1369.9 788.952 1369.9 789.144V812.712ZM1369.9 786.312C1369.9 786.536 1368.43 786.648 1365.48 786.648C1362.57 786.648 1361.11 786.552 1361.11 786.36V779.448C1361.11 779.128 1362.57 778.968 1365.48 778.968C1368.43 778.968 1369.9 779.064 1369.9 779.256V786.312ZM1375.25 804.36C1377.84 805.928 1379.89 806.712 1381.39 806.712C1382.35 806.712 1382.83 806.376 1382.83 805.704C1382.83 805.224 1382 804.6 1380.33 803.832C1376.33 802.2 1374.33 799.528 1374.33 795.816C1374.33 793.448 1375.2 791.64 1376.93 790.392C1378.65 789.144 1380.72 788.52 1383.12 788.52C1385.55 788.52 1387.6 788.776 1389.26 789.288C1390.96 789.8 1391.81 790.472 1391.81 791.304C1391.81 792.008 1391.45 792.936 1390.75 794.088C1390.08 795.24 1389.61 795.864 1389.36 795.96C1387.98 795.192 1386.49 794.808 1384.89 794.808C1384.03 794.808 1383.6 795.112 1383.6 795.72C1383.6 796.104 1383.76 796.44 1384.08 796.728C1384.43 796.984 1385.05 797.32 1385.95 797.736C1386.85 798.12 1387.58 798.472 1388.16 798.792C1388.77 799.112 1389.44 799.56 1390.17 800.136C1391.71 801.352 1392.48 802.936 1392.48 804.888C1392.48 807.448 1391.63 809.528 1389.93 811.128C1388.24 812.696 1385.68 813.48 1382.25 813.48C1379.98 813.48 1377.92 813.096 1376.06 812.328C1374.21 811.56 1373.28 810.504 1373.28 809.16C1373.28 808.264 1373.49 807.32 1373.9 806.328C1374.35 805.336 1374.8 804.68 1375.25 804.36ZM1092 903.048C1089.15 903.048 1087.73 902.728 1087.73 902.088L1086.72 882.84L1080.86 902.328C1080.74 902.712 1079.65 902.904 1077.6 902.904C1075.55 902.904 1074.5 902.728 1074.43 902.376L1068.38 882.648L1067.71 901.8C1067.68 902.28 1067.07 902.616 1065.89 902.808C1064.7 902.968 1063.71 903.048 1062.91 903.048C1062.14 903.048 1061.39 903 1060.66 902.904C1059.12 902.68 1058.37 902.28 1058.4 901.704L1059.5 870.504C1059.5 869.736 1061.46 869.352 1065.36 869.352C1066.51 869.352 1067.92 869.448 1069.58 869.64C1071.25 869.8 1072.18 870.136 1072.37 870.648L1077.74 885.768L1082.45 870.6C1082.74 869.768 1084.94 869.352 1089.07 869.352C1090.26 869.352 1091.66 869.448 1093.3 869.64C1094.96 869.8 1095.79 870.104 1095.79 870.552L1097.18 902.04C1097.18 902.392 1096.56 902.648 1095.31 902.808C1094.06 902.968 1092.96 903.048 1092 903.048ZM1104.73 885.576C1103.83 883.976 1103.39 882.68 1103.39 881.688C1103.39 880.664 1103.66 880.008 1104.2 879.72C1106.03 878.92 1108.52 878.52 1111.69 878.52C1114.89 878.52 1117.15 879.272 1118.46 880.776C1119.77 882.248 1120.43 884.44 1120.43 887.352V894.936H1122.06C1122.6 894.936 1123.02 895.256 1123.31 895.896C1123.63 896.536 1123.79 897.416 1123.79 898.536C1123.79 899.656 1123.5 900.76 1122.92 901.848C1122.38 902.936 1121.63 903.48 1120.67 903.48C1118.94 903.48 1117.55 903.016 1116.49 902.088C1116.01 901.704 1115.64 901.24 1115.39 900.696C1113.91 902.552 1111.63 903.48 1108.52 903.48C1106.19 903.48 1104.22 902.648 1102.62 900.984C1101.02 899.32 1100.22 897.352 1100.22 895.08C1100.22 889.864 1103.34 887.256 1109.58 887.256H1112.22V886.776C1112.22 885.944 1112.07 885.416 1111.79 885.192C1111.53 884.936 1110.91 884.808 1109.91 884.808C1108.7 884.808 1106.97 885.064 1104.73 885.576ZM1108.57 894.408C1108.57 895.112 1108.76 895.656 1109.15 896.04C1109.53 896.392 1110.01 896.568 1110.59 896.568C1111.19 896.568 1111.74 896.328 1112.22 895.848V892.152H1110.87C1109.34 892.152 1108.57 892.904 1108.57 894.408ZM1126.5 869.784C1126.5 869.272 1127.96 869.016 1130.87 869.016C1133.59 869.112 1134.95 869.32 1134.95 869.64V888.072L1139.7 879.288C1139.93 878.808 1141.29 878.568 1143.78 878.568C1146.28 878.568 1147.88 878.728 1148.58 879.048L1142.34 889.224L1149.54 902.712C1149.61 902.84 1149 902.936 1147.72 903C1146.47 903.096 1145.43 903.144 1144.6 903.144C1141.53 903.144 1139.88 903 1139.66 902.712L1134.9 892.056V902.664C1134.9 903.08 1133.5 903.288 1130.68 903.288C1127.9 903.288 1126.5 903.096 1126.5 902.712V869.784ZM1160.79 902.712C1160.79 902.968 1159.32 903.096 1156.37 903.096C1153.46 903.096 1152 902.984 1152 902.76V879.192C1152 878.968 1153.46 878.856 1156.37 878.856C1159.32 878.856 1160.79 878.952 1160.79 879.144V902.712ZM1160.79 876.312C1160.79 876.536 1159.32 876.648 1156.37 876.648C1153.46 876.648 1152 876.552 1152 876.36V869.448C1152 869.128 1153.46 868.968 1156.37 868.968C1159.32 868.968 1160.79 869.064 1160.79 869.256V876.312ZM1175.16 902.712C1175.16 902.936 1174.01 903.048 1171.7 903.048C1168.5 902.952 1166.9 902.776 1166.9 902.52V886.968H1165.66C1164.82 886.968 1164.28 886.264 1164.02 884.856C1163.96 884.44 1163.93 884.024 1163.93 883.608C1163.93 882.616 1164.12 881.624 1164.5 880.632C1165.08 879.224 1165.98 878.52 1167.19 878.52C1168.41 878.52 1169.5 878.808 1170.46 879.384C1171.42 879.96 1172.06 880.536 1172.38 881.112C1174.39 879.384 1176.79 878.52 1179.58 878.52C1182.36 878.52 1184.38 879.272 1185.62 880.776C1186.87 882.28 1187.5 884.744 1187.5 888.168V902.568C1187.5 902.952 1186.12 903.144 1183.37 903.144C1180.65 903.144 1179.29 902.952 1179.29 902.568V888.696C1179.29 887.096 1178.73 886.296 1177.61 886.296C1177.29 886.296 1176.84 886.44 1176.26 886.728C1175.69 886.984 1175.32 887.176 1175.16 887.304V902.712ZM1200.4 903C1197.29 903 1194.89 902.008 1193.2 900.024C1191.5 898.008 1190.65 895.048 1190.65 891.144C1190.65 887.208 1191.76 884.136 1193.97 881.928C1196.21 879.688 1199.17 878.568 1202.85 878.568C1206.56 878.568 1209.61 879.384 1212.01 881.016V904.92C1212.01 907.288 1211.05 909.096 1209.13 910.344C1207.21 911.624 1204.75 912.264 1201.74 912.264C1198.73 912.264 1196.05 911.88 1193.68 911.112C1193.36 910.344 1193.2 909.656 1193.2 909.048C1193.2 907 1193.53 905.496 1194.21 904.536C1196.35 905.464 1198.64 905.928 1201.07 905.928C1202.83 905.928 1203.71 905.304 1203.71 904.056V902.616C1202.33 902.872 1201.23 903 1200.4 903ZM1202.61 886.392C1200.46 886.392 1199.39 888.008 1199.39 891.24C1199.39 893.256 1199.81 894.568 1200.64 895.176C1201.18 895.592 1201.73 895.8 1202.27 895.8C1202.81 895.8 1203.29 895.752 1203.71 895.656V886.536C1203.33 886.44 1202.96 886.392 1202.61 886.392ZM1234.15 902.712C1234.15 902.968 1232.68 903.096 1229.73 903.096C1226.82 903.096 1225.36 902.984 1225.36 902.76V879.192C1225.36 878.968 1226.82 878.856 1229.73 878.856C1232.68 878.856 1234.15 878.952 1234.15 879.144V902.712ZM1234.15 876.312C1234.15 876.536 1232.68 876.648 1229.73 876.648C1226.82 876.648 1225.36 876.552 1225.36 876.36V869.448C1225.36 869.128 1226.82 868.968 1229.73 868.968C1232.68 868.968 1234.15 869.064 1234.15 869.256V876.312ZM1248.52 902.712C1248.52 902.936 1247.37 903.048 1245.06 903.048C1241.86 902.952 1240.26 902.776 1240.26 902.52V886.968H1239.02C1238.18 886.968 1237.64 886.264 1237.38 884.856C1237.32 884.44 1237.29 884.024 1237.29 883.608C1237.29 882.616 1237.48 881.624 1237.86 880.632C1238.44 879.224 1239.34 878.52 1240.55 878.52C1241.77 878.52 1242.86 878.808 1243.82 879.384C1244.78 879.96 1245.42 880.536 1245.74 881.112C1247.75 879.384 1250.15 878.52 1252.94 878.52C1255.72 878.52 1257.74 879.272 1258.98 880.776C1260.23 882.28 1260.86 884.744 1260.86 888.168V902.568C1260.86 902.952 1259.48 903.144 1256.73 903.144C1254.01 903.144 1252.65 902.952 1252.65 902.568V888.696C1252.65 887.096 1252.09 886.296 1250.97 886.296C1250.65 886.296 1250.2 886.44 1249.62 886.728C1249.05 886.984 1248.68 887.176 1248.52 887.304V902.712ZM1275.97 902.712C1275.97 903.096 1274.62 903.288 1271.93 903.288C1268.73 903.16 1267.13 902.952 1267.13 902.664V885.672H1264.69C1264.05 885.672 1263.73 884.568 1263.73 882.36C1263.73 881.784 1263.77 881.08 1263.87 880.248C1264 879.416 1264.24 879 1264.59 879H1267.13V874.776C1267.13 874.136 1268.48 873.816 1271.17 873.816C1273.89 873.816 1275.25 874.072 1275.25 874.584V877.656L1275.29 879H1279.37C1279.92 879 1280.19 880.12 1280.19 882.36C1280.19 884.6 1279.92 885.72 1279.37 885.72H1275.97V902.712ZM1300.74 901.704C1298.73 902.888 1296.13 903.48 1292.97 903.48C1289.8 903.48 1287.13 902.408 1284.95 900.264C1282.77 898.088 1281.69 895.096 1281.69 891.288C1281.69 887.448 1282.73 884.36 1284.81 882.024C1286.92 879.688 1289.57 878.52 1292.77 878.52C1295.97 878.52 1298.44 879.336 1300.17 880.968C1301.93 882.6 1302.81 884.584 1302.81 886.92C1302.81 892.104 1299.83 894.696 1293.88 894.696H1290.57C1290.57 895.656 1290.82 896.328 1291.33 896.712C1291.88 897.064 1292.66 897.24 1293.69 897.24C1295.93 897.24 1298.05 896.728 1300.07 895.704C1300.1 895.672 1300.25 895.896 1300.5 896.376C1301.27 897.752 1301.65 898.92 1301.65 899.88C1301.65 900.808 1301.35 901.416 1300.74 901.704ZM1294.74 887.832C1294.74 886.488 1294.09 885.816 1292.77 885.816C1292.17 885.816 1291.64 886.008 1291.19 886.392C1290.77 886.744 1290.57 887.272 1290.57 887.976V889.464H1293.16C1294.21 889.464 1294.74 888.92 1294.74 887.832ZM1316.45 902.952C1316.45 903.176 1315 903.288 1312.09 903.288C1309.17 903.224 1307.72 903.096 1307.72 902.904V886.968H1306.42C1305.91 886.968 1305.49 886.664 1305.17 886.056C1304.89 885.416 1304.74 884.632 1304.74 883.704C1304.74 880.248 1305.77 878.52 1307.81 878.52C1309.25 878.52 1310.45 878.968 1311.41 879.864C1312.37 880.728 1312.85 881.72 1312.85 882.84C1313.53 881.528 1314.42 880.488 1315.54 879.72C1316.69 878.92 1317.86 878.52 1319.05 878.52C1320.9 878.52 1322.02 879 1322.41 879.96C1322.5 880.216 1322.55 880.6 1322.55 881.112C1322.55 881.592 1322.39 882.472 1322.07 883.752C1321.78 885.032 1321.48 885.96 1321.16 886.536C1320.84 887.112 1320.65 887.4 1320.58 887.4C1320.52 887.4 1320.21 887.288 1319.67 887.064C1319.16 886.808 1318.69 886.68 1318.28 886.68C1317.06 886.68 1316.45 887.64 1316.45 889.56V902.952ZM1349.88 879.24C1349.88 878.952 1350.76 878.808 1352.52 878.808C1356.49 878.808 1358.44 878.936 1358.38 879.192L1353.68 902.52C1353.58 903.032 1351.8 903.288 1348.35 903.288C1344.89 903.288 1343.12 903.032 1343.02 902.52L1341.05 891.768L1338.6 902.52C1338.51 903 1336.67 903.24 1333.08 903.24C1329.53 903.24 1327.71 902.952 1327.61 902.376L1323.34 879C1323.24 878.808 1324.62 878.712 1327.47 878.712C1330.28 878.744 1331.69 878.808 1331.69 878.904L1333.9 895.128L1337.88 879.096C1337.95 878.904 1339 878.808 1341.05 878.808C1343.1 878.808 1344.16 878.904 1344.22 879.096L1348.16 894.936L1349.88 879.24ZM1363.13 900.168C1361.15 897.96 1360.15 894.904 1360.15 891C1360.15 887.096 1361.15 884.04 1363.13 881.832C1365.15 879.624 1367.85 878.52 1371.24 878.52C1374.63 878.52 1377.32 879.624 1379.31 881.832C1381.29 884.04 1382.28 887.096 1382.28 891C1382.28 894.904 1381.29 897.96 1379.31 900.168C1377.32 902.376 1374.63 903.48 1371.24 903.48C1367.85 903.48 1365.15 902.376 1363.13 900.168ZM1371.24 886.536C1369.45 886.536 1368.55 888.008 1368.55 890.952C1368.55 893.896 1369.45 895.368 1371.24 895.368C1373.07 895.368 1373.98 893.896 1373.98 890.952C1373.98 888.008 1373.07 886.536 1371.24 886.536ZM1383.8 879.144C1383.71 878.888 1385.2 878.76 1388.27 878.76C1391.37 878.76 1392.92 878.84 1392.92 879L1396.38 895.32L1398.97 879.24C1399.07 878.952 1400.65 878.808 1403.72 878.808C1406.83 878.808 1408.33 878.936 1408.24 879.192L1401.47 902.664C1401.24 902.984 1399.34 903.144 1395.76 903.144C1392.17 903.144 1390.25 902.904 1390 902.424L1383.8 879.144ZM1411.71 894.36C1414.31 895.928 1416.35 896.712 1417.86 896.712C1418.82 896.712 1419.3 896.376 1419.3 895.704C1419.3 895.224 1418.47 894.6 1416.8 893.832C1412.8 892.2 1410.8 889.528 1410.8 885.816C1410.8 883.448 1411.67 881.64 1413.39 880.392C1415.12 879.144 1417.19 878.52 1419.59 878.52C1422.02 878.52 1424.07 878.776 1425.73 879.288C1427.43 879.8 1428.27 880.472 1428.27 881.304C1428.27 882.008 1427.92 882.936 1427.22 884.088C1426.55 885.24 1426.08 885.864 1425.83 885.96C1424.45 885.192 1422.96 884.808 1421.36 884.808C1420.5 884.808 1420.07 885.112 1420.07 885.72C1420.07 886.104 1420.23 886.44 1420.55 886.728C1420.9 886.984 1421.52 887.32 1422.42 887.736C1423.31 888.12 1424.05 888.472 1424.63 888.792C1425.23 889.112 1425.91 889.56 1426.64 890.136C1428.18 891.352 1428.95 892.936 1428.95 894.888C1428.95 897.448 1428.1 899.528 1426.4 901.128C1424.71 902.696 1422.15 903.48 1418.72 903.48C1416.45 903.48 1414.39 903.096 1412.53 902.328C1410.67 901.56 1409.75 900.504 1409.75 899.16C1409.75 898.264 1409.95 897.32 1410.37 896.328C1410.82 895.336 1411.27 894.68 1411.71 894.36Z" fill="white"/>
<circle cx="77" cy="477" r="15" fill="#B9B0F0"/>
<circle cx="77" cy="567" r="15" fill="#B9B0F0"/>
<circle cx="77" cy="657" r="15" fill="#B9B0F0"/>
<rect x="2.5" y="1071.5" width="663" height="328" rx="47.5" fill="#272727" stroke="white" stroke-width="5"/>
<path d="M156.704 1163.94C156.704 1164.62 155.2 1164.95 152.192 1164.95C149.184 1164.95 147.552 1164.71 147.296 1164.23L139.28 1149.26V1164.18C139.28 1164.76 137.792 1165.05 134.816 1165.05C131.872 1165.05 130.4 1164.76 130.4 1164.18V1132.07C130.4 1131.59 131.664 1131.35 134.192 1131.35C135.184 1131.35 136.336 1131.45 137.648 1131.64C138.992 1131.8 139.808 1132.12 140.096 1132.6L147.776 1147.38V1132.31C147.776 1131.7 149.264 1131.4 152.24 1131.4C155.216 1131.4 156.704 1131.7 156.704 1132.31V1163.94ZM179.477 1131.4C180.021 1131.4 180.293 1132.82 180.293 1135.67C180.293 1138.49 180.021 1139.9 179.477 1139.9H170.693V1145.37H176.549C177.093 1145.37 177.365 1146.62 177.365 1149.11C177.365 1151.58 177.109 1152.81 176.597 1152.81H170.693V1164.38C170.693 1164.82 170.085 1165.11 168.869 1165.24C167.685 1165.4 166.693 1165.48 165.893 1165.48L163.637 1165.38C162.069 1165.19 161.285 1164.87 161.285 1164.42V1132.65C161.285 1132.14 161.381 1131.8 161.573 1131.64C161.797 1131.48 162.117 1131.4 162.533 1131.4H179.477ZM198.614 1164.23C198.614 1164.87 197.03 1165.19 193.862 1165.19C190.694 1165.19 189.11 1164.87 189.11 1164.23V1140.14H183.35C182.806 1140.14 182.422 1139.4 182.198 1137.93C182.102 1137.22 182.054 1136.5 182.054 1135.77C182.054 1135.03 182.102 1134.31 182.198 1133.61C182.422 1132.14 182.806 1131.4 183.35 1131.4H204.23C204.774 1131.4 205.158 1132.14 205.382 1133.61C205.478 1134.31 205.526 1135.03 205.526 1135.77C205.526 1136.5 205.478 1137.22 205.382 1137.93C205.158 1139.4 204.774 1140.14 204.23 1140.14H198.614V1164.23ZM153.968 1230.09C153.968 1233.42 152.528 1235.94 149.648 1237.67C151.216 1238.25 152.528 1239.24 153.584 1240.65C154.64 1242.06 155.168 1244.06 155.168 1246.65C155.168 1249.21 154.208 1251.24 152.288 1252.74C150.4 1254.25 147.68 1255 144.128 1255H132.8C132.256 1255 131.808 1254.82 131.456 1254.47C131.104 1254.09 130.928 1253.59 130.928 1252.98V1222.26C130.928 1221.91 130.976 1221.69 131.072 1221.59C131.2 1221.46 131.44 1221.4 131.792 1221.4H142.736C150.224 1221.4 153.968 1224.3 153.968 1230.09ZM140.144 1229.18V1235.46H140.384C143.456 1235.46 144.992 1234.44 144.992 1232.39C144.992 1231.27 144.688 1230.46 144.08 1229.94C143.504 1229.43 142.528 1229.18 141.152 1229.18H140.144ZM140.144 1241.13V1247.37H141.008C142.384 1247.37 143.392 1247.11 144.032 1246.6C144.672 1246.09 144.992 1245.27 144.992 1244.15C144.992 1243.03 144.688 1242.25 144.08 1241.8C143.504 1241.35 142.528 1241.13 141.152 1241.13H140.144ZM158.42 1231.29C158.42 1230.94 159.796 1230.76 162.548 1230.76C165.3 1230.76 166.676 1230.94 166.676 1231.29V1245.3C166.676 1246.9 167.188 1247.7 168.212 1247.7C168.98 1247.7 169.844 1247.37 170.804 1246.7V1231.29C170.804 1230.97 172.164 1230.81 174.884 1230.81C177.604 1230.81 178.964 1230.97 178.964 1231.29V1247.03H180.212C181.3 1247.03 181.844 1248.07 181.844 1250.15C181.844 1251.21 181.62 1252.28 181.172 1253.37C180.532 1254.78 179.668 1255.48 178.58 1255.48C176.436 1255.48 174.852 1254.6 173.828 1252.84L173.78 1252.89C171.828 1254.62 169.732 1255.48 167.492 1255.48C164.388 1255.48 162.1 1254.71 160.628 1253.18C159.156 1251.61 158.42 1249.03 158.42 1245.45V1231.29ZM193.553 1254.71C193.553 1254.97 192.081 1255.1 189.137 1255.1C186.225 1255.1 184.769 1254.98 184.769 1254.76V1231.19C184.769 1230.97 186.225 1230.86 189.137 1230.86C192.081 1230.86 193.553 1230.95 193.553 1231.14V1254.71ZM193.553 1228.31C193.553 1228.54 192.081 1228.65 189.137 1228.65C186.225 1228.65 184.769 1228.55 184.769 1228.36V1221.45C184.769 1221.13 186.225 1220.97 189.137 1220.97C192.081 1220.97 193.553 1221.06 193.553 1221.26V1228.31ZM206.63 1254.62C206.63 1254.9 204.998 1255.05 201.734 1255.05C199.174 1255.02 197.894 1254.89 197.894 1254.66V1221.98C197.894 1221.5 199.446 1221.26 202.55 1221.26C205.27 1221.35 206.63 1221.51 206.63 1221.74V1254.62ZM223.117 1221.69C223.117 1221.21 224.381 1220.97 226.909 1220.97C227.773 1220.97 228.765 1221.03 229.885 1221.16C231.037 1221.26 231.613 1221.4 231.613 1221.59V1246.89H233.293C234.093 1246.89 234.621 1247.61 234.877 1249.05C234.941 1249.46 234.973 1250.04 234.973 1250.78C234.973 1251.48 234.749 1252.34 234.301 1253.37C233.661 1254.78 232.637 1255.48 231.229 1255.48C230.173 1255.48 229.229 1255.27 228.397 1254.86C227.597 1254.44 227.053 1254.01 226.765 1253.56L226.333 1252.94C224.573 1254.63 222.365 1255.48 219.709 1255.48C217.053 1255.48 214.781 1254.38 212.893 1252.17C211.005 1249.96 210.061 1246.89 210.061 1242.95C210.061 1238.98 211.053 1235.93 213.037 1233.78C215.021 1231.61 217.501 1230.52 220.477 1230.52C221.341 1230.52 222.221 1230.62 223.117 1230.81V1221.69ZM221.533 1238.2C219.741 1238.2 218.845 1239.82 218.845 1243.05C218.845 1244.68 219.101 1245.86 219.613 1246.6C220.125 1247.3 220.685 1247.66 221.293 1247.66C221.933 1247.66 222.541 1247.38 223.117 1246.84V1238.68C222.573 1238.36 222.045 1238.2 221.533 1238.2ZM246.897 1254.71C246.897 1254.97 245.425 1255.1 242.481 1255.1C239.569 1255.1 238.113 1254.98 238.113 1254.76V1231.19C238.113 1230.97 239.569 1230.86 242.481 1230.86C245.425 1230.86 246.897 1230.95 246.897 1231.14V1254.71ZM246.897 1228.31C246.897 1228.54 245.425 1228.65 242.481 1228.65C239.569 1228.65 238.113 1228.55 238.113 1228.36V1221.45C238.113 1221.13 239.569 1220.97 242.481 1220.97C245.425 1220.97 246.897 1221.06 246.897 1221.26V1228.31ZM261.27 1254.71C261.27 1254.94 260.118 1255.05 257.814 1255.05C254.614 1254.95 253.014 1254.78 253.014 1254.52V1238.97H251.766C250.934 1238.97 250.39 1238.26 250.134 1236.86C250.07 1236.44 250.038 1236.02 250.038 1235.61C250.038 1234.62 250.23 1233.62 250.614 1232.63C251.19 1231.22 252.086 1230.52 253.302 1230.52C254.518 1230.52 255.606 1230.81 256.566 1231.38C257.526 1231.96 258.166 1232.54 258.486 1233.11C260.502 1231.38 262.902 1230.52 265.686 1230.52C268.47 1230.52 270.486 1231.27 271.734 1232.78C272.982 1234.28 273.606 1236.74 273.606 1240.17V1254.57C273.606 1254.95 272.23 1255.14 269.478 1255.14C266.758 1255.14 265.398 1254.95 265.398 1254.57V1240.7C265.398 1239.1 264.838 1238.3 263.718 1238.3C263.398 1238.3 262.95 1238.44 262.374 1238.73C261.798 1238.98 261.43 1239.18 261.27 1239.3V1254.71ZM286.508 1255C283.404 1255 281.004 1254.01 279.308 1252.02C277.612 1250.01 276.764 1247.05 276.764 1243.14C276.764 1239.21 277.868 1236.14 280.076 1233.93C282.316 1231.69 285.276 1230.57 288.956 1230.57C292.668 1230.57 295.724 1231.38 298.124 1233.02V1256.92C298.124 1259.29 297.164 1261.1 295.244 1262.34C293.324 1263.62 290.86 1264.26 287.852 1264.26C284.844 1264.26 282.156 1263.88 279.788 1263.11C279.468 1262.34 279.308 1261.66 279.308 1261.05C279.308 1259 279.644 1257.5 280.316 1256.54C282.46 1257.46 284.748 1257.93 287.18 1257.93C288.94 1257.93 289.82 1257.3 289.82 1256.06V1254.62C288.444 1254.87 287.34 1255 286.508 1255ZM288.716 1238.39C286.572 1238.39 285.5 1240.01 285.5 1243.24C285.5 1245.26 285.916 1246.57 286.748 1247.18C287.292 1247.59 287.836 1247.8 288.38 1247.8C288.924 1247.8 289.404 1247.75 289.82 1247.66V1238.54C289.436 1238.44 289.068 1238.39 288.716 1238.39ZM321.793 1263.74C321.793 1263.96 320.417 1264.07 317.665 1264.07C314.945 1264.07 313.585 1263.96 313.585 1263.74V1239.02H311.953C311.185 1239.02 310.657 1238.31 310.369 1236.9C310.273 1236.46 310.225 1235.88 310.225 1235.18C310.225 1234.47 310.449 1233.64 310.896 1232.68C311.537 1231.27 312.561 1230.57 313.969 1230.57C314.897 1230.57 315.745 1230.79 316.513 1231.24C317.313 1231.66 317.857 1232.06 318.145 1232.44C318.465 1232.79 318.625 1233 318.625 1233.06C320.769 1231.4 323.089 1230.57 325.585 1230.57C328.081 1230.57 330.225 1231.54 332.017 1233.5C333.809 1235.42 334.705 1238.41 334.705 1242.47C334.705 1246.5 333.809 1249.64 332.017 1251.88C330.225 1254.09 327.953 1255.19 325.201 1255.19C323.953 1255.19 322.817 1255.13 321.793 1255V1263.74ZM323.761 1238.97C323.217 1238.97 322.689 1239.14 322.177 1239.5V1247.99C322.721 1248.06 323.153 1248.09 323.473 1248.09C323.825 1248.09 324.097 1248.09 324.289 1248.09C325.601 1247.96 326.257 1246.28 326.257 1243.05C326.257 1240.33 325.425 1238.97 323.761 1238.97ZM348.609 1254.95C348.609 1255.18 347.154 1255.29 344.242 1255.29C341.33 1255.22 339.874 1255.1 339.874 1254.9V1238.97H338.578C338.066 1238.97 337.65 1238.66 337.33 1238.06C337.042 1237.42 336.898 1236.63 336.898 1235.7C336.898 1232.25 337.922 1230.52 339.97 1230.52C341.41 1230.52 342.61 1230.97 343.57 1231.86C344.53 1232.73 345.01 1233.72 345.01 1234.84C345.682 1233.53 346.578 1232.49 347.698 1231.72C348.85 1230.92 350.018 1230.52 351.202 1230.52C353.058 1230.52 354.178 1231 354.562 1231.96C354.658 1232.22 354.706 1232.6 354.706 1233.11C354.706 1233.59 354.546 1234.47 354.226 1235.75C353.938 1237.03 353.634 1237.96 353.314 1238.54C352.994 1239.11 352.802 1239.4 352.738 1239.4C352.674 1239.4 352.37 1239.29 351.826 1239.06C351.314 1238.81 350.85 1238.68 350.434 1238.68C349.218 1238.68 348.609 1239.64 348.609 1241.56V1254.95ZM359.193 1252.17C357.209 1249.96 356.217 1246.9 356.217 1243C356.217 1239.1 357.209 1236.04 359.193 1233.83C361.209 1231.62 363.913 1230.52 367.305 1230.52C370.697 1230.52 373.385 1231.62 375.369 1233.83C377.353 1236.04 378.345 1239.1 378.345 1243C378.345 1246.9 377.353 1249.96 375.369 1252.17C373.385 1254.38 370.697 1255.48 367.305 1255.48C363.913 1255.48 361.209 1254.38 359.193 1252.17ZM367.305 1238.54C365.513 1238.54 364.617 1240.01 364.617 1242.95C364.617 1245.9 365.513 1247.37 367.305 1247.37C369.129 1247.37 370.041 1245.9 370.041 1242.95C370.041 1240.01 369.129 1238.54 367.305 1238.54ZM381.738 1253.32V1231.19C381.738 1231 383.178 1230.9 386.058 1230.9C388.97 1230.9 390.426 1230.98 390.426 1231.14V1256.73C390.426 1259.1 389.434 1260.97 387.45 1262.34C385.498 1263.75 383.05 1264.46 380.106 1264.46C375.978 1264.46 373.914 1263.02 373.914 1260.14C373.914 1259.18 374.074 1258.38 374.394 1257.74C374.682 1257.77 375.082 1257.78 375.594 1257.78C377.93 1257.78 379.53 1257.42 380.394 1256.68C381.29 1255.94 381.738 1254.82 381.738 1253.32ZM381.738 1228.36V1221.45C381.738 1221.13 383.178 1220.97 386.058 1220.97C388.97 1220.97 390.426 1221.06 390.426 1221.26V1228.31C390.426 1228.54 388.97 1228.65 386.058 1228.65C383.178 1228.65 381.738 1228.55 381.738 1228.36ZM412.913 1253.7C410.897 1254.89 408.305 1255.48 405.137 1255.48C401.969 1255.48 399.297 1254.41 397.121 1252.26C394.945 1250.09 393.857 1247.1 393.857 1243.29C393.857 1239.45 394.897 1236.36 396.977 1234.02C399.089 1231.69 401.745 1230.52 404.945 1230.52C408.145 1230.52 410.609 1231.34 412.337 1232.97C414.097 1234.6 414.977 1236.58 414.977 1238.92C414.977 1244.1 412.001 1246.7 406.049 1246.7H402.737C402.737 1247.66 402.993 1248.33 403.505 1248.71C404.049 1249.06 404.833 1249.24 405.857 1249.24C408.097 1249.24 410.225 1248.73 412.241 1247.7C412.273 1247.67 412.417 1247.9 412.673 1248.38C413.441 1249.75 413.825 1250.92 413.825 1251.88C413.825 1252.81 413.521 1253.42 412.913 1253.7ZM406.913 1239.83C406.913 1238.49 406.257 1237.82 404.945 1237.82C404.337 1237.82 403.809 1238.01 403.361 1238.39C402.945 1238.74 402.737 1239.27 402.737 1239.98V1241.46H405.329C406.385 1241.46 406.913 1240.92 406.913 1239.83ZM425.985 1243.1C425.985 1246.23 427.169 1247.8 429.537 1247.8C431.073 1247.8 432.353 1247.5 433.377 1246.89C433.857 1246.89 434.241 1247.72 434.529 1249.38C434.849 1251.02 435.009 1252.14 435.009 1252.74C435.009 1253.32 434.929 1253.7 434.769 1253.9C433.073 1254.95 430.753 1255.48 427.809 1255.48C424.865 1255.48 422.353 1254.39 420.273 1252.22C418.225 1250.01 417.201 1247.02 417.201 1243.24C417.201 1239.43 418.209 1236.36 420.225 1234.02C422.273 1231.69 424.977 1230.52 428.337 1230.52C431.729 1230.52 434.081 1231.34 435.393 1232.97C435.681 1233.32 435.825 1233.85 435.825 1234.55C435.825 1235.22 435.697 1236.06 435.441 1237.05C434.865 1239.1 434.113 1240.28 433.185 1240.6C433.057 1240.63 432.865 1240.65 432.609 1240.65C432.385 1240.65 432.097 1240.46 431.745 1240.07C430.497 1238.82 429.489 1238.2 428.721 1238.2C427.985 1238.2 427.345 1238.58 426.801 1239.35C426.257 1240.12 425.985 1241.37 425.985 1243.1ZM449.497 1254.71C449.497 1255.1 448.153 1255.29 445.465 1255.29C442.265 1255.16 440.665 1254.95 440.665 1254.66V1237.67H438.217C437.577 1237.67 437.257 1236.57 437.257 1234.36C437.257 1233.78 437.305 1233.08 437.401 1232.25C437.529 1231.42 437.769 1231 438.121 1231H440.665V1226.78C440.665 1226.14 442.009 1225.82 444.697 1225.82C447.417 1225.82 448.777 1226.07 448.777 1226.58V1229.66L448.825 1231H452.905C453.449 1231 453.721 1232.12 453.721 1234.36C453.721 1236.6 453.449 1237.72 452.905 1237.72H449.497V1254.71ZM457.137 1246.36C459.729 1247.93 461.777 1248.71 463.281 1248.71C464.241 1248.71 464.721 1248.38 464.721 1247.7C464.721 1247.22 463.889 1246.6 462.225 1245.83C458.225 1244.2 456.225 1241.53 456.225 1237.82C456.225 1235.45 457.089 1233.64 458.817 1232.39C460.545 1231.14 462.609 1230.52 465.009 1230.52C467.441 1230.52 469.489 1230.78 471.153 1231.29C472.849 1231.8 473.697 1232.47 473.697 1233.3C473.697 1234.01 473.345 1234.94 472.641 1236.09C471.969 1237.24 471.505 1237.86 471.249 1237.96C469.873 1237.19 468.385 1236.81 466.785 1236.81C465.921 1236.81 465.489 1237.11 465.489 1237.72C465.489 1238.1 465.649 1238.44 465.969 1238.73C466.321 1238.98 466.945 1239.32 467.841 1239.74C468.737 1240.12 469.473 1240.47 470.049 1240.79C470.657 1241.11 471.329 1241.56 472.065 1242.14C473.601 1243.35 474.369 1244.94 474.369 1246.89C474.369 1249.45 473.521 1251.53 471.825 1253.13C470.129 1254.7 467.569 1255.48 464.145 1255.48C461.873 1255.48 459.809 1255.1 457.953 1254.33C456.097 1253.56 455.169 1252.5 455.169 1251.16C455.169 1250.26 455.377 1249.32 455.793 1248.33C456.241 1247.34 456.689 1246.68 457.137 1246.36ZM511.697 1231.24C511.697 1230.95 512.577 1230.81 514.337 1230.81C518.305 1230.81 520.257 1230.94 520.193 1231.19L515.489 1254.52C515.393 1255.03 513.617 1255.29 510.161 1255.29C506.705 1255.29 504.929 1255.03 504.833 1254.52L502.865 1243.77L500.417 1254.52C500.321 1255 498.481 1255.24 494.897 1255.24C491.345 1255.24 489.521 1254.95 489.425 1254.38L485.153 1231C485.057 1230.81 486.433 1230.71 489.281 1230.71C492.097 1230.74 493.505 1230.81 493.505 1230.9L495.713 1247.13L499.697 1231.1C499.761 1230.9 500.817 1230.81 502.865 1230.81C504.913 1230.81 505.969 1230.9 506.033 1231.1L509.969 1246.94L511.697 1231.24ZM531.663 1254.71C531.663 1254.97 530.191 1255.1 527.247 1255.1C524.335 1255.1 522.879 1254.98 522.879 1254.76V1231.19C522.879 1230.97 524.335 1230.86 527.247 1230.86C530.191 1230.86 531.663 1230.95 531.663 1231.14V1254.71ZM531.663 1228.31C531.663 1228.54 530.191 1228.65 527.247 1228.65C524.335 1228.65 522.879 1228.55 522.879 1228.36V1221.45C522.879 1221.13 524.335 1220.97 527.247 1220.97C530.191 1220.97 531.663 1221.06 531.663 1221.26V1228.31ZM537.876 1237.38H535.524C535.044 1237.38 534.804 1236.33 534.804 1234.22C534.804 1232.07 535.044 1231 535.524 1231H537.876V1229.94C537.876 1226.55 538.58 1224.22 539.988 1222.94C541.428 1221.62 543.428 1220.97 545.988 1220.97C548.548 1220.97 550.804 1221.43 552.756 1222.36C553.012 1222.46 553.14 1222.81 553.14 1223.42C553.14 1223.99 552.868 1224.94 552.324 1226.25C551.78 1227.56 551.316 1228.31 550.932 1228.5C549.844 1227.83 548.724 1227.5 547.572 1227.5C546.324 1227.5 545.7 1228.33 545.7 1229.99V1231H549.684C550.26 1231 550.548 1232.02 550.548 1234.07C550.548 1236.31 550.18 1237.43 549.444 1237.43H546.372V1254.42C546.372 1254.81 544.948 1255 542.1 1255C539.284 1255 537.876 1254.81 537.876 1254.42V1237.38ZM565.115 1252.17C563.131 1249.96 562.139 1246.9 562.139 1243C562.139 1239.1 563.131 1236.04 565.115 1233.83C567.131 1231.62 569.835 1230.52 573.227 1230.52C576.619 1230.52 579.307 1231.62 581.291 1233.83C583.275 1236.04 584.267 1239.1 584.267 1243C584.267 1246.9 583.275 1249.96 581.291 1252.17C579.307 1254.38 576.619 1255.48 573.227 1255.48C569.835 1255.48 567.131 1254.38 565.115 1252.17ZM573.227 1238.54C571.435 1238.54 570.539 1240.01 570.539 1242.95C570.539 1245.9 571.435 1247.37 573.227 1247.37C575.051 1247.37 575.963 1245.9 575.963 1242.95C575.963 1240.01 575.051 1238.54 573.227 1238.54ZM587.42 1231.29C587.42 1230.94 588.796 1230.76 591.548 1230.76C594.3 1230.76 595.676 1230.94 595.676 1231.29V1245.3C595.676 1246.9 596.188 1247.7 597.212 1247.7C597.98 1247.7 598.844 1247.37 599.804 1246.7V1231.29C599.804 1230.97 601.164 1230.81 603.884 1230.81C606.604 1230.81 607.964 1230.97 607.964 1231.29V1247.03H609.212C610.3 1247.03 610.844 1248.07 610.844 1250.15C610.844 1251.21 610.62 1252.28 610.172 1253.37C609.532 1254.78 608.668 1255.48 607.58 1255.48C605.436 1255.48 603.852 1254.6 602.828 1252.84L602.78 1252.89C600.828 1254.62 598.732 1255.48 596.492 1255.48C593.388 1255.48 591.1 1254.71 589.628 1253.18C588.156 1251.61 587.42 1249.03 587.42 1245.45V1231.29ZM624.281 1254.95C624.281 1255.18 622.825 1255.29 619.913 1255.29C617.001 1255.22 615.545 1255.1 615.545 1254.9V1238.97H614.249C613.737 1238.97 613.321 1238.66 613.001 1238.06C612.713 1237.42 612.569 1236.63 612.569 1235.7C612.569 1232.25 613.593 1230.52 615.641 1230.52C617.081 1230.52 618.281 1230.97 619.241 1231.86C620.201 1232.73 620.681 1233.72 620.681 1234.84C621.353 1233.53 622.249 1232.49 623.369 1231.72C624.521 1230.92 625.689 1230.52 626.873 1230.52C628.729 1230.52 629.849 1231 630.233 1231.96C630.329 1232.22 630.377 1232.6 630.377 1233.11C630.377 1233.59 630.217 1234.47 629.897 1235.75C629.609 1237.03 629.305 1237.96 628.985 1238.54C628.665 1239.11 628.473 1239.4 628.409 1239.4C628.345 1239.4 628.041 1239.29 627.497 1239.06C626.985 1238.81 626.521 1238.68 626.105 1238.68C624.889 1238.68 624.281 1239.64 624.281 1241.56V1254.95ZM138.032 1333.1C138.032 1336.23 139.216 1337.8 141.584 1337.8C143.12 1337.8 144.4 1337.5 145.424 1336.89C145.904 1336.89 146.288 1337.72 146.576 1339.38C146.896 1341.02 147.056 1342.14 147.056 1342.74C147.056 1343.32 146.976 1343.7 146.816 1343.9C145.12 1344.95 142.8 1345.48 139.856 1345.48C136.912 1345.48 134.4 1344.39 132.32 1342.22C130.272 1340.01 129.248 1337.02 129.248 1333.24C129.248 1329.43 130.256 1326.36 132.272 1324.02C134.32 1321.69 137.024 1320.52 140.384 1320.52C143.776 1320.52 146.128 1321.34 147.44 1322.97C147.728 1323.32 147.872 1323.85 147.872 1324.55C147.872 1325.22 147.744 1326.06 147.488 1327.05C146.912 1329.1 146.16 1330.28 145.232 1330.6C145.104 1330.63 144.912 1330.65 144.656 1330.65C144.432 1330.65 144.144 1330.46 143.792 1330.07C142.544 1328.82 141.536 1328.2 140.768 1328.2C140.032 1328.2 139.392 1328.58 138.848 1329.35C138.304 1330.12 138.032 1331.37 138.032 1333.1ZM152.568 1342.17C150.584 1339.96 149.592 1336.9 149.592 1333C149.592 1329.1 150.584 1326.04 152.568 1323.83C154.584 1321.62 157.288 1320.52 160.68 1320.52C164.072 1320.52 166.76 1321.62 168.744 1323.83C170.728 1326.04 171.72 1329.1 171.72 1333C171.72 1336.9 170.728 1339.96 168.744 1342.17C166.76 1344.38 164.072 1345.48 160.68 1345.48C157.288 1345.48 154.584 1344.38 152.568 1342.17ZM160.68 1328.54C158.888 1328.54 157.992 1330.01 157.992 1332.95C157.992 1335.9 158.888 1337.37 160.68 1337.37C162.504 1337.37 163.416 1335.9 163.416 1332.95C163.416 1330.01 162.504 1328.54 160.68 1328.54ZM196.857 1344.76C196.857 1344.98 195.481 1345.1 192.729 1345.1C190.009 1345.1 188.649 1344.95 188.649 1344.66V1330.7C188.649 1329.1 188.121 1328.3 187.065 1328.3C186.521 1328.3 185.801 1328.65 184.905 1329.35V1344.71C184.905 1345.03 183.529 1345.19 180.777 1345.19C178.057 1345.19 176.697 1345.02 176.697 1344.66V1328.97H175.497C174.441 1328.97 173.913 1327.86 173.913 1325.66C173.913 1324.66 174.105 1323.66 174.489 1322.63C175.001 1321.22 175.833 1320.52 176.985 1320.52C178.137 1320.52 179.241 1320.82 180.297 1321.43C181.385 1322.04 182.041 1322.62 182.265 1323.16C184.249 1321.4 186.441 1320.52 188.841 1320.52C191.273 1320.52 193.225 1321.27 194.697 1322.78C196.425 1321.27 198.505 1320.52 200.937 1320.52C206.217 1320.52 208.857 1323.74 208.857 1330.17V1344.76C208.857 1344.98 207.481 1345.1 204.729 1345.1C202.009 1345.1 200.649 1344.95 200.649 1344.66V1330.7C200.649 1329.1 200.121 1328.3 199.065 1328.3C198.489 1328.3 197.753 1328.65 196.857 1329.35V1344.76ZM234.685 1344.76C234.685 1344.98 233.309 1345.1 230.557 1345.1C227.837 1345.1 226.477 1344.95 226.477 1344.66V1330.7C226.477 1329.1 225.949 1328.3 224.893 1328.3C224.349 1328.3 223.629 1328.65 222.733 1329.35V1344.71C222.733 1345.03 221.357 1345.19 218.605 1345.19C215.885 1345.19 214.525 1345.02 214.525 1344.66V1328.97H213.325C212.269 1328.97 211.741 1327.86 211.741 1325.66C211.741 1324.66 211.933 1323.66 212.317 1322.63C212.829 1321.22 213.661 1320.52 214.813 1320.52C215.965 1320.52 217.069 1320.82 218.125 1321.43C219.213 1322.04 219.869 1322.62 220.093 1323.16C222.077 1321.4 224.269 1320.52 226.669 1320.52C229.101 1320.52 231.053 1321.27 232.525 1322.78C234.253 1321.27 236.333 1320.52 238.765 1320.52C244.045 1320.52 246.685 1323.74 246.685 1330.17V1344.76C246.685 1344.98 245.309 1345.1 242.557 1345.1C239.837 1345.1 238.477 1344.95 238.477 1344.66V1330.7C238.477 1329.1 237.949 1328.3 236.893 1328.3C236.317 1328.3 235.581 1328.65 234.685 1329.35V1344.76ZM250.529 1321.29C250.529 1320.94 251.905 1320.76 254.657 1320.76C257.409 1320.76 258.785 1320.94 258.785 1321.29V1335.3C258.785 1336.9 259.297 1337.7 260.321 1337.7C261.089 1337.7 261.953 1337.37 262.913 1336.7V1321.29C262.913 1320.97 264.273 1320.81 266.993 1320.81C269.713 1320.81 271.073 1320.97 271.073 1321.29V1337.03H272.321C273.409 1337.03 273.953 1338.07 273.953 1340.15C273.953 1341.21 273.729 1342.28 273.281 1343.37C272.641 1344.78 271.777 1345.48 270.689 1345.48C268.545 1345.48 266.961 1344.6 265.937 1342.84L265.889 1342.89C263.937 1344.62 261.841 1345.48 259.601 1345.48C256.497 1345.48 254.209 1344.71 252.737 1343.18C251.265 1341.61 250.529 1339.03 250.529 1335.45V1321.29ZM286.911 1344.71C286.911 1344.94 285.759 1345.05 283.455 1345.05C280.255 1344.95 278.655 1344.78 278.655 1344.52V1328.97H277.407C276.575 1328.97 276.031 1328.26 275.775 1326.86C275.711 1326.44 275.679 1326.02 275.679 1325.61C275.679 1324.62 275.871 1323.62 276.255 1322.63C276.831 1321.22 277.727 1320.52 278.943 1320.52C280.159 1320.52 281.247 1320.81 282.207 1321.38C283.167 1321.96 283.807 1322.54 284.127 1323.11C286.143 1321.38 288.543 1320.52 291.327 1320.52C294.111 1320.52 296.127 1321.27 297.375 1322.78C298.623 1324.28 299.247 1326.74 299.247 1330.17V1344.57C299.247 1344.95 297.871 1345.14 295.119 1345.14C292.399 1345.14 291.039 1344.95 291.039 1344.57V1330.7C291.039 1329.1 290.479 1328.3 289.359 1328.3C289.039 1328.3 288.591 1328.44 288.015 1328.73C287.439 1328.98 287.071 1329.18 286.911 1329.3V1344.71ZM312.1 1344.71C312.1 1344.97 310.628 1345.1 307.684 1345.1C304.772 1345.1 303.316 1344.98 303.316 1344.76V1321.19C303.316 1320.97 304.772 1320.86 307.684 1320.86C310.628 1320.86 312.1 1320.95 312.1 1321.14V1344.71ZM312.1 1318.31C312.1 1318.54 310.628 1318.65 307.684 1318.65C304.772 1318.65 303.316 1318.55 303.316 1318.36V1311.45C303.316 1311.13 304.772 1310.97 307.684 1310.97C310.628 1310.97 312.1 1311.06 312.1 1311.26V1318.31ZM327.481 1344.71C327.481 1345.1 326.137 1345.29 323.449 1345.29C320.249 1345.16 318.649 1344.95 318.649 1344.66V1327.67H316.201C315.561 1327.67 315.241 1326.57 315.241 1324.36C315.241 1323.78 315.289 1323.08 315.385 1322.25C315.513 1321.42 315.753 1321 316.105 1321H318.649V1316.78C318.649 1316.14 319.993 1315.82 322.681 1315.82C325.401 1315.82 326.761 1316.07 326.761 1316.58V1319.66L326.809 1321H330.889C331.433 1321 331.705 1322.12 331.705 1324.36C331.705 1326.6 331.433 1327.72 330.889 1327.72H327.481V1344.71ZM342.897 1344.71C342.897 1344.97 341.425 1345.1 338.481 1345.1C335.569 1345.1 334.113 1344.98 334.113 1344.76V1321.19C334.113 1320.97 335.569 1320.86 338.481 1320.86C341.425 1320.86 342.897 1320.95 342.897 1321.14V1344.71ZM342.897 1318.31C342.897 1318.54 341.425 1318.65 338.481 1318.65C335.569 1318.65 334.113 1318.55 334.113 1318.36V1311.45C334.113 1311.13 335.569 1310.97 338.481 1310.97C341.425 1310.97 342.897 1311.06 342.897 1311.26V1318.31ZM365.382 1343.7C363.366 1344.89 360.774 1345.48 357.606 1345.48C354.438 1345.48 351.766 1344.41 349.59 1342.26C347.414 1340.09 346.326 1337.1 346.326 1333.29C346.326 1329.45 347.366 1326.36 349.446 1324.02C351.558 1321.69 354.214 1320.52 357.414 1320.52C360.614 1320.52 363.078 1321.34 364.806 1322.97C366.566 1324.6 367.446 1326.58 367.446 1328.92C367.446 1334.1 364.47 1336.7 358.518 1336.7H355.206C355.206 1337.66 355.462 1338.33 355.974 1338.71C356.518 1339.06 357.302 1339.24 358.326 1339.24C360.566 1339.24 362.694 1338.73 364.71 1337.7C364.742 1337.67 364.886 1337.9 365.142 1338.38C365.91 1339.75 366.294 1340.92 366.294 1341.88C366.294 1342.81 365.99 1343.42 365.382 1343.7ZM359.382 1329.83C359.382 1328.49 358.726 1327.82 357.414 1327.82C356.806 1327.82 356.278 1328.01 355.83 1328.39C355.414 1328.74 355.206 1329.27 355.206 1329.98V1331.46H357.798C358.854 1331.46 359.382 1330.92 359.382 1329.83Z" fill="white"/>
<circle cx="77" cy="1150" r="15" fill="#B9B0F0"/>
<circle cx="77" cy="1240" r="15" fill="#B9B0F0"/>
<circle cx="1005" cy="708" r="15" fill="#B9B0F0"/>
<circle cx="1005" cy="798" r="15" fill="#B9B0F0"/>
<circle cx="1005" cy="888" r="15" fill="#B9B0F0"/>
</svg>
